%TF.GenerationSoftware,KiCad,Pcbnew,8.0.6*%
%TF.CreationDate,2025-02-01T08:29:43+02:00*%
%TF.ProjectId,stm32,73746d33-322e-46b6-9963-61645f706362,rev?*%
%TF.SameCoordinates,Original*%
%TF.FileFunction,Legend,Bot*%
%TF.FilePolarity,Positive*%
%FSLAX46Y46*%
G04 Gerber Fmt 4.6, Leading zero omitted, Abs format (unit mm)*
G04 Created by KiCad (PCBNEW 8.0.6) date 2025-02-01 08:29:43*
%MOMM*%
%LPD*%
G01*
G04 APERTURE LIST*
%ADD10C,0.150000*%
%ADD11C,0.120000*%
G04 APERTURE END LIST*
D10*
X136351292Y-75242155D02*
X136418636Y-75242155D01*
X136418636Y-75242155D02*
X136553323Y-75174811D01*
X136553323Y-75174811D02*
X136620666Y-75107468D01*
X136620666Y-75107468D02*
X136688010Y-74972781D01*
X136688010Y-74972781D02*
X136688010Y-74838094D01*
X136688010Y-74838094D02*
X136654338Y-74737079D01*
X136654338Y-74737079D02*
X136553323Y-74568720D01*
X136553323Y-74568720D02*
X136452308Y-74467705D01*
X136452308Y-74467705D02*
X136283949Y-74366689D01*
X136283949Y-74366689D02*
X136182934Y-74333018D01*
X136182934Y-74333018D02*
X136048247Y-74333018D01*
X136048247Y-74333018D02*
X135913560Y-74400361D01*
X135913560Y-74400361D02*
X135846216Y-74467705D01*
X135846216Y-74467705D02*
X135778873Y-74602392D01*
X135778873Y-74602392D02*
X135778873Y-74669735D01*
X135745201Y-75982933D02*
X136149262Y-75578872D01*
X135947231Y-75780903D02*
X135240125Y-75073796D01*
X135240125Y-75073796D02*
X135408483Y-75107468D01*
X135408483Y-75107468D02*
X135543170Y-75107468D01*
X135543170Y-75107468D02*
X135644186Y-75073796D01*
X134802392Y-75511529D02*
X134330987Y-75982934D01*
X134330987Y-75982934D02*
X135341140Y-76386995D01*
X135157844Y-71551292D02*
X135157844Y-71618636D01*
X135157844Y-71618636D02*
X135225188Y-71753323D01*
X135225188Y-71753323D02*
X135292531Y-71820666D01*
X135292531Y-71820666D02*
X135427218Y-71888010D01*
X135427218Y-71888010D02*
X135561905Y-71888010D01*
X135561905Y-71888010D02*
X135662920Y-71854338D01*
X135662920Y-71854338D02*
X135831279Y-71753323D01*
X135831279Y-71753323D02*
X135932294Y-71652308D01*
X135932294Y-71652308D02*
X136033310Y-71483949D01*
X136033310Y-71483949D02*
X136066981Y-71382934D01*
X136066981Y-71382934D02*
X136066981Y-71248247D01*
X136066981Y-71248247D02*
X135999638Y-71113560D01*
X135999638Y-71113560D02*
X135932294Y-71046216D01*
X135932294Y-71046216D02*
X135797607Y-70978873D01*
X135797607Y-70978873D02*
X135730264Y-70978873D01*
X135460890Y-70709499D02*
X135460890Y-70642155D01*
X135460890Y-70642155D02*
X135427218Y-70541140D01*
X135427218Y-70541140D02*
X135258859Y-70372781D01*
X135258859Y-70372781D02*
X135157844Y-70339109D01*
X135157844Y-70339109D02*
X135090501Y-70339109D01*
X135090501Y-70339109D02*
X134989485Y-70372781D01*
X134989485Y-70372781D02*
X134922142Y-70440125D01*
X134922142Y-70440125D02*
X134854798Y-70574812D01*
X134854798Y-70574812D02*
X134854798Y-71382934D01*
X134854798Y-71382934D02*
X134417066Y-70945201D01*
X133743630Y-70271766D02*
X134147691Y-70675827D01*
X133945661Y-70473796D02*
X134652768Y-69766689D01*
X134652768Y-69766689D02*
X134619096Y-69935048D01*
X134619096Y-69935048D02*
X134619096Y-70069735D01*
X134619096Y-70069735D02*
X134652768Y-70170750D01*
X109233333Y-83854819D02*
X109233333Y-84569104D01*
X109233333Y-84569104D02*
X109280952Y-84711961D01*
X109280952Y-84711961D02*
X109376190Y-84807200D01*
X109376190Y-84807200D02*
X109519047Y-84854819D01*
X109519047Y-84854819D02*
X109614285Y-84854819D01*
X108328571Y-84188152D02*
X108328571Y-84854819D01*
X108566666Y-83807200D02*
X108804761Y-84521485D01*
X108804761Y-84521485D02*
X108185714Y-84521485D01*
X141142768Y-69166368D02*
X141142768Y-69233712D01*
X141142768Y-69233712D02*
X141210112Y-69368399D01*
X141210112Y-69368399D02*
X141277455Y-69435742D01*
X141277455Y-69435742D02*
X141412142Y-69503086D01*
X141412142Y-69503086D02*
X141546829Y-69503086D01*
X141546829Y-69503086D02*
X141647844Y-69469414D01*
X141647844Y-69469414D02*
X141816203Y-69368399D01*
X141816203Y-69368399D02*
X141917218Y-69267384D01*
X141917218Y-69267384D02*
X142018234Y-69099025D01*
X142018234Y-69099025D02*
X142051905Y-68998010D01*
X142051905Y-68998010D02*
X142051905Y-68863323D01*
X142051905Y-68863323D02*
X141984562Y-68728636D01*
X141984562Y-68728636D02*
X141917218Y-68661292D01*
X141917218Y-68661292D02*
X141782531Y-68593949D01*
X141782531Y-68593949D02*
X141715188Y-68593949D01*
X140401990Y-68560277D02*
X140806051Y-68964338D01*
X140604020Y-68762307D02*
X141311127Y-68055201D01*
X141311127Y-68055201D02*
X141277455Y-68223559D01*
X141277455Y-68223559D02*
X141277455Y-68358246D01*
X141277455Y-68358246D02*
X141311127Y-68459262D01*
X140772379Y-67651139D02*
X140772379Y-67583796D01*
X140772379Y-67583796D02*
X140738707Y-67482781D01*
X140738707Y-67482781D02*
X140570348Y-67314422D01*
X140570348Y-67314422D02*
X140469333Y-67280750D01*
X140469333Y-67280750D02*
X140401989Y-67280750D01*
X140401989Y-67280750D02*
X140300974Y-67314422D01*
X140300974Y-67314422D02*
X140233631Y-67381765D01*
X140233631Y-67381765D02*
X140166287Y-67516452D01*
X140166287Y-67516452D02*
X140166287Y-68324574D01*
X140166287Y-68324574D02*
X139728554Y-67886842D01*
X116824819Y-69533333D02*
X116348628Y-69200000D01*
X116824819Y-68961905D02*
X115824819Y-68961905D01*
X115824819Y-68961905D02*
X115824819Y-69342857D01*
X115824819Y-69342857D02*
X115872438Y-69438095D01*
X115872438Y-69438095D02*
X115920057Y-69485714D01*
X115920057Y-69485714D02*
X116015295Y-69533333D01*
X116015295Y-69533333D02*
X116158152Y-69533333D01*
X116158152Y-69533333D02*
X116253390Y-69485714D01*
X116253390Y-69485714D02*
X116301009Y-69438095D01*
X116301009Y-69438095D02*
X116348628Y-69342857D01*
X116348628Y-69342857D02*
X116348628Y-68961905D01*
X116253390Y-70104762D02*
X116205771Y-70009524D01*
X116205771Y-70009524D02*
X116158152Y-69961905D01*
X116158152Y-69961905D02*
X116062914Y-69914286D01*
X116062914Y-69914286D02*
X116015295Y-69914286D01*
X116015295Y-69914286D02*
X115920057Y-69961905D01*
X115920057Y-69961905D02*
X115872438Y-70009524D01*
X115872438Y-70009524D02*
X115824819Y-70104762D01*
X115824819Y-70104762D02*
X115824819Y-70295238D01*
X115824819Y-70295238D02*
X115872438Y-70390476D01*
X115872438Y-70390476D02*
X115920057Y-70438095D01*
X115920057Y-70438095D02*
X116015295Y-70485714D01*
X116015295Y-70485714D02*
X116062914Y-70485714D01*
X116062914Y-70485714D02*
X116158152Y-70438095D01*
X116158152Y-70438095D02*
X116205771Y-70390476D01*
X116205771Y-70390476D02*
X116253390Y-70295238D01*
X116253390Y-70295238D02*
X116253390Y-70104762D01*
X116253390Y-70104762D02*
X116301009Y-70009524D01*
X116301009Y-70009524D02*
X116348628Y-69961905D01*
X116348628Y-69961905D02*
X116443866Y-69914286D01*
X116443866Y-69914286D02*
X116634342Y-69914286D01*
X116634342Y-69914286D02*
X116729580Y-69961905D01*
X116729580Y-69961905D02*
X116777200Y-70009524D01*
X116777200Y-70009524D02*
X116824819Y-70104762D01*
X116824819Y-70104762D02*
X116824819Y-70295238D01*
X116824819Y-70295238D02*
X116777200Y-70390476D01*
X116777200Y-70390476D02*
X116729580Y-70438095D01*
X116729580Y-70438095D02*
X116634342Y-70485714D01*
X116634342Y-70485714D02*
X116443866Y-70485714D01*
X116443866Y-70485714D02*
X116348628Y-70438095D01*
X116348628Y-70438095D02*
X116301009Y-70390476D01*
X116301009Y-70390476D02*
X116253390Y-70295238D01*
X138331570Y-69225018D02*
X138331570Y-69292362D01*
X138331570Y-69292362D02*
X138398914Y-69427049D01*
X138398914Y-69427049D02*
X138466257Y-69494392D01*
X138466257Y-69494392D02*
X138600944Y-69561736D01*
X138600944Y-69561736D02*
X138735631Y-69561736D01*
X138735631Y-69561736D02*
X138836646Y-69528064D01*
X138836646Y-69528064D02*
X139005005Y-69427049D01*
X139005005Y-69427049D02*
X139106020Y-69326034D01*
X139106020Y-69326034D02*
X139207036Y-69157675D01*
X139207036Y-69157675D02*
X139240707Y-69056660D01*
X139240707Y-69056660D02*
X139240707Y-68921973D01*
X139240707Y-68921973D02*
X139173364Y-68787286D01*
X139173364Y-68787286D02*
X139106020Y-68719942D01*
X139106020Y-68719942D02*
X138971333Y-68652599D01*
X138971333Y-68652599D02*
X138903990Y-68652599D01*
X137590792Y-68618927D02*
X137994853Y-69022988D01*
X137792822Y-68820957D02*
X138499929Y-68113851D01*
X138499929Y-68113851D02*
X138466257Y-68282209D01*
X138466257Y-68282209D02*
X138466257Y-68416896D01*
X138466257Y-68416896D02*
X138499929Y-68517912D01*
X138062196Y-67676118D02*
X137624463Y-67238385D01*
X137624463Y-67238385D02*
X137590791Y-67743461D01*
X137590791Y-67743461D02*
X137489776Y-67642446D01*
X137489776Y-67642446D02*
X137388761Y-67608774D01*
X137388761Y-67608774D02*
X137321417Y-67608774D01*
X137321417Y-67608774D02*
X137220402Y-67642446D01*
X137220402Y-67642446D02*
X137052043Y-67810805D01*
X137052043Y-67810805D02*
X137018372Y-67911820D01*
X137018372Y-67911820D02*
X137018372Y-67979163D01*
X137018372Y-67979163D02*
X137052043Y-68080179D01*
X137052043Y-68080179D02*
X137254074Y-68282209D01*
X137254074Y-68282209D02*
X137355089Y-68315881D01*
X137355089Y-68315881D02*
X137422433Y-68315881D01*
X124779580Y-72283333D02*
X124827200Y-72235714D01*
X124827200Y-72235714D02*
X124874819Y-72092857D01*
X124874819Y-72092857D02*
X124874819Y-71997619D01*
X124874819Y-71997619D02*
X124827200Y-71854762D01*
X124827200Y-71854762D02*
X124731961Y-71759524D01*
X124731961Y-71759524D02*
X124636723Y-71711905D01*
X124636723Y-71711905D02*
X124446247Y-71664286D01*
X124446247Y-71664286D02*
X124303390Y-71664286D01*
X124303390Y-71664286D02*
X124112914Y-71711905D01*
X124112914Y-71711905D02*
X124017676Y-71759524D01*
X124017676Y-71759524D02*
X123922438Y-71854762D01*
X123922438Y-71854762D02*
X123874819Y-71997619D01*
X123874819Y-71997619D02*
X123874819Y-72092857D01*
X123874819Y-72092857D02*
X123922438Y-72235714D01*
X123922438Y-72235714D02*
X123970057Y-72283333D01*
X123874819Y-73140476D02*
X123874819Y-72950000D01*
X123874819Y-72950000D02*
X123922438Y-72854762D01*
X123922438Y-72854762D02*
X123970057Y-72807143D01*
X123970057Y-72807143D02*
X124112914Y-72711905D01*
X124112914Y-72711905D02*
X124303390Y-72664286D01*
X124303390Y-72664286D02*
X124684342Y-72664286D01*
X124684342Y-72664286D02*
X124779580Y-72711905D01*
X124779580Y-72711905D02*
X124827200Y-72759524D01*
X124827200Y-72759524D02*
X124874819Y-72854762D01*
X124874819Y-72854762D02*
X124874819Y-73045238D01*
X124874819Y-73045238D02*
X124827200Y-73140476D01*
X124827200Y-73140476D02*
X124779580Y-73188095D01*
X124779580Y-73188095D02*
X124684342Y-73235714D01*
X124684342Y-73235714D02*
X124446247Y-73235714D01*
X124446247Y-73235714D02*
X124351009Y-73188095D01*
X124351009Y-73188095D02*
X124303390Y-73140476D01*
X124303390Y-73140476D02*
X124255771Y-73045238D01*
X124255771Y-73045238D02*
X124255771Y-72854762D01*
X124255771Y-72854762D02*
X124303390Y-72759524D01*
X124303390Y-72759524D02*
X124351009Y-72711905D01*
X124351009Y-72711905D02*
X124446247Y-72664286D01*
X137866368Y-71657231D02*
X137933712Y-71657231D01*
X137933712Y-71657231D02*
X138068399Y-71589887D01*
X138068399Y-71589887D02*
X138135742Y-71522544D01*
X138135742Y-71522544D02*
X138203086Y-71387857D01*
X138203086Y-71387857D02*
X138203086Y-71253170D01*
X138203086Y-71253170D02*
X138169414Y-71152155D01*
X138169414Y-71152155D02*
X138068399Y-70983796D01*
X138068399Y-70983796D02*
X137967384Y-70882781D01*
X137967384Y-70882781D02*
X137799025Y-70781765D01*
X137799025Y-70781765D02*
X137698010Y-70748094D01*
X137698010Y-70748094D02*
X137563323Y-70748094D01*
X137563323Y-70748094D02*
X137428636Y-70815437D01*
X137428636Y-70815437D02*
X137361292Y-70882781D01*
X137361292Y-70882781D02*
X137293949Y-71017468D01*
X137293949Y-71017468D02*
X137293949Y-71084811D01*
X137260277Y-72398009D02*
X137664338Y-71993948D01*
X137462307Y-72195979D02*
X136755201Y-71488872D01*
X136755201Y-71488872D02*
X136923559Y-71522544D01*
X136923559Y-71522544D02*
X137058246Y-71522544D01*
X137058246Y-71522544D02*
X137159262Y-71488872D01*
X136452155Y-72398010D02*
X136485826Y-72296994D01*
X136485826Y-72296994D02*
X136485826Y-72229651D01*
X136485826Y-72229651D02*
X136452155Y-72128636D01*
X136452155Y-72128636D02*
X136418483Y-72094964D01*
X136418483Y-72094964D02*
X136317468Y-72061292D01*
X136317468Y-72061292D02*
X136250124Y-72061292D01*
X136250124Y-72061292D02*
X136149109Y-72094964D01*
X136149109Y-72094964D02*
X136014422Y-72229651D01*
X136014422Y-72229651D02*
X135980750Y-72330666D01*
X135980750Y-72330666D02*
X135980750Y-72398010D01*
X135980750Y-72398010D02*
X136014422Y-72499025D01*
X136014422Y-72499025D02*
X136048094Y-72532697D01*
X136048094Y-72532697D02*
X136149109Y-72566368D01*
X136149109Y-72566368D02*
X136216452Y-72566368D01*
X136216452Y-72566368D02*
X136317468Y-72532697D01*
X136317468Y-72532697D02*
X136452155Y-72398010D01*
X136452155Y-72398010D02*
X136553170Y-72364338D01*
X136553170Y-72364338D02*
X136620513Y-72364338D01*
X136620513Y-72364338D02*
X136721529Y-72398010D01*
X136721529Y-72398010D02*
X136856216Y-72532697D01*
X136856216Y-72532697D02*
X136889887Y-72633712D01*
X136889887Y-72633712D02*
X136889887Y-72701055D01*
X136889887Y-72701055D02*
X136856216Y-72802071D01*
X136856216Y-72802071D02*
X136721529Y-72936758D01*
X136721529Y-72936758D02*
X136620513Y-72970429D01*
X136620513Y-72970429D02*
X136553170Y-72970429D01*
X136553170Y-72970429D02*
X136452155Y-72936758D01*
X136452155Y-72936758D02*
X136317468Y-72802071D01*
X136317468Y-72802071D02*
X136283796Y-72701055D01*
X136283796Y-72701055D02*
X136283796Y-72633712D01*
X136283796Y-72633712D02*
X136317468Y-72532697D01*
X121461904Y-75454819D02*
X121461904Y-76264342D01*
X121461904Y-76264342D02*
X121414285Y-76359580D01*
X121414285Y-76359580D02*
X121366666Y-76407200D01*
X121366666Y-76407200D02*
X121271428Y-76454819D01*
X121271428Y-76454819D02*
X121080952Y-76454819D01*
X121080952Y-76454819D02*
X120985714Y-76407200D01*
X120985714Y-76407200D02*
X120938095Y-76359580D01*
X120938095Y-76359580D02*
X120890476Y-76264342D01*
X120890476Y-76264342D02*
X120890476Y-75454819D01*
X120461904Y-75550057D02*
X120414285Y-75502438D01*
X120414285Y-75502438D02*
X120319047Y-75454819D01*
X120319047Y-75454819D02*
X120080952Y-75454819D01*
X120080952Y-75454819D02*
X119985714Y-75502438D01*
X119985714Y-75502438D02*
X119938095Y-75550057D01*
X119938095Y-75550057D02*
X119890476Y-75645295D01*
X119890476Y-75645295D02*
X119890476Y-75740533D01*
X119890476Y-75740533D02*
X119938095Y-75883390D01*
X119938095Y-75883390D02*
X120509523Y-76454819D01*
X120509523Y-76454819D02*
X119890476Y-76454819D01*
X113375594Y-71034819D02*
X113375594Y-70034819D01*
X113375594Y-70034819D02*
X113137499Y-70034819D01*
X113137499Y-70034819D02*
X112994642Y-70082438D01*
X112994642Y-70082438D02*
X112899404Y-70177676D01*
X112899404Y-70177676D02*
X112851785Y-70272914D01*
X112851785Y-70272914D02*
X112804166Y-70463390D01*
X112804166Y-70463390D02*
X112804166Y-70606247D01*
X112804166Y-70606247D02*
X112851785Y-70796723D01*
X112851785Y-70796723D02*
X112899404Y-70891961D01*
X112899404Y-70891961D02*
X112994642Y-70987200D01*
X112994642Y-70987200D02*
X113137499Y-71034819D01*
X113137499Y-71034819D02*
X113375594Y-71034819D01*
X111899404Y-70034819D02*
X112375594Y-70034819D01*
X112375594Y-70034819D02*
X112423213Y-70511009D01*
X112423213Y-70511009D02*
X112375594Y-70463390D01*
X112375594Y-70463390D02*
X112280356Y-70415771D01*
X112280356Y-70415771D02*
X112042261Y-70415771D01*
X112042261Y-70415771D02*
X111947023Y-70463390D01*
X111947023Y-70463390D02*
X111899404Y-70511009D01*
X111899404Y-70511009D02*
X111851785Y-70606247D01*
X111851785Y-70606247D02*
X111851785Y-70844342D01*
X111851785Y-70844342D02*
X111899404Y-70939580D01*
X111899404Y-70939580D02*
X111947023Y-70987200D01*
X111947023Y-70987200D02*
X112042261Y-71034819D01*
X112042261Y-71034819D02*
X112280356Y-71034819D01*
X112280356Y-71034819D02*
X112375594Y-70987200D01*
X112375594Y-70987200D02*
X112423213Y-70939580D01*
X158913333Y-59854819D02*
X158913333Y-60569104D01*
X158913333Y-60569104D02*
X158960952Y-60711961D01*
X158960952Y-60711961D02*
X159056190Y-60807200D01*
X159056190Y-60807200D02*
X159199047Y-60854819D01*
X159199047Y-60854819D02*
X159294285Y-60854819D01*
X157960952Y-59854819D02*
X158437142Y-59854819D01*
X158437142Y-59854819D02*
X158484761Y-60331009D01*
X158484761Y-60331009D02*
X158437142Y-60283390D01*
X158437142Y-60283390D02*
X158341904Y-60235771D01*
X158341904Y-60235771D02*
X158103809Y-60235771D01*
X158103809Y-60235771D02*
X158008571Y-60283390D01*
X158008571Y-60283390D02*
X157960952Y-60331009D01*
X157960952Y-60331009D02*
X157913333Y-60426247D01*
X157913333Y-60426247D02*
X157913333Y-60664342D01*
X157913333Y-60664342D02*
X157960952Y-60759580D01*
X157960952Y-60759580D02*
X158008571Y-60807200D01*
X158008571Y-60807200D02*
X158103809Y-60854819D01*
X158103809Y-60854819D02*
X158341904Y-60854819D01*
X158341904Y-60854819D02*
X158437142Y-60807200D01*
X158437142Y-60807200D02*
X158484761Y-60759580D01*
X114666666Y-65929580D02*
X114714285Y-65977200D01*
X114714285Y-65977200D02*
X114857142Y-66024819D01*
X114857142Y-66024819D02*
X114952380Y-66024819D01*
X114952380Y-66024819D02*
X115095237Y-65977200D01*
X115095237Y-65977200D02*
X115190475Y-65881961D01*
X115190475Y-65881961D02*
X115238094Y-65786723D01*
X115238094Y-65786723D02*
X115285713Y-65596247D01*
X115285713Y-65596247D02*
X115285713Y-65453390D01*
X115285713Y-65453390D02*
X115238094Y-65262914D01*
X115238094Y-65262914D02*
X115190475Y-65167676D01*
X115190475Y-65167676D02*
X115095237Y-65072438D01*
X115095237Y-65072438D02*
X114952380Y-65024819D01*
X114952380Y-65024819D02*
X114857142Y-65024819D01*
X114857142Y-65024819D02*
X114714285Y-65072438D01*
X114714285Y-65072438D02*
X114666666Y-65120057D01*
X113809523Y-65358152D02*
X113809523Y-66024819D01*
X114047618Y-64977200D02*
X114285713Y-65691485D01*
X114285713Y-65691485D02*
X113666666Y-65691485D01*
X139579037Y-69194397D02*
X139242319Y-69531115D01*
X140185128Y-69059710D02*
X139579037Y-69194397D01*
X139579037Y-69194397D02*
X139713724Y-68588306D01*
X138400526Y-68689321D02*
X138804587Y-69093382D01*
X138602556Y-68891351D02*
X139309663Y-68184245D01*
X139309663Y-68184245D02*
X139275991Y-68352603D01*
X139275991Y-68352603D02*
X139275991Y-68487290D01*
X139275991Y-68487290D02*
X139309663Y-68588306D01*
D11*
%TO.C,C16*%
X114265000Y-72961252D02*
X114265000Y-72438748D01*
X115735000Y-72961252D02*
X115735000Y-72438748D01*
%TO.C,J4*%
X108030000Y-80970000D02*
X108030000Y-83630000D01*
X108030000Y-80970000D02*
X156350000Y-80970000D01*
X108030000Y-83630000D02*
X156350000Y-83630000D01*
X156350000Y-80970000D02*
X156350000Y-83630000D01*
X158950000Y-82300000D02*
X158950000Y-83630000D01*
X158950000Y-83630000D02*
X157620000Y-83630000D01*
%TO.C,R8*%
X114820000Y-69546359D02*
X114820000Y-69853641D01*
X115580000Y-69546359D02*
X115580000Y-69853641D01*
%TO.C,C6*%
X125365000Y-72711252D02*
X125365000Y-72188748D01*
X126835000Y-72711252D02*
X126835000Y-72188748D01*
%TO.C,U2*%
X122610000Y-68090000D02*
X118850000Y-68090000D01*
X122610000Y-69350000D02*
X122610000Y-68090000D01*
X122610000Y-73650000D02*
X122610000Y-74910000D01*
X122610000Y-74910000D02*
X118850000Y-74910000D01*
X117810000Y-75140000D02*
X117330000Y-75140000D01*
X117570000Y-74810000D01*
X117810000Y-75140000D01*
G36*
X117810000Y-75140000D02*
G01*
X117330000Y-75140000D01*
X117570000Y-74810000D01*
X117810000Y-75140000D01*
G37*
%TO.C,D5*%
X111152500Y-68415000D02*
X111152500Y-69885000D01*
X111152500Y-69885000D02*
X113437500Y-69885000D01*
X113437500Y-68415000D02*
X111152500Y-68415000D01*
%TO.C,J5*%
X108010000Y-60770000D02*
X108010000Y-63430000D01*
X108010000Y-60770000D02*
X156330000Y-60770000D01*
X108010000Y-63430000D02*
X156330000Y-63430000D01*
X156330000Y-60770000D02*
X156330000Y-63430000D01*
X158930000Y-62100000D02*
X158930000Y-63430000D01*
X158930000Y-63430000D02*
X157600000Y-63430000D01*
%TO.C,C4*%
X114238748Y-66515000D02*
X114761252Y-66515000D01*
X114238748Y-67985000D02*
X114761252Y-67985000D01*
%TO.C,Y1*%
X138767588Y-66998959D02*
X140782843Y-69014214D01*
X139898959Y-65867588D02*
X138767588Y-66998959D01*
X141914214Y-67882843D02*
X139898959Y-65867588D01*
%TD*%
M02*
