%TF.GenerationSoftware,KiCad,Pcbnew,8.0.6*%
%TF.CreationDate,2025-02-01T08:29:43+02:00*%
%TF.ProjectId,stm32,73746d33-322e-46b6-9963-61645f706362,rev?*%
%TF.SameCoordinates,Original*%
%TF.FileFunction,Paste,Top*%
%TF.FilePolarity,Positive*%
%FSLAX46Y46*%
G04 Gerber Fmt 4.6, Leading zero omitted, Abs format (unit mm)*
G04 Created by KiCad (PCBNEW 8.0.6) date 2025-02-01 08:29:43*
%MOMM*%
%LPD*%
G01*
G04 APERTURE LIST*
G04 Aperture macros list*
%AMRoundRect*
0 Rectangle with rounded corners*
0 $1 Rounding radius*
0 $2 $3 $4 $5 $6 $7 $8 $9 X,Y pos of 4 corners*
0 Add a 4 corners polygon primitive as box body*
4,1,4,$2,$3,$4,$5,$6,$7,$8,$9,$2,$3,0*
0 Add four circle primitives for the rounded corners*
1,1,$1+$1,$2,$3*
1,1,$1+$1,$4,$5*
1,1,$1+$1,$6,$7*
1,1,$1+$1,$8,$9*
0 Add four rect primitives between the rounded corners*
20,1,$1+$1,$2,$3,$4,$5,0*
20,1,$1+$1,$4,$5,$6,$7,0*
20,1,$1+$1,$6,$7,$8,$9,0*
20,1,$1+$1,$8,$9,$2,$3,0*%
%AMRotRect*
0 Rectangle, with rotation*
0 The origin of the aperture is its center*
0 $1 length*
0 $2 width*
0 $3 Rotation angle, in degrees counterclockwise*
0 Add horizontal line*
21,1,$1,$2,0,0,$3*%
G04 Aperture macros list end*
%ADD10RoundRect,0.100000X-0.575000X0.100000X-0.575000X-0.100000X0.575000X-0.100000X0.575000X0.100000X0*%
%ADD11O,1.600000X0.900000*%
%ADD12RoundRect,0.250000X-0.450000X0.550000X-0.450000X-0.550000X0.450000X-0.550000X0.450000X0.550000X0*%
%ADD13RoundRect,0.250000X-0.700000X0.700000X-0.700000X-0.700000X0.700000X-0.700000X0.700000X0.700000X0*%
%ADD14RoundRect,0.165000X-0.475000X0.165000X-0.475000X-0.165000X0.475000X-0.165000X0.475000X0.165000X0*%
%ADD15RoundRect,0.200000X-0.275000X0.200000X-0.275000X-0.200000X0.275000X-0.200000X0.275000X0.200000X0*%
%ADD16RoundRect,0.075000X0.415425X0.521491X-0.521491X-0.415425X-0.415425X-0.521491X0.521491X0.415425X0*%
%ADD17RoundRect,0.075000X-0.415425X0.521491X-0.521491X0.415425X0.415425X-0.521491X0.521491X-0.415425X0*%
%ADD18RotRect,1.400000X1.200000X315.000000*%
%ADD19R,1.000000X0.800000*%
%ADD20R,0.700000X1.500000*%
%ADD21RoundRect,0.218750X0.256250X-0.218750X0.256250X0.218750X-0.256250X0.218750X-0.256250X-0.218750X0*%
%ADD22RoundRect,0.079500X0.014849X-0.127279X0.127279X-0.014849X-0.014849X0.127279X-0.127279X0.014849X0*%
%ADD23RoundRect,0.218750X-0.218750X-0.256250X0.218750X-0.256250X0.218750X0.256250X-0.218750X0.256250X0*%
%ADD24RoundRect,0.079500X-0.100500X0.079500X-0.100500X-0.079500X0.100500X-0.079500X0.100500X0.079500X0*%
%ADD25RoundRect,0.135000X0.185000X-0.135000X0.185000X0.135000X-0.185000X0.135000X-0.185000X-0.135000X0*%
%ADD26RoundRect,0.150000X0.150000X-0.512500X0.150000X0.512500X-0.150000X0.512500X-0.150000X-0.512500X0*%
%ADD27RoundRect,0.200000X0.200000X0.275000X-0.200000X0.275000X-0.200000X-0.275000X0.200000X-0.275000X0*%
%ADD28RoundRect,0.135000X-0.185000X0.135000X-0.185000X-0.135000X0.185000X-0.135000X0.185000X0.135000X0*%
%ADD29R,1.500000X1.500000*%
%ADD30RoundRect,0.079500X-0.127279X-0.014849X-0.014849X-0.127279X0.127279X0.014849X0.014849X0.127279X0*%
%ADD31RoundRect,0.079500X0.127279X0.014849X0.014849X0.127279X-0.127279X-0.014849X-0.014849X-0.127279X0*%
%ADD32RoundRect,0.200000X-0.200000X-0.275000X0.200000X-0.275000X0.200000X0.275000X-0.200000X0.275000X0*%
G04 APERTURE END LIST*
D10*
%TO.C,J2*%
X111425000Y-70950000D03*
X111425000Y-71600000D03*
X111425000Y-72250000D03*
X111425000Y-72900000D03*
X111425000Y-73550000D03*
D11*
X108750000Y-68950000D03*
D12*
X111200000Y-69050000D03*
D13*
X108750000Y-71050000D03*
X108750000Y-73450000D03*
D12*
X111200000Y-75450000D03*
D11*
X108750000Y-75550000D03*
%TD*%
D14*
%TO.C,C7*%
X154000000Y-66460000D03*
X154000000Y-67540000D03*
%TD*%
D15*
%TO.C,R2*%
X145300000Y-74075000D03*
X145300000Y-75725000D03*
%TD*%
D16*
%TO.C,U1*%
X139637876Y-71521212D03*
X139284322Y-71167658D03*
X138930769Y-70814105D03*
X138577215Y-70460551D03*
X138223662Y-70106998D03*
X137870109Y-69753445D03*
X137516555Y-69399891D03*
X137163002Y-69046338D03*
X136809449Y-68692785D03*
X136455895Y-68339231D03*
X136102342Y-67985678D03*
X135748788Y-67632124D03*
D17*
X133751212Y-67632124D03*
X133397658Y-67985678D03*
X133044105Y-68339231D03*
X132690551Y-68692785D03*
X132336998Y-69046338D03*
X131983445Y-69399891D03*
X131629891Y-69753445D03*
X131276338Y-70106998D03*
X130922785Y-70460551D03*
X130569231Y-70814105D03*
X130215678Y-71167658D03*
X129862124Y-71521212D03*
D16*
X129862124Y-73518788D03*
X130215678Y-73872342D03*
X130569231Y-74225895D03*
X130922785Y-74579449D03*
X131276338Y-74933002D03*
X131629891Y-75286555D03*
X131983445Y-75640109D03*
X132336998Y-75993662D03*
X132690551Y-76347215D03*
X133044105Y-76700769D03*
X133397658Y-77054322D03*
X133751212Y-77407876D03*
D17*
X135748788Y-77407876D03*
X136102342Y-77054322D03*
X136455895Y-76700769D03*
X136809449Y-76347215D03*
X137163002Y-75993662D03*
X137516555Y-75640109D03*
X137870109Y-75286555D03*
X138223662Y-74933002D03*
X138577215Y-74579449D03*
X138930769Y-74225895D03*
X139284322Y-73872342D03*
X139637876Y-73518788D03*
%TD*%
D18*
%TO.C,Y2*%
X140656497Y-67187868D03*
X142212132Y-68743503D03*
X143343503Y-67612132D03*
X141787868Y-66056497D03*
%TD*%
D19*
%TO.C,SW2*%
X146850000Y-74490000D03*
X146850000Y-76700000D03*
X154150000Y-74490000D03*
X154150000Y-76700000D03*
D20*
X148250000Y-73840000D03*
X151250000Y-73840000D03*
X152750000Y-73840000D03*
%TD*%
D21*
%TO.C,D4*%
X144100000Y-71587500D03*
X144100000Y-70012500D03*
%TD*%
D22*
%TO.C,C20*%
X128356048Y-70643952D03*
X128843952Y-70156048D03*
%TD*%
D23*
%TO.C,D2*%
X156012500Y-65100000D03*
X157587500Y-65100000D03*
%TD*%
D24*
%TO.C,C1*%
X142900000Y-71455000D03*
X142900000Y-72145000D03*
%TD*%
D25*
%TO.C,R1*%
X142000000Y-72510000D03*
X142000000Y-71490000D03*
%TD*%
D26*
%TO.C,U3*%
X118100000Y-73037500D03*
X119050000Y-73037500D03*
X120000000Y-73037500D03*
X120000000Y-70762500D03*
X119050000Y-70762500D03*
X118100000Y-70762500D03*
%TD*%
D27*
%TO.C,R4*%
X153825000Y-79000000D03*
X152175000Y-79000000D03*
%TD*%
D28*
%TO.C,R2*%
X144000000Y-74390000D03*
X144000000Y-75410000D03*
%TD*%
D29*
%TO.C,SW1*%
X153800000Y-70300000D03*
X146000000Y-70300000D03*
%TD*%
D30*
%TO.C,C15*%
X139482322Y-67882322D03*
X139970226Y-68370226D03*
%TD*%
D31*
%TO.C,C14*%
X141043952Y-69443952D03*
X140556048Y-68956048D03*
%TD*%
D23*
%TO.C,D1*%
X155312500Y-79000000D03*
X156887500Y-79000000D03*
%TD*%
D32*
%TO.C,R7*%
X113575000Y-70950000D03*
X115225000Y-70950000D03*
%TD*%
%TO.C,R6*%
X113575000Y-72900000D03*
X115225000Y-72900000D03*
%TD*%
D21*
%TO.C,D3*%
X142700000Y-76087500D03*
X142700000Y-74512500D03*
%TD*%
D22*
%TO.C,C19*%
X140356048Y-72143952D03*
X140843952Y-71656048D03*
%TD*%
D27*
%TO.C,R5*%
X154525000Y-65100000D03*
X152875000Y-65100000D03*
%TD*%
M02*
