%TF.GenerationSoftware,KiCad,Pcbnew,8.0.6*%
%TF.CreationDate,2025-02-01T08:29:42+02:00*%
%TF.ProjectId,stm32,73746d33-322e-46b6-9963-61645f706362,rev?*%
%TF.SameCoordinates,Original*%
%TF.FileFunction,Copper,L2,Bot*%
%TF.FilePolarity,Positive*%
%FSLAX46Y46*%
G04 Gerber Fmt 4.6, Leading zero omitted, Abs format (unit mm)*
G04 Created by KiCad (PCBNEW 8.0.6) date 2025-02-01 08:29:42*
%MOMM*%
%LPD*%
G01*
G04 APERTURE LIST*
G04 Aperture macros list*
%AMRoundRect*
0 Rectangle with rounded corners*
0 $1 Rounding radius*
0 $2 $3 $4 $5 $6 $7 $8 $9 X,Y pos of 4 corners*
0 Add a 4 corners polygon primitive as box body*
4,1,4,$2,$3,$4,$5,$6,$7,$8,$9,$2,$3,0*
0 Add four circle primitives for the rounded corners*
1,1,$1+$1,$2,$3*
1,1,$1+$1,$4,$5*
1,1,$1+$1,$6,$7*
1,1,$1+$1,$8,$9*
0 Add four rect primitives between the rounded corners*
20,1,$1+$1,$2,$3,$4,$5,0*
20,1,$1+$1,$4,$5,$6,$7,0*
20,1,$1+$1,$6,$7,$8,$9,0*
20,1,$1+$1,$8,$9,$2,$3,0*%
%AMRotRect*
0 Rectangle, with rotation*
0 The origin of the aperture is its center*
0 $1 length*
0 $2 width*
0 $3 Rotation angle, in degrees counterclockwise*
0 Add horizontal line*
21,1,$1,$2,0,0,$3*%
G04 Aperture macros list end*
%TA.AperFunction,ComponentPad*%
%ADD10O,1.600000X0.900000*%
%TD*%
%TA.AperFunction,ComponentPad*%
%ADD11R,1.700000X1.700000*%
%TD*%
%TA.AperFunction,ComponentPad*%
%ADD12O,1.700000X1.700000*%
%TD*%
%TA.AperFunction,SMDPad,CuDef*%
%ADD13RoundRect,0.100000X-0.021213X-0.162635X0.162635X0.021213X0.021213X0.162635X-0.162635X-0.021213X0*%
%TD*%
%TA.AperFunction,SMDPad,CuDef*%
%ADD14RoundRect,0.100000X-0.162635X0.021213X0.021213X-0.162635X0.162635X-0.021213X-0.021213X0.162635X0*%
%TD*%
%TA.AperFunction,SMDPad,CuDef*%
%ADD15RoundRect,0.250000X-0.475000X0.250000X-0.475000X-0.250000X0.475000X-0.250000X0.475000X0.250000X0*%
%TD*%
%TA.AperFunction,SMDPad,CuDef*%
%ADD16RoundRect,0.100000X0.162635X-0.021213X-0.021213X0.162635X-0.162635X0.021213X0.021213X-0.162635X0*%
%TD*%
%TA.AperFunction,SMDPad,CuDef*%
%ADD17RoundRect,0.135000X0.185000X-0.135000X0.185000X0.135000X-0.185000X0.135000X-0.185000X-0.135000X0*%
%TD*%
%TA.AperFunction,SMDPad,CuDef*%
%ADD18RoundRect,0.100000X0.021213X0.162635X-0.162635X-0.021213X-0.021213X-0.162635X0.162635X0.021213X0*%
%TD*%
%TA.AperFunction,SMDPad,CuDef*%
%ADD19RoundRect,0.375000X-0.625000X-0.375000X0.625000X-0.375000X0.625000X0.375000X-0.625000X0.375000X0*%
%TD*%
%TA.AperFunction,SMDPad,CuDef*%
%ADD20RoundRect,0.500000X-0.500000X-1.400000X0.500000X-1.400000X0.500000X1.400000X-0.500000X1.400000X0*%
%TD*%
%TA.AperFunction,SMDPad,CuDef*%
%ADD21RoundRect,0.218750X-0.218750X-0.256250X0.218750X-0.256250X0.218750X0.256250X-0.218750X0.256250X0*%
%TD*%
%TA.AperFunction,SMDPad,CuDef*%
%ADD22RoundRect,0.250000X0.250000X0.475000X-0.250000X0.475000X-0.250000X-0.475000X0.250000X-0.475000X0*%
%TD*%
%TA.AperFunction,SMDPad,CuDef*%
%ADD23RotRect,1.050000X1.100000X315.000000*%
%TD*%
%TA.AperFunction,ViaPad*%
%ADD24C,0.600000*%
%TD*%
%TA.AperFunction,ViaPad*%
%ADD25C,0.650000*%
%TD*%
%TA.AperFunction,ViaPad*%
%ADD26C,0.500000*%
%TD*%
%TA.AperFunction,ViaPad*%
%ADD27C,0.800000*%
%TD*%
%TA.AperFunction,Conductor*%
%ADD28C,0.200000*%
%TD*%
%TA.AperFunction,Conductor*%
%ADD29C,0.800000*%
%TD*%
%TA.AperFunction,Conductor*%
%ADD30C,0.300000*%
%TD*%
%TA.AperFunction,Conductor*%
%ADD31C,0.400000*%
%TD*%
%TA.AperFunction,Conductor*%
%ADD32C,0.500000*%
%TD*%
G04 APERTURE END LIST*
D10*
%TO.P,J2,6,Shield*%
%TO.N,GND*%
X108750000Y-68950000D03*
X108750000Y-75550000D03*
%TD*%
D11*
%TO.P,J3,1,Pin_1*%
%TO.N,GND*%
X156875000Y-68480000D03*
D12*
%TO.P,J3,2,Pin_2*%
%TO.N,SWCLK*%
X156875000Y-71020000D03*
%TO.P,J3,3,Pin_3*%
%TO.N,SWIO*%
X156875000Y-73560000D03*
%TO.P,J3,4,Pin_4*%
%TO.N,+3V3*%
X156875000Y-76100000D03*
%TD*%
D13*
%TO.P,C17,1*%
%TO.N,+3V3*%
X134673726Y-74926274D03*
%TO.P,C17,2*%
%TO.N,GND*%
X135126274Y-74473726D03*
%TD*%
D14*
%TO.P,C21,1*%
%TO.N,+3V3*%
X135473726Y-69873726D03*
%TO.P,C21,2*%
%TO.N,GND*%
X135926274Y-70326274D03*
%TD*%
D15*
%TO.P,C16,1*%
%TO.N,+3V3*%
X115000000Y-71750000D03*
%TO.P,C16,2*%
%TO.N,GND*%
X115000000Y-73650000D03*
%TD*%
D11*
%TO.P,J4,1,Pin_1*%
%TO.N,+3V3*%
X157620000Y-82300000D03*
D12*
%TO.P,J4,2,Pin_2*%
%TO.N,GND*%
X155080000Y-82300000D03*
%TO.P,J4,3,Pin_3*%
%TO.N,+3V3*%
X152540000Y-82300000D03*
%TO.P,J4,4,Pin_4*%
%TO.N,PB9*%
X150000000Y-82300000D03*
%TO.P,J4,5,Pin_5*%
%TO.N,PB8*%
X147460000Y-82300000D03*
%TO.P,J4,6,Pin_6*%
%TO.N,PB7*%
X144920000Y-82300000D03*
%TO.P,J4,7,Pin_7*%
%TO.N,PB6*%
X142380000Y-82300000D03*
%TO.P,J4,8,Pin_8*%
%TO.N,PB5*%
X139840000Y-82300000D03*
%TO.P,J4,9,Pin_9*%
%TO.N,PB4*%
X137300000Y-82300000D03*
%TO.P,J4,10,Pin_10*%
%TO.N,PB3*%
X134760000Y-82300000D03*
%TO.P,J4,11,Pin_11*%
%TO.N,PA15*%
X132220000Y-82300000D03*
%TO.P,J4,12,Pin_12*%
%TO.N,PA12*%
X129680000Y-82300000D03*
%TO.P,J4,13,Pin_13*%
%TO.N,PA11*%
X127140000Y-82300000D03*
%TO.P,J4,14,Pin_14*%
%TO.N,PA10*%
X124600000Y-82300000D03*
%TO.P,J4,15,Pin_15*%
%TO.N,PA9*%
X122060000Y-82300000D03*
%TO.P,J4,16,Pin_16*%
%TO.N,PA8*%
X119520000Y-82300000D03*
%TO.P,J4,17,Pin_17*%
%TO.N,PB15*%
X116980000Y-82300000D03*
%TO.P,J4,18,Pin_18*%
%TO.N,PB14*%
X114440000Y-82300000D03*
%TO.P,J4,19,Pin_19*%
%TO.N,PB13*%
X111900000Y-82300000D03*
%TO.P,J4,20,Pin_20*%
%TO.N,PB12*%
X109360000Y-82300000D03*
%TD*%
D16*
%TO.P,C12,1*%
%TO.N,GND*%
X140426274Y-69426274D03*
%TO.P,C12,2*%
%TO.N,OSC_IN*%
X139973726Y-68973726D03*
%TD*%
D17*
%TO.P,R8,1*%
%TO.N,USB_IN-*%
X115200000Y-70210000D03*
%TO.P,R8,2*%
%TO.N,+5V*%
X115200000Y-69190000D03*
%TD*%
D14*
%TO.P,C13,1*%
%TO.N,GND*%
X138647452Y-67547452D03*
%TO.P,C13,2*%
%TO.N,OSC_OUT*%
X139100000Y-68000000D03*
%TD*%
D15*
%TO.P,C6,1*%
%TO.N,+3V3*%
X126100000Y-71500000D03*
%TO.P,C6,2*%
%TO.N,GND*%
X126100000Y-73400000D03*
%TD*%
D18*
%TO.P,C18,1*%
%TO.N,+3V3*%
X138126274Y-72373726D03*
%TO.P,C18,2*%
%TO.N,GND*%
X137673726Y-72826274D03*
%TD*%
D19*
%TO.P,U2,1,GND*%
%TO.N,GND*%
X117550000Y-73800000D03*
%TO.P,U2,2,VO*%
%TO.N,+3V3*%
X117550000Y-71500000D03*
D20*
X123850000Y-71500000D03*
D19*
%TO.P,U2,3,VI*%
%TO.N,+5V*%
X117550000Y-69200000D03*
%TD*%
D21*
%TO.P,D5,1,A1*%
%TO.N,GND*%
X111850000Y-69150000D03*
%TO.P,D5,2,A2*%
%TO.N,+5V*%
X113425000Y-69150000D03*
%TD*%
D11*
%TO.P,J5,1,Pin_1*%
%TO.N,+3V3*%
X157600000Y-62100000D03*
D12*
%TO.P,J5,2,Pin_2*%
%TO.N,PC13*%
X155060000Y-62100000D03*
%TO.P,J5,3,Pin_3*%
%TO.N,PC14*%
X152520000Y-62100000D03*
%TO.P,J5,4,Pin_4*%
%TO.N,PC15*%
X149980000Y-62100000D03*
%TO.P,J5,5,Pin_5*%
%TO.N,PA0*%
X147440000Y-62100000D03*
%TO.P,J5,6,Pin_6*%
%TO.N,PA1*%
X144900000Y-62100000D03*
%TO.P,J5,7,Pin_7*%
%TO.N,PA2*%
X142360000Y-62100000D03*
%TO.P,J5,8,Pin_8*%
%TO.N,PA3*%
X139820000Y-62100000D03*
%TO.P,J5,9,Pin_9*%
%TO.N,PA4*%
X137280000Y-62100000D03*
%TO.P,J5,10,Pin_10*%
%TO.N,PA5*%
X134740000Y-62100000D03*
%TO.P,J5,11,Pin_11*%
%TO.N,PA6*%
X132200000Y-62100000D03*
%TO.P,J5,12,Pin_12*%
%TO.N,PA7*%
X129660000Y-62100000D03*
%TO.P,J5,13,Pin_13*%
%TO.N,PB0*%
X127120000Y-62100000D03*
%TO.P,J5,14,Pin_14*%
%TO.N,PB1*%
X124580000Y-62100000D03*
%TO.P,J5,15,Pin_15*%
%TO.N,PB10*%
X122040000Y-62100000D03*
%TO.P,J5,16,Pin_16*%
%TO.N,PB11*%
X119500000Y-62100000D03*
%TO.P,J5,17,Pin_17*%
%TO.N,RESET*%
X116960000Y-62100000D03*
%TO.P,J5,18,Pin_18*%
%TO.N,+3V3*%
X114420000Y-62100000D03*
%TO.P,J5,19,Pin_19*%
%TO.N,+5V*%
X111880000Y-62100000D03*
%TO.P,J5,20,Pin_20*%
%TO.N,GND*%
X109340000Y-62100000D03*
%TD*%
D22*
%TO.P,C4,1*%
%TO.N,+5V*%
X115450000Y-67250000D03*
%TO.P,C4,2*%
%TO.N,GND*%
X113550000Y-67250000D03*
%TD*%
D23*
%TO.P,Y1,1,1*%
%TO.N,OSC_OUT*%
X139845926Y-66945926D03*
%TO.P,Y1,2,2*%
%TO.N,OSC_IN*%
X141154074Y-68254074D03*
%TD*%
D24*
%TO.N,*%
X156400000Y-83700000D03*
X143900000Y-60800000D03*
X156400000Y-60800000D03*
X110800000Y-60800000D03*
X146400000Y-83700000D03*
X118500000Y-60800000D03*
X128700000Y-83700000D03*
X110800000Y-83700000D03*
X158700000Y-60800000D03*
X138800000Y-60800000D03*
X108300000Y-83700000D03*
X138800000Y-83700000D03*
X131200000Y-60800000D03*
X113400000Y-83700000D03*
X115900000Y-83700000D03*
X158700000Y-83700000D03*
X151500000Y-60800000D03*
X126100000Y-60800000D03*
X123600000Y-60800000D03*
X136300000Y-60800000D03*
X149000000Y-83700000D03*
X126100000Y-83700000D03*
X133700000Y-60800000D03*
X123600000Y-83700000D03*
X149000000Y-60800000D03*
X143900000Y-83700000D03*
X146400000Y-60800000D03*
X108300000Y-60800000D03*
X121000000Y-60800000D03*
X131200000Y-83700000D03*
X128700000Y-60800000D03*
X121000000Y-83700000D03*
X113400000Y-60800000D03*
X154000000Y-60800000D03*
X154000000Y-83700000D03*
X151500000Y-83700000D03*
X141400000Y-60800000D03*
X118500000Y-83700000D03*
X115900000Y-60800000D03*
X133700000Y-83700000D03*
X141400000Y-83700000D03*
%TO.N,GND*%
X143200000Y-65400000D03*
X111300000Y-77800000D03*
X124250000Y-67750000D03*
X124250000Y-65750000D03*
X141500000Y-69900000D03*
X133100000Y-71000000D03*
D25*
X145600000Y-78300000D03*
D24*
X117300000Y-63900000D03*
X121750000Y-67750000D03*
X108900000Y-66900000D03*
D25*
X144500000Y-77400000D03*
D24*
X135900000Y-73700000D03*
X135700000Y-71500000D03*
X118800000Y-65300000D03*
X108900000Y-79800000D03*
X136300000Y-83700000D03*
D25*
X147800000Y-78400000D03*
D24*
X138274374Y-73180786D03*
X108900000Y-77800000D03*
X111300000Y-64900000D03*
X121750000Y-65750000D03*
X132900000Y-73900000D03*
X118100000Y-64600000D03*
X111300000Y-66900000D03*
X108900000Y-64900000D03*
X126250000Y-67750000D03*
D26*
%TO.N,RESET*%
X141350000Y-71100000D03*
X136900000Y-70600000D03*
D27*
%TO.N,+5V*%
X112550000Y-70350000D03*
D26*
%TO.N,OSC_IN*%
X139171779Y-69088169D03*
%TO.N,OSC_OUT*%
X138600000Y-68400000D03*
D24*
%TO.N,SWCLK*%
X135100000Y-78500000D03*
%TO.N,SWIO*%
X132100000Y-78200000D03*
%TO.N,BOOT0*%
X137000000Y-74200000D03*
X141115380Y-73665380D03*
D26*
%TO.N,+3V3*%
X127700000Y-70400000D03*
D24*
X150000000Y-77650000D03*
D25*
X140800000Y-72600000D03*
D26*
X136000000Y-69450000D03*
D24*
X150025735Y-75425735D03*
D26*
X138850000Y-72700000D03*
D24*
X134926274Y-76026274D03*
%TO.N,USB_IN-*%
X116190000Y-70210000D03*
%TD*%
D28*
%TO.N,GND*%
X135926274Y-70326274D02*
X135926274Y-71273726D01*
X138274374Y-73180786D02*
X138028238Y-73180786D01*
D29*
X117400000Y-73650000D02*
X115000000Y-73650000D01*
D28*
X135926274Y-71273726D02*
X135700000Y-71500000D01*
D29*
X117550000Y-73800000D02*
X117400000Y-73650000D01*
D28*
X138028238Y-73180786D02*
X137673726Y-72826274D01*
%TO.N,RESET*%
X137400000Y-71100000D02*
X141350000Y-71100000D01*
D30*
X119210000Y-64350000D02*
X116960000Y-62100000D01*
D28*
X136900000Y-70600000D02*
X137400000Y-71100000D01*
D30*
X131950000Y-64350000D02*
X119210000Y-64350000D01*
X136900000Y-69300000D02*
X131950000Y-64350000D01*
X136900000Y-70600000D02*
X136900000Y-69300000D01*
D29*
%TO.N,+5V*%
X116650000Y-67250000D02*
X115450000Y-67250000D01*
X115450000Y-67250000D02*
X115450000Y-66075000D01*
X115450000Y-66075000D02*
X111880000Y-62505000D01*
D31*
X113012500Y-69187500D02*
X113600000Y-69187500D01*
X117550000Y-69200000D02*
X113612500Y-69200000D01*
D29*
X117550000Y-69200000D02*
X117550000Y-68150000D01*
D31*
X112687500Y-70212500D02*
X112687500Y-69512500D01*
D29*
X117550000Y-68150000D02*
X116650000Y-67250000D01*
X111880000Y-62505000D02*
X111880000Y-62100000D01*
D31*
X112687500Y-69512500D02*
X113012500Y-69187500D01*
X112550000Y-70350000D02*
X112687500Y-70212500D01*
D28*
%TO.N,OSC_IN*%
X139747452Y-69200000D02*
X139973726Y-68973726D01*
X139283610Y-69200000D02*
X139747452Y-69200000D01*
X140693378Y-68254074D02*
X139973726Y-68973726D01*
X139171779Y-69088169D02*
X139283610Y-69200000D01*
X141154074Y-68254074D02*
X140693378Y-68254074D01*
%TO.N,OSC_OUT*%
X139845926Y-67254074D02*
X139100000Y-68000000D01*
X139845926Y-66945926D02*
X139845926Y-67254074D01*
X138700000Y-68400000D02*
X139100000Y-68000000D01*
X138600000Y-68400000D02*
X138700000Y-68400000D01*
D30*
%TO.N,SWCLK*%
X135100000Y-78500000D02*
X137200000Y-78500000D01*
X137200000Y-78500000D02*
X144680000Y-71020000D01*
X144680000Y-71020000D02*
X156875000Y-71020000D01*
%TO.N,SWIO*%
X156835000Y-73600000D02*
X144550000Y-73600000D01*
X138550000Y-79600000D02*
X133500000Y-79600000D01*
X156875000Y-73560000D02*
X156835000Y-73600000D01*
X144550000Y-73600000D02*
X138550000Y-79600000D01*
X133500000Y-79600000D02*
X132100000Y-78200000D01*
D28*
%TO.N,BOOT0*%
X137100000Y-74100000D02*
X137000000Y-74200000D01*
X140680760Y-74100000D02*
X137100000Y-74100000D01*
X141115380Y-73665380D02*
X140680760Y-74100000D01*
D30*
%TO.N,+3V3*%
X138126274Y-72373726D02*
X138523726Y-72373726D01*
D32*
X128000000Y-72800000D02*
X126700000Y-71500000D01*
D29*
X119600000Y-70550000D02*
X118650000Y-71500000D01*
D28*
X127700000Y-70500000D02*
X126700000Y-71500000D01*
D29*
X123850000Y-71500000D02*
X125950000Y-71500000D01*
X117550000Y-71500000D02*
X123850000Y-71500000D01*
X157620000Y-82300000D02*
X155920000Y-80600000D01*
D32*
X150025735Y-77624265D02*
X150025735Y-75425735D01*
D29*
X119600000Y-67900000D02*
X119600000Y-70550000D01*
X117300000Y-71750000D02*
X117550000Y-71500000D01*
X114420000Y-62720000D02*
X119600000Y-67900000D01*
D30*
X138850000Y-72700000D02*
X140700000Y-72700000D01*
D29*
X115000000Y-71750000D02*
X117300000Y-71750000D01*
X114420000Y-62100000D02*
X114420000Y-62720000D01*
X155920000Y-80600000D02*
X154240000Y-80600000D01*
D30*
X134926274Y-75178822D02*
X134673726Y-74926274D01*
X134400000Y-74652548D02*
X134673726Y-74926274D01*
D31*
X137952548Y-72200000D02*
X138126274Y-72373726D01*
D28*
X134700000Y-70647452D02*
X134700000Y-72200000D01*
D32*
X150000000Y-77650000D02*
X150025735Y-77624265D01*
X152540000Y-82300000D02*
X150640000Y-80400000D01*
D30*
X134600000Y-72300000D02*
X134400000Y-72500000D01*
D28*
X134700000Y-72200000D02*
X134600000Y-72300000D01*
D29*
X154240000Y-80600000D02*
X152540000Y-82300000D01*
D32*
X128000000Y-75200000D02*
X128000000Y-72800000D01*
D28*
X136000000Y-69450000D02*
X135897452Y-69450000D01*
D30*
X138523726Y-72373726D02*
X138850000Y-72700000D01*
X140700000Y-72700000D02*
X140800000Y-72600000D01*
D32*
X133200000Y-80400000D02*
X128000000Y-75200000D01*
D30*
X134926274Y-76026274D02*
X134926274Y-75178822D01*
D32*
X150640000Y-80400000D02*
X133200000Y-80400000D01*
D31*
X134700000Y-72200000D02*
X137952548Y-72200000D01*
D29*
X126700000Y-71500000D02*
X126100000Y-71500000D01*
D28*
X135473726Y-69873726D02*
X134700000Y-70647452D01*
D32*
X126900000Y-72300000D02*
X126100000Y-71500000D01*
D28*
X135897452Y-69450000D02*
X135473726Y-69873726D01*
D32*
X134600000Y-72300000D02*
X126900000Y-72300000D01*
D30*
X134400000Y-72500000D02*
X134400000Y-74652548D01*
D28*
X127700000Y-70400000D02*
X127700000Y-70500000D01*
D29*
X118650000Y-71500000D02*
X117550000Y-71500000D01*
D30*
%TO.N,USB_IN-*%
X116190000Y-70210000D02*
X115200000Y-70210000D01*
%TD*%
%TA.AperFunction,Conductor*%
%TO.N,GND*%
G36*
X155330000Y-83630633D02*
G01*
X155538262Y-83574832D01*
X155608112Y-83576495D01*
X155665974Y-83615658D01*
X155693478Y-83679886D01*
X155694355Y-83694607D01*
X155694355Y-83699998D01*
X155707779Y-83810553D01*
X155696319Y-83879477D01*
X155649415Y-83931263D01*
X155584683Y-83949500D01*
X154815317Y-83949500D01*
X154748278Y-83929815D01*
X154702523Y-83877011D01*
X154692221Y-83810555D01*
X154692221Y-83810553D01*
X154700503Y-83742346D01*
X154728123Y-83678170D01*
X154786057Y-83639113D01*
X154819962Y-83638336D01*
X154830000Y-83630634D01*
X154830000Y-82733012D01*
X154887007Y-82765925D01*
X155014174Y-82800000D01*
X155145826Y-82800000D01*
X155272993Y-82765925D01*
X155330000Y-82733012D01*
X155330000Y-83630633D01*
G37*
%TD.AperFunction*%
%TA.AperFunction,Conductor*%
G36*
X108005703Y-62418669D02*
G01*
X108043477Y-62477447D01*
X108044275Y-62480289D01*
X108066566Y-62563483D01*
X108066570Y-62563492D01*
X108166399Y-62777578D01*
X108301894Y-62971082D01*
X108468917Y-63138105D01*
X108662421Y-63273600D01*
X108876507Y-63373429D01*
X108876516Y-63373433D01*
X109090000Y-63430634D01*
X109090000Y-62533012D01*
X109147007Y-62565925D01*
X109274174Y-62600000D01*
X109405826Y-62600000D01*
X109532993Y-62565925D01*
X109590000Y-62533012D01*
X109590000Y-63430633D01*
X109803483Y-63373433D01*
X109803492Y-63373429D01*
X110017578Y-63273600D01*
X110211082Y-63138105D01*
X110378105Y-62971082D01*
X110513598Y-62777580D01*
X110552509Y-62694135D01*
X110598681Y-62641695D01*
X110665875Y-62622543D01*
X110732756Y-62642758D01*
X110777273Y-62694133D01*
X110792895Y-62727633D01*
X110792898Y-62727639D01*
X110918402Y-62906877D01*
X111073123Y-63061598D01*
X111252361Y-63187102D01*
X111450670Y-63279575D01*
X111450675Y-63279576D01*
X111450679Y-63279578D01*
X111494799Y-63291399D01*
X111516692Y-63297265D01*
X111572281Y-63329359D01*
X114070340Y-65827418D01*
X114103825Y-65888741D01*
X114098841Y-65958433D01*
X114056969Y-66014366D01*
X113991505Y-66038783D01*
X113956697Y-66036351D01*
X113952692Y-66035493D01*
X113849986Y-66025000D01*
X113800000Y-66025000D01*
X113800000Y-67376000D01*
X113780315Y-67443039D01*
X113727511Y-67488794D01*
X113676000Y-67500000D01*
X112550001Y-67500000D01*
X112550001Y-67774986D01*
X112560494Y-67877697D01*
X112615641Y-68044119D01*
X112615643Y-68044124D01*
X112681939Y-68151606D01*
X112700379Y-68218999D01*
X112679456Y-68285662D01*
X112625814Y-68330432D01*
X112556484Y-68339093D01*
X112511303Y-68322242D01*
X112374577Y-68237908D01*
X112374572Y-68237906D01*
X112215083Y-68185057D01*
X112116650Y-68175000D01*
X112100000Y-68175000D01*
X112100000Y-69276000D01*
X112080315Y-69343039D01*
X112027511Y-69388794D01*
X111976000Y-69400000D01*
X110912501Y-69400000D01*
X110912501Y-69454152D01*
X110922556Y-69552583D01*
X110975406Y-69712072D01*
X110975408Y-69712077D01*
X111063614Y-69855080D01*
X111182419Y-69973885D01*
X111325422Y-70062091D01*
X111325427Y-70062093D01*
X111484916Y-70114942D01*
X111583355Y-70124999D01*
X111631028Y-70124999D01*
X111698067Y-70144682D01*
X111743823Y-70197485D01*
X111754250Y-70262882D01*
X111744435Y-70349996D01*
X111744435Y-70350003D01*
X111764630Y-70529249D01*
X111764631Y-70529254D01*
X111824211Y-70699523D01*
X111888615Y-70802020D01*
X111920184Y-70852262D01*
X112047738Y-70979816D01*
X112111694Y-71020002D01*
X112196777Y-71073464D01*
X112200478Y-71075789D01*
X112370745Y-71135368D01*
X112370750Y-71135369D01*
X112549996Y-71155565D01*
X112550000Y-71155565D01*
X112550004Y-71155565D01*
X112729249Y-71135369D01*
X112729252Y-71135368D01*
X112729255Y-71135368D01*
X112899522Y-71075789D01*
X113052262Y-70979816D01*
X113179816Y-70852262D01*
X113275789Y-70699522D01*
X113335368Y-70529255D01*
X113340095Y-70487303D01*
X113355565Y-70350003D01*
X113355565Y-70349996D01*
X113334589Y-70163825D01*
X113337645Y-70163480D01*
X113341100Y-70107325D01*
X113382413Y-70050977D01*
X113447631Y-70025909D01*
X113457708Y-70025499D01*
X113706276Y-70025499D01*
X113706286Y-70025499D01*
X113741392Y-70022737D01*
X113891639Y-69979087D01*
X114026309Y-69899443D01*
X114088934Y-69836817D01*
X114150255Y-69803334D01*
X114176614Y-69800500D01*
X114367648Y-69800500D01*
X114434687Y-69820185D01*
X114480442Y-69872989D01*
X114490763Y-69939285D01*
X114479500Y-70033072D01*
X114479500Y-70386919D01*
X114489833Y-70472977D01*
X114543837Y-70609922D01*
X114543838Y-70609923D01*
X114574665Y-70650575D01*
X114599488Y-70715886D01*
X114585060Y-70784250D01*
X114535963Y-70833961D01*
X114475861Y-70849500D01*
X114459298Y-70849500D01*
X114422432Y-70852401D01*
X114422426Y-70852402D01*
X114264606Y-70898254D01*
X114264603Y-70898255D01*
X114123137Y-70981917D01*
X114123129Y-70981923D01*
X114006923Y-71098129D01*
X114006917Y-71098137D01*
X113923255Y-71239603D01*
X113923254Y-71239606D01*
X113877402Y-71397426D01*
X113877401Y-71397432D01*
X113874500Y-71434298D01*
X113874500Y-72065701D01*
X113877401Y-72102567D01*
X113877402Y-72102573D01*
X113923254Y-72260393D01*
X113923255Y-72260396D01*
X113923256Y-72260398D01*
X113946972Y-72300500D01*
X114006917Y-72401862D01*
X114006923Y-72401870D01*
X114123129Y-72518076D01*
X114123132Y-72518078D01*
X114123135Y-72518081D01*
X114152192Y-72535265D01*
X114199875Y-72586332D01*
X114212381Y-72655073D01*
X114185736Y-72719663D01*
X114154170Y-72747535D01*
X114056656Y-72807682D01*
X113932684Y-72931654D01*
X113840643Y-73080875D01*
X113840641Y-73080880D01*
X113785494Y-73247302D01*
X113785493Y-73247309D01*
X113775000Y-73350013D01*
X113775000Y-73400000D01*
X116144000Y-73400000D01*
X116211039Y-73419685D01*
X116256794Y-73472489D01*
X116268000Y-73524000D01*
X116268000Y-73550000D01*
X119050000Y-73550000D01*
X119050000Y-73348903D01*
X119047102Y-73306175D01*
X119001168Y-73121476D01*
X118916609Y-72950977D01*
X118916607Y-72950974D01*
X118797367Y-72802633D01*
X118797366Y-72802632D01*
X118651762Y-72685592D01*
X118611843Y-72628249D01*
X118609263Y-72558427D01*
X118644842Y-72498294D01*
X118656188Y-72489563D01*
X118656130Y-72489490D01*
X118661570Y-72485150D01*
X118661576Y-72485147D01*
X118785147Y-72361576D01*
X118787063Y-72358527D01*
X118788812Y-72356979D01*
X118789490Y-72356130D01*
X118789638Y-72356248D01*
X118839398Y-72312236D01*
X118892056Y-72300500D01*
X122325501Y-72300500D01*
X122392540Y-72320185D01*
X122438295Y-72372989D01*
X122449501Y-72424500D01*
X122449501Y-72963029D01*
X122455687Y-73041643D01*
X122467845Y-73087016D01*
X122504680Y-73224488D01*
X122516308Y-73247309D01*
X122590614Y-73393146D01*
X122611122Y-73418471D01*
X122709743Y-73540257D01*
X122771730Y-73590453D01*
X122856853Y-73659385D01*
X122940371Y-73701938D01*
X123025512Y-73745320D01*
X123208355Y-73794312D01*
X123286979Y-73800500D01*
X124413020Y-73800499D01*
X124491645Y-73794312D01*
X124674488Y-73745320D01*
X124710148Y-73727149D01*
X124778812Y-73714254D01*
X124843553Y-73740529D01*
X124883811Y-73797634D01*
X124884146Y-73798630D01*
X124940642Y-73969121D01*
X124940643Y-73969124D01*
X125032684Y-74118345D01*
X125156654Y-74242315D01*
X125305875Y-74334356D01*
X125305880Y-74334358D01*
X125472302Y-74389505D01*
X125472309Y-74389506D01*
X125575019Y-74399999D01*
X125849999Y-74399999D01*
X125850000Y-74399998D01*
X125850000Y-73274000D01*
X125869685Y-73206961D01*
X125922489Y-73161206D01*
X125974000Y-73150000D01*
X126226000Y-73150000D01*
X126293039Y-73169685D01*
X126338794Y-73222489D01*
X126350000Y-73274000D01*
X126350000Y-74399999D01*
X126624972Y-74399999D01*
X126624986Y-74399998D01*
X126727697Y-74389505D01*
X126894119Y-74334358D01*
X126894124Y-74334356D01*
X127043345Y-74242315D01*
X127137819Y-74147842D01*
X127199142Y-74114357D01*
X127268834Y-74119341D01*
X127324767Y-74161213D01*
X127349184Y-74226677D01*
X127349500Y-74235523D01*
X127349500Y-75264070D01*
X127350321Y-75268195D01*
X127368914Y-75361666D01*
X127374499Y-75389744D01*
X127408720Y-75472362D01*
X127423535Y-75508127D01*
X127484740Y-75599728D01*
X127494726Y-75614673D01*
X132785325Y-80905272D01*
X132785330Y-80905276D01*
X132785331Y-80905277D01*
X132817636Y-80926862D01*
X132862441Y-80980472D01*
X132871007Y-81048658D01*
X132925274Y-81016752D01*
X132995089Y-81019523D01*
X133002922Y-81022463D01*
X133010253Y-81025500D01*
X133010260Y-81025502D01*
X133135928Y-81050500D01*
X133135931Y-81050500D01*
X133135932Y-81050500D01*
X133264069Y-81050500D01*
X133971012Y-81050500D01*
X134038051Y-81070185D01*
X134083806Y-81122989D01*
X134093750Y-81192147D01*
X134064725Y-81255703D01*
X134042135Y-81276075D01*
X133953121Y-81338402D01*
X133798402Y-81493121D01*
X133672900Y-81672357D01*
X133672898Y-81672361D01*
X133602382Y-81823583D01*
X133556209Y-81876022D01*
X133489016Y-81895174D01*
X133422135Y-81874958D01*
X133377618Y-81823583D01*
X133363118Y-81792488D01*
X133307102Y-81672362D01*
X133307100Y-81672359D01*
X133307099Y-81672357D01*
X133181599Y-81493124D01*
X133106957Y-81418482D01*
X133026877Y-81338402D01*
X132937864Y-81276074D01*
X132884339Y-81238595D01*
X132840714Y-81184018D01*
X132833806Y-81117266D01*
X132781553Y-81149545D01*
X132711695Y-81148299D01*
X132696343Y-81142347D01*
X132670220Y-81130166D01*
X132649330Y-81120425D01*
X132649326Y-81120424D01*
X132649322Y-81120422D01*
X132437977Y-81063793D01*
X132220002Y-81044723D01*
X132219998Y-81044723D01*
X132074682Y-81057436D01*
X132002023Y-81063793D01*
X132002020Y-81063793D01*
X131790677Y-81120422D01*
X131790670Y-81120424D01*
X131790670Y-81120425D01*
X131787391Y-81121954D01*
X131592361Y-81212898D01*
X131592357Y-81212900D01*
X131413121Y-81338402D01*
X131258402Y-81493121D01*
X131132900Y-81672357D01*
X131132898Y-81672361D01*
X131062382Y-81823583D01*
X131016209Y-81876022D01*
X130949016Y-81895174D01*
X130882135Y-81874958D01*
X130837618Y-81823583D01*
X130823118Y-81792488D01*
X130767102Y-81672362D01*
X130767100Y-81672359D01*
X130767099Y-81672357D01*
X130641599Y-81493124D01*
X130566957Y-81418482D01*
X130486877Y-81338402D01*
X130307639Y-81212898D01*
X130307640Y-81212898D01*
X130307638Y-81212897D01*
X130208484Y-81166661D01*
X130109330Y-81120425D01*
X130109326Y-81120424D01*
X130109322Y-81120422D01*
X129897977Y-81063793D01*
X129680002Y-81044723D01*
X129679998Y-81044723D01*
X129534682Y-81057436D01*
X129462023Y-81063793D01*
X129462020Y-81063793D01*
X129250677Y-81120422D01*
X129250670Y-81120424D01*
X129250670Y-81120425D01*
X129247391Y-81121954D01*
X129052361Y-81212898D01*
X129052357Y-81212900D01*
X128873121Y-81338402D01*
X128718402Y-81493121D01*
X128592900Y-81672357D01*
X128592898Y-81672361D01*
X128522382Y-81823583D01*
X128476209Y-81876022D01*
X128409016Y-81895174D01*
X128342135Y-81874958D01*
X128297618Y-81823583D01*
X128283118Y-81792488D01*
X128227102Y-81672362D01*
X128227100Y-81672359D01*
X128227099Y-81672357D01*
X128101599Y-81493124D01*
X128026957Y-81418482D01*
X127946877Y-81338402D01*
X127767639Y-81212898D01*
X127767640Y-81212898D01*
X127767638Y-81212897D01*
X127668484Y-81166661D01*
X127569330Y-81120425D01*
X127569326Y-81120424D01*
X127569322Y-81120422D01*
X127357977Y-81063793D01*
X127140002Y-81044723D01*
X127139998Y-81044723D01*
X126994682Y-81057436D01*
X126922023Y-81063793D01*
X126922020Y-81063793D01*
X126710677Y-81120422D01*
X126710670Y-81120424D01*
X126710670Y-81120425D01*
X126707391Y-81121954D01*
X126512361Y-81212898D01*
X126512357Y-81212900D01*
X126333121Y-81338402D01*
X126178402Y-81493121D01*
X126052900Y-81672357D01*
X126052898Y-81672361D01*
X125982382Y-81823583D01*
X125936209Y-81876022D01*
X125869016Y-81895174D01*
X125802135Y-81874958D01*
X125757618Y-81823583D01*
X125743118Y-81792488D01*
X125687102Y-81672362D01*
X125687100Y-81672359D01*
X125687099Y-81672357D01*
X125561599Y-81493124D01*
X125486957Y-81418482D01*
X125406877Y-81338402D01*
X125227639Y-81212898D01*
X125227640Y-81212898D01*
X125227638Y-81212897D01*
X125128484Y-81166661D01*
X125029330Y-81120425D01*
X125029326Y-81120424D01*
X125029322Y-81120422D01*
X124817977Y-81063793D01*
X124600002Y-81044723D01*
X124599998Y-81044723D01*
X124454682Y-81057436D01*
X124382023Y-81063793D01*
X124382020Y-81063793D01*
X124170677Y-81120422D01*
X124170670Y-81120424D01*
X124170670Y-81120425D01*
X124167391Y-81121954D01*
X123972361Y-81212898D01*
X123972357Y-81212900D01*
X123793121Y-81338402D01*
X123638402Y-81493121D01*
X123512900Y-81672357D01*
X123512898Y-81672361D01*
X123442382Y-81823583D01*
X123396209Y-81876022D01*
X123329016Y-81895174D01*
X123262135Y-81874958D01*
X123217618Y-81823583D01*
X123203118Y-81792488D01*
X123147102Y-81672362D01*
X123147100Y-81672359D01*
X123147099Y-81672357D01*
X123021599Y-81493124D01*
X122946957Y-81418482D01*
X122866877Y-81338402D01*
X122687639Y-81212898D01*
X122687640Y-81212898D01*
X122687638Y-81212897D01*
X122588484Y-81166661D01*
X122489330Y-81120425D01*
X122489326Y-81120424D01*
X122489322Y-81120422D01*
X122277977Y-81063793D01*
X122060002Y-81044723D01*
X122059998Y-81044723D01*
X121914682Y-81057436D01*
X121842023Y-81063793D01*
X121842020Y-81063793D01*
X121630677Y-81120422D01*
X121630670Y-81120424D01*
X121630670Y-81120425D01*
X121627391Y-81121954D01*
X121432361Y-81212898D01*
X121432357Y-81212900D01*
X121253121Y-81338402D01*
X121098402Y-81493121D01*
X120972900Y-81672357D01*
X120972898Y-81672361D01*
X120902382Y-81823583D01*
X120856209Y-81876022D01*
X120789016Y-81895174D01*
X120722135Y-81874958D01*
X120677618Y-81823583D01*
X120663118Y-81792488D01*
X120607102Y-81672362D01*
X120607100Y-81672359D01*
X120607099Y-81672357D01*
X120481599Y-81493124D01*
X120406957Y-81418482D01*
X120326877Y-81338402D01*
X120147639Y-81212898D01*
X120147640Y-81212898D01*
X120147638Y-81212897D01*
X120048484Y-81166661D01*
X119949330Y-81120425D01*
X119949326Y-81120424D01*
X119949322Y-81120422D01*
X119737977Y-81063793D01*
X119520002Y-81044723D01*
X119519998Y-81044723D01*
X119374682Y-81057436D01*
X119302023Y-81063793D01*
X119302020Y-81063793D01*
X119090677Y-81120422D01*
X119090670Y-81120424D01*
X119090670Y-81120425D01*
X119087391Y-81121954D01*
X118892361Y-81212898D01*
X118892357Y-81212900D01*
X118713121Y-81338402D01*
X118558402Y-81493121D01*
X118432900Y-81672357D01*
X118432898Y-81672361D01*
X118362382Y-81823583D01*
X118316209Y-81876022D01*
X118249016Y-81895174D01*
X118182135Y-81874958D01*
X118137618Y-81823583D01*
X118123118Y-81792488D01*
X118067102Y-81672362D01*
X118067100Y-81672359D01*
X118067099Y-81672357D01*
X117941599Y-81493124D01*
X117866957Y-81418482D01*
X117786877Y-81338402D01*
X117607639Y-81212898D01*
X117607640Y-81212898D01*
X117607638Y-81212897D01*
X117508484Y-81166661D01*
X117409330Y-81120425D01*
X117409326Y-81120424D01*
X117409322Y-81120422D01*
X117197977Y-81063793D01*
X116980002Y-81044723D01*
X116979998Y-81044723D01*
X116834682Y-81057436D01*
X116762023Y-81063793D01*
X116762020Y-81063793D01*
X116550677Y-81120422D01*
X116550670Y-81120424D01*
X116550670Y-81120425D01*
X116547391Y-81121954D01*
X116352361Y-81212898D01*
X116352357Y-81212900D01*
X116173121Y-81338402D01*
X116018402Y-81493121D01*
X115892900Y-81672357D01*
X115892898Y-81672361D01*
X115822382Y-81823583D01*
X115776209Y-81876022D01*
X115709016Y-81895174D01*
X115642135Y-81874958D01*
X115597618Y-81823583D01*
X115583118Y-81792488D01*
X115527102Y-81672362D01*
X115527100Y-81672359D01*
X115527099Y-81672357D01*
X115401599Y-81493124D01*
X115326957Y-81418482D01*
X115246877Y-81338402D01*
X115067639Y-81212898D01*
X115067640Y-81212898D01*
X115067638Y-81212897D01*
X114968484Y-81166661D01*
X114869330Y-81120425D01*
X114869326Y-81120424D01*
X114869322Y-81120422D01*
X114657977Y-81063793D01*
X114440002Y-81044723D01*
X114439998Y-81044723D01*
X114294682Y-81057436D01*
X114222023Y-81063793D01*
X114222020Y-81063793D01*
X114010677Y-81120422D01*
X114010670Y-81120424D01*
X114010670Y-81120425D01*
X114007391Y-81121954D01*
X113812361Y-81212898D01*
X113812357Y-81212900D01*
X113633121Y-81338402D01*
X113478402Y-81493121D01*
X113352900Y-81672357D01*
X113352898Y-81672361D01*
X113282382Y-81823583D01*
X113236209Y-81876022D01*
X113169016Y-81895174D01*
X113102135Y-81874958D01*
X113057618Y-81823583D01*
X113043118Y-81792488D01*
X112987102Y-81672362D01*
X112987100Y-81672359D01*
X112987099Y-81672357D01*
X112861599Y-81493124D01*
X112786957Y-81418482D01*
X112706877Y-81338402D01*
X112527639Y-81212898D01*
X112527640Y-81212898D01*
X112527638Y-81212897D01*
X112428484Y-81166661D01*
X112329330Y-81120425D01*
X112329326Y-81120424D01*
X112329322Y-81120422D01*
X112117977Y-81063793D01*
X111900002Y-81044723D01*
X111899998Y-81044723D01*
X111754682Y-81057436D01*
X111682023Y-81063793D01*
X111682020Y-81063793D01*
X111470677Y-81120422D01*
X111470670Y-81120424D01*
X111470670Y-81120425D01*
X111467391Y-81121954D01*
X111272361Y-81212898D01*
X111272357Y-81212900D01*
X111093121Y-81338402D01*
X110938402Y-81493121D01*
X110812900Y-81672357D01*
X110812898Y-81672361D01*
X110742382Y-81823583D01*
X110696209Y-81876022D01*
X110629016Y-81895174D01*
X110562135Y-81874958D01*
X110517618Y-81823583D01*
X110503118Y-81792488D01*
X110447102Y-81672362D01*
X110447100Y-81672359D01*
X110447099Y-81672357D01*
X110321599Y-81493124D01*
X110246957Y-81418482D01*
X110166877Y-81338402D01*
X109987639Y-81212898D01*
X109987640Y-81212898D01*
X109987638Y-81212897D01*
X109888484Y-81166661D01*
X109789330Y-81120425D01*
X109789326Y-81120424D01*
X109789322Y-81120422D01*
X109577977Y-81063793D01*
X109360002Y-81044723D01*
X109359998Y-81044723D01*
X109214682Y-81057436D01*
X109142023Y-81063793D01*
X109142020Y-81063793D01*
X108930677Y-81120422D01*
X108930670Y-81120424D01*
X108930670Y-81120425D01*
X108927391Y-81121954D01*
X108732361Y-81212898D01*
X108732357Y-81212900D01*
X108553121Y-81338402D01*
X108398402Y-81493121D01*
X108272900Y-81672357D01*
X108272898Y-81672361D01*
X108180426Y-81870668D01*
X108180422Y-81870677D01*
X108123793Y-82082020D01*
X108123793Y-82082024D01*
X108104723Y-82299997D01*
X108104723Y-82300002D01*
X108123793Y-82517975D01*
X108123793Y-82517979D01*
X108180422Y-82729322D01*
X108180424Y-82729326D01*
X108180425Y-82729330D01*
X108197490Y-82765925D01*
X108233232Y-82842575D01*
X108243724Y-82911653D01*
X108215204Y-82975437D01*
X108156727Y-83013676D01*
X108150525Y-83015377D01*
X108049775Y-83040209D01*
X107982125Y-83075715D01*
X107913617Y-83089439D01*
X107848564Y-83063947D01*
X107807620Y-83007331D01*
X107800500Y-82965918D01*
X107800500Y-76515530D01*
X107820185Y-76448491D01*
X107872989Y-76402736D01*
X107942147Y-76392792D01*
X107971953Y-76400969D01*
X108122894Y-76463491D01*
X108122902Y-76463493D01*
X108306428Y-76499999D01*
X108306431Y-76500000D01*
X108500000Y-76500000D01*
X108500000Y-75800000D01*
X109000000Y-75800000D01*
X109000000Y-76500000D01*
X109193569Y-76500000D01*
X109193571Y-76499999D01*
X109377097Y-76463493D01*
X109377105Y-76463491D01*
X109549991Y-76391880D01*
X109550000Y-76391875D01*
X109705589Y-76287913D01*
X109705593Y-76287910D01*
X109837910Y-76155593D01*
X109837913Y-76155589D01*
X109941875Y-76000000D01*
X109941880Y-75999991D01*
X110013492Y-75827103D01*
X110013493Y-75827100D01*
X110018884Y-75800000D01*
X109149728Y-75800000D01*
X109241614Y-75761940D01*
X109311940Y-75691614D01*
X109350000Y-75599728D01*
X109350000Y-75500272D01*
X109311940Y-75408386D01*
X109241614Y-75338060D01*
X109149728Y-75300000D01*
X110018884Y-75300000D01*
X110018884Y-75299999D01*
X110013493Y-75272899D01*
X110013492Y-75272896D01*
X109941880Y-75100008D01*
X109941875Y-75099999D01*
X109837913Y-74944410D01*
X109837910Y-74944406D01*
X109705593Y-74812089D01*
X109705589Y-74812086D01*
X109550000Y-74708124D01*
X109549991Y-74708119D01*
X109377105Y-74636508D01*
X109377097Y-74636506D01*
X109193570Y-74600000D01*
X109000000Y-74600000D01*
X109000000Y-75300000D01*
X108500000Y-75300000D01*
X108500000Y-74600000D01*
X108306430Y-74600000D01*
X108122902Y-74636506D01*
X108122890Y-74636509D01*
X107971952Y-74699030D01*
X107902483Y-74706499D01*
X107840004Y-74675224D01*
X107804352Y-74615135D01*
X107800500Y-74584469D01*
X107800500Y-73949986D01*
X113775001Y-73949986D01*
X113785494Y-74052697D01*
X113840641Y-74219119D01*
X113840643Y-74219124D01*
X113932684Y-74368345D01*
X114056654Y-74492315D01*
X114205875Y-74584356D01*
X114205880Y-74584358D01*
X114372302Y-74639505D01*
X114372309Y-74639506D01*
X114475019Y-74649999D01*
X114749999Y-74649999D01*
X115250000Y-74649999D01*
X115524972Y-74649999D01*
X115524986Y-74649998D01*
X115627697Y-74639505D01*
X115794119Y-74584358D01*
X115794124Y-74584356D01*
X115949491Y-74488525D01*
X115950795Y-74490639D01*
X116004687Y-74468880D01*
X116073333Y-74481900D01*
X116124042Y-74529966D01*
X116127927Y-74537189D01*
X116183390Y-74649022D01*
X116183392Y-74649025D01*
X116302632Y-74797366D01*
X116302633Y-74797367D01*
X116450974Y-74916607D01*
X116450977Y-74916609D01*
X116621476Y-75001168D01*
X116806175Y-75047102D01*
X116848903Y-75050000D01*
X117300000Y-75050000D01*
X117800000Y-75050000D01*
X118251097Y-75050000D01*
X118293824Y-75047102D01*
X118478523Y-75001168D01*
X118649022Y-74916609D01*
X118649025Y-74916607D01*
X118797366Y-74797367D01*
X118797367Y-74797366D01*
X118916607Y-74649025D01*
X118916609Y-74649022D01*
X119001168Y-74478523D01*
X119047102Y-74293824D01*
X119050000Y-74251096D01*
X119050000Y-74050000D01*
X117800000Y-74050000D01*
X117800000Y-75050000D01*
X117300000Y-75050000D01*
X117300000Y-74050000D01*
X116131000Y-74050000D01*
X116063961Y-74030315D01*
X116018206Y-73977511D01*
X116007000Y-73926000D01*
X116007000Y-73900000D01*
X115250000Y-73900000D01*
X115250000Y-74649999D01*
X114749999Y-74649999D01*
X114750000Y-74649998D01*
X114750000Y-73900000D01*
X113775001Y-73900000D01*
X113775001Y-73949986D01*
X107800500Y-73949986D01*
X107800500Y-69915530D01*
X107820185Y-69848491D01*
X107872989Y-69802736D01*
X107942147Y-69792792D01*
X107971953Y-69800969D01*
X108122894Y-69863491D01*
X108122902Y-69863493D01*
X108306428Y-69899999D01*
X108306431Y-69900000D01*
X108500000Y-69900000D01*
X108500000Y-69200000D01*
X109000000Y-69200000D01*
X109000000Y-69900000D01*
X109193569Y-69900000D01*
X109193571Y-69899999D01*
X109377097Y-69863493D01*
X109377105Y-69863491D01*
X109549991Y-69791880D01*
X109550000Y-69791875D01*
X109705589Y-69687913D01*
X109705593Y-69687910D01*
X109837910Y-69555593D01*
X109837913Y-69555589D01*
X109941875Y-69400000D01*
X109941880Y-69399991D01*
X110013492Y-69227103D01*
X110013493Y-69227100D01*
X110018884Y-69200000D01*
X109149728Y-69200000D01*
X109241614Y-69161940D01*
X109311940Y-69091614D01*
X109350000Y-68999728D01*
X109350000Y-68900272D01*
X109327458Y-68845849D01*
X110912500Y-68845849D01*
X110912500Y-68900000D01*
X111600000Y-68900000D01*
X111600000Y-68174999D01*
X111583356Y-68175000D01*
X111484915Y-68185057D01*
X111325427Y-68237906D01*
X111325422Y-68237908D01*
X111182419Y-68326114D01*
X111063614Y-68444919D01*
X110975408Y-68587922D01*
X110975406Y-68587927D01*
X110922557Y-68747416D01*
X110912500Y-68845849D01*
X109327458Y-68845849D01*
X109311940Y-68808386D01*
X109241614Y-68738060D01*
X109149728Y-68700000D01*
X110018884Y-68700000D01*
X110018884Y-68699999D01*
X110013493Y-68672899D01*
X110013492Y-68672896D01*
X109941880Y-68500008D01*
X109941875Y-68499999D01*
X109837913Y-68344410D01*
X109837910Y-68344406D01*
X109705593Y-68212089D01*
X109705589Y-68212086D01*
X109550000Y-68108124D01*
X109549991Y-68108119D01*
X109377105Y-68036508D01*
X109377097Y-68036506D01*
X109193570Y-68000000D01*
X109000000Y-68000000D01*
X109000000Y-68700000D01*
X108500000Y-68700000D01*
X108500000Y-68000000D01*
X108306430Y-68000000D01*
X108122902Y-68036506D01*
X108122890Y-68036509D01*
X107971952Y-68099030D01*
X107902483Y-68106499D01*
X107840004Y-68075224D01*
X107804352Y-68015135D01*
X107800500Y-67984469D01*
X107800500Y-66725013D01*
X112550000Y-66725013D01*
X112550000Y-67000000D01*
X113300000Y-67000000D01*
X113300000Y-66025000D01*
X113299999Y-66024999D01*
X113250029Y-66025000D01*
X113250011Y-66025001D01*
X113147302Y-66035494D01*
X112980880Y-66090641D01*
X112980875Y-66090643D01*
X112831654Y-66182684D01*
X112707684Y-66306654D01*
X112615643Y-66455875D01*
X112615641Y-66455880D01*
X112560494Y-66622302D01*
X112560493Y-66622309D01*
X112550000Y-66725013D01*
X107800500Y-66725013D01*
X107800500Y-62512382D01*
X107820185Y-62445343D01*
X107872989Y-62399588D01*
X107942147Y-62389644D01*
X108005703Y-62418669D01*
G37*
%TD.AperFunction*%
%TA.AperFunction,Conductor*%
G36*
X159151436Y-61436052D02*
G01*
X159192380Y-61492667D01*
X159199500Y-61534081D01*
X159199500Y-82965918D01*
X159179815Y-83032957D01*
X159127011Y-83078712D01*
X159057853Y-83088656D01*
X159017875Y-83075715D01*
X158943585Y-83036725D01*
X158944206Y-83035541D01*
X158894817Y-82998135D01*
X158870767Y-82932535D01*
X158870499Y-82924382D01*
X158870499Y-81418482D01*
X158867651Y-81400500D01*
X158855646Y-81324696D01*
X158798050Y-81211658D01*
X158798046Y-81211654D01*
X158798045Y-81211652D01*
X158708347Y-81121954D01*
X158708344Y-81121952D01*
X158708342Y-81121950D01*
X158631517Y-81082805D01*
X158595301Y-81064352D01*
X158501524Y-81049500D01*
X158501519Y-81049500D01*
X157552940Y-81049500D01*
X157485901Y-81029815D01*
X157465259Y-81013181D01*
X156430292Y-79978213D01*
X156430288Y-79978210D01*
X156299185Y-79890609D01*
X156299172Y-79890602D01*
X156153501Y-79830264D01*
X156153489Y-79830261D01*
X155998845Y-79799500D01*
X155998842Y-79799500D01*
X154318842Y-79799500D01*
X154161158Y-79799500D01*
X154161155Y-79799500D01*
X154006510Y-79830261D01*
X154006498Y-79830264D01*
X153860827Y-79890602D01*
X153860814Y-79890609D01*
X153729711Y-79978210D01*
X153729707Y-79978213D01*
X152694173Y-81013747D01*
X152632850Y-81047232D01*
X152595686Y-81049594D01*
X152540004Y-81044723D01*
X152539998Y-81044723D01*
X152322029Y-81063792D01*
X152322025Y-81063792D01*
X152322023Y-81063793D01*
X152322017Y-81063794D01*
X152322015Y-81063795D01*
X152313659Y-81066034D01*
X152243809Y-81064370D01*
X152193886Y-81033940D01*
X151054674Y-79894727D01*
X151054673Y-79894726D01*
X151054669Y-79894723D01*
X150948127Y-79823535D01*
X150829744Y-79774499D01*
X150829738Y-79774497D01*
X150704071Y-79749500D01*
X150704069Y-79749500D01*
X139478387Y-79749500D01*
X139411348Y-79729815D01*
X139365593Y-79677011D01*
X139355649Y-79607853D01*
X139384674Y-79544297D01*
X139390706Y-79537819D01*
X143259530Y-75668995D01*
X148299499Y-75668995D01*
X148326418Y-75804322D01*
X148326421Y-75804332D01*
X148379221Y-75931804D01*
X148379228Y-75931817D01*
X148455885Y-76046541D01*
X148455888Y-76046545D01*
X148553454Y-76144111D01*
X148553458Y-76144114D01*
X148668182Y-76220771D01*
X148668195Y-76220778D01*
X148794472Y-76273083D01*
X148795672Y-76273580D01*
X148795676Y-76273580D01*
X148795677Y-76273581D01*
X148931004Y-76300500D01*
X148931007Y-76300500D01*
X149068995Y-76300500D01*
X149160041Y-76282389D01*
X149204328Y-76273580D01*
X149204335Y-76273576D01*
X149210155Y-76271812D01*
X149210540Y-76273083D01*
X149273232Y-76266333D01*
X149335716Y-76297597D01*
X149371378Y-76357680D01*
X149375235Y-76388366D01*
X149375235Y-77299206D01*
X149367177Y-77343176D01*
X149314861Y-77481122D01*
X149314859Y-77481130D01*
X149294355Y-77650000D01*
X149314859Y-77818869D01*
X149314860Y-77818874D01*
X149375182Y-77977931D01*
X149411900Y-78031125D01*
X149471817Y-78117929D01*
X149532928Y-78172068D01*
X149599150Y-78230736D01*
X149749773Y-78309789D01*
X149749775Y-78309790D01*
X149914944Y-78350500D01*
X150085056Y-78350500D01*
X150250225Y-78309790D01*
X150329692Y-78268081D01*
X150400849Y-78230736D01*
X150400850Y-78230734D01*
X150400852Y-78230734D01*
X150528183Y-78117929D01*
X150624818Y-77977930D01*
X150685140Y-77818872D01*
X150705645Y-77650000D01*
X150685140Y-77481128D01*
X150684292Y-77478891D01*
X150683433Y-77474206D01*
X150683345Y-77473847D01*
X150683366Y-77473841D01*
X150676235Y-77434923D01*
X150676235Y-75708669D01*
X150683506Y-75668995D01*
X151299499Y-75668995D01*
X151326418Y-75804322D01*
X151326421Y-75804332D01*
X151379221Y-75931804D01*
X151379228Y-75931817D01*
X151455885Y-76046541D01*
X151455888Y-76046545D01*
X151553454Y-76144111D01*
X151553458Y-76144114D01*
X151668182Y-76220771D01*
X151668195Y-76220778D01*
X151794472Y-76273083D01*
X151795672Y-76273580D01*
X151795676Y-76273580D01*
X151795677Y-76273581D01*
X151931004Y-76300500D01*
X151931007Y-76300500D01*
X152068995Y-76300500D01*
X152160041Y-76282389D01*
X152204328Y-76273580D01*
X152331811Y-76220775D01*
X152446542Y-76144114D01*
X152544114Y-76046542D01*
X152620775Y-75931811D01*
X152673580Y-75804328D01*
X152694662Y-75698342D01*
X152700500Y-75668995D01*
X152700500Y-75531004D01*
X152673581Y-75395677D01*
X152673580Y-75395676D01*
X152673580Y-75395672D01*
X152659494Y-75361665D01*
X152620778Y-75268195D01*
X152620771Y-75268182D01*
X152544114Y-75153458D01*
X152544111Y-75153454D01*
X152446545Y-75055888D01*
X152446541Y-75055885D01*
X152331817Y-74979228D01*
X152331804Y-74979221D01*
X152204332Y-74926421D01*
X152204322Y-74926418D01*
X152068995Y-74899500D01*
X152068993Y-74899500D01*
X151931007Y-74899500D01*
X151931005Y-74899500D01*
X151795677Y-74926418D01*
X151795667Y-74926421D01*
X151668195Y-74979221D01*
X151668182Y-74979228D01*
X151553458Y-75055885D01*
X151553454Y-75055888D01*
X151455888Y-75153454D01*
X151455885Y-75153458D01*
X151379228Y-75268182D01*
X151379221Y-75268195D01*
X151326421Y-75395667D01*
X151326418Y-75395677D01*
X151299500Y-75531004D01*
X151299500Y-75531007D01*
X151299500Y-75668993D01*
X151299500Y-75668995D01*
X151299499Y-75668995D01*
X150683506Y-75668995D01*
X150684293Y-75664698D01*
X150710874Y-75594610D01*
X150710875Y-75594605D01*
X150716044Y-75552035D01*
X150731380Y-75425735D01*
X150710875Y-75256863D01*
X150650553Y-75097805D01*
X150553918Y-74957806D01*
X150447799Y-74863793D01*
X150426584Y-74844998D01*
X150275961Y-74765945D01*
X150110791Y-74725235D01*
X149940679Y-74725235D01*
X149775508Y-74765945D01*
X149624885Y-74844998D01*
X149497547Y-74957810D01*
X149495744Y-74959846D01*
X149494051Y-74960907D01*
X149491938Y-74962780D01*
X149491626Y-74962428D01*
X149436553Y-74996969D01*
X149366687Y-74996198D01*
X149334039Y-74980714D01*
X149331811Y-74979225D01*
X149331808Y-74979223D01*
X149331807Y-74979223D01*
X149204332Y-74926421D01*
X149204322Y-74926418D01*
X149068995Y-74899500D01*
X149068993Y-74899500D01*
X148931007Y-74899500D01*
X148931005Y-74899500D01*
X148795677Y-74926418D01*
X148795667Y-74926421D01*
X148668195Y-74979221D01*
X148668182Y-74979228D01*
X148553458Y-75055885D01*
X148553454Y-75055888D01*
X148455888Y-75153454D01*
X148455885Y-75153458D01*
X148379228Y-75268182D01*
X148379221Y-75268195D01*
X148326421Y-75395667D01*
X148326418Y-75395677D01*
X148299500Y-75531004D01*
X148299500Y-75531007D01*
X148299500Y-75668993D01*
X148299500Y-75668995D01*
X148299499Y-75668995D01*
X143259530Y-75668995D01*
X144741706Y-74186819D01*
X144803029Y-74153334D01*
X144829387Y-74150500D01*
X155697343Y-74150500D01*
X155764382Y-74170185D01*
X155798915Y-74203373D01*
X155913402Y-74366877D01*
X156068123Y-74521598D01*
X156236513Y-74639506D01*
X156247361Y-74647102D01*
X156398583Y-74717618D01*
X156451022Y-74763790D01*
X156470174Y-74830984D01*
X156449958Y-74897865D01*
X156398583Y-74942382D01*
X156247361Y-75012898D01*
X156247357Y-75012900D01*
X156068121Y-75138402D01*
X155913402Y-75293121D01*
X155787900Y-75472357D01*
X155787898Y-75472361D01*
X155695426Y-75670668D01*
X155695422Y-75670677D01*
X155638793Y-75882020D01*
X155638793Y-75882024D01*
X155619723Y-76099997D01*
X155619723Y-76100002D01*
X155638793Y-76317975D01*
X155638793Y-76317979D01*
X155695422Y-76529322D01*
X155695424Y-76529326D01*
X155695425Y-76529330D01*
X155731647Y-76607008D01*
X155787897Y-76727638D01*
X155787898Y-76727639D01*
X155913402Y-76906877D01*
X156068123Y-77061598D01*
X156247361Y-77187102D01*
X156445670Y-77279575D01*
X156657023Y-77336207D01*
X156839926Y-77352208D01*
X156874998Y-77355277D01*
X156875000Y-77355277D01*
X156875002Y-77355277D01*
X156903254Y-77352805D01*
X157092977Y-77336207D01*
X157304330Y-77279575D01*
X157502639Y-77187102D01*
X157681877Y-77061598D01*
X157836598Y-76906877D01*
X157962102Y-76727639D01*
X158054575Y-76529330D01*
X158111207Y-76317977D01*
X158130277Y-76100000D01*
X158111207Y-75882023D01*
X158054575Y-75670670D01*
X157962102Y-75472362D01*
X157962100Y-75472359D01*
X157962099Y-75472357D01*
X157836599Y-75293124D01*
X157764334Y-75220859D01*
X157681877Y-75138402D01*
X157502639Y-75012898D01*
X157351414Y-74942381D01*
X157298977Y-74896210D01*
X157279825Y-74829016D01*
X157300041Y-74762135D01*
X157351414Y-74717618D01*
X157502639Y-74647102D01*
X157681877Y-74521598D01*
X157836598Y-74366877D01*
X157962102Y-74187639D01*
X158054575Y-73989330D01*
X158111207Y-73777977D01*
X158127805Y-73588254D01*
X158130277Y-73560002D01*
X158130277Y-73559997D01*
X158122621Y-73472489D01*
X158111207Y-73342023D01*
X158059775Y-73150076D01*
X158054577Y-73130677D01*
X158054576Y-73130676D01*
X158054575Y-73130670D01*
X157962102Y-72932362D01*
X157962100Y-72932359D01*
X157962099Y-72932357D01*
X157836599Y-72753124D01*
X157769067Y-72685592D01*
X157681877Y-72598402D01*
X157502639Y-72472898D01*
X157351414Y-72402381D01*
X157298977Y-72356210D01*
X157279825Y-72289016D01*
X157300041Y-72222135D01*
X157351414Y-72177618D01*
X157502639Y-72107102D01*
X157681877Y-71981598D01*
X157836598Y-71826877D01*
X157962102Y-71647639D01*
X158054575Y-71449330D01*
X158111207Y-71237977D01*
X158130277Y-71020000D01*
X158129665Y-71013009D01*
X158120697Y-70910500D01*
X158111207Y-70802023D01*
X158056549Y-70598037D01*
X158054577Y-70590677D01*
X158054576Y-70590676D01*
X158054575Y-70590670D01*
X157962102Y-70392362D01*
X157962100Y-70392359D01*
X157962099Y-70392357D01*
X157836599Y-70213124D01*
X157768157Y-70144682D01*
X157681877Y-70058402D01*
X157677835Y-70055572D01*
X157634213Y-70000997D01*
X157627021Y-69931498D01*
X157658544Y-69869144D01*
X157718774Y-69833731D01*
X157748962Y-69830000D01*
X157772828Y-69830000D01*
X157772844Y-69829999D01*
X157832372Y-69823598D01*
X157832379Y-69823596D01*
X157967086Y-69773354D01*
X157967093Y-69773350D01*
X158082187Y-69687190D01*
X158082190Y-69687187D01*
X158168350Y-69572093D01*
X158168356Y-69572083D01*
X158218596Y-69437379D01*
X158218598Y-69437372D01*
X158224999Y-69377844D01*
X158225000Y-69377827D01*
X158225000Y-68730000D01*
X157308012Y-68730000D01*
X157340925Y-68672993D01*
X157375000Y-68545826D01*
X157375000Y-68414174D01*
X157340925Y-68287007D01*
X157308012Y-68230000D01*
X158225000Y-68230000D01*
X158225000Y-67582172D01*
X158224999Y-67582155D01*
X158218598Y-67522627D01*
X158218596Y-67522620D01*
X158168354Y-67387913D01*
X158168350Y-67387906D01*
X158082190Y-67272812D01*
X158082187Y-67272809D01*
X157967093Y-67186649D01*
X157967086Y-67186645D01*
X157832379Y-67136403D01*
X157832372Y-67136401D01*
X157772844Y-67130000D01*
X157125000Y-67130000D01*
X157125000Y-68046988D01*
X157067993Y-68014075D01*
X156940826Y-67980000D01*
X156809174Y-67980000D01*
X156682007Y-68014075D01*
X156625000Y-68046988D01*
X156625000Y-67130000D01*
X155977155Y-67130000D01*
X155917627Y-67136401D01*
X155917620Y-67136403D01*
X155782913Y-67186645D01*
X155782906Y-67186649D01*
X155667812Y-67272809D01*
X155667809Y-67272812D01*
X155581649Y-67387906D01*
X155581645Y-67387913D01*
X155531403Y-67522620D01*
X155531401Y-67522627D01*
X155525000Y-67582155D01*
X155525000Y-68230000D01*
X156441988Y-68230000D01*
X156409075Y-68287007D01*
X156375000Y-68414174D01*
X156375000Y-68545826D01*
X156409075Y-68672993D01*
X156441988Y-68730000D01*
X155525000Y-68730000D01*
X155525000Y-69377844D01*
X155531401Y-69437372D01*
X155531403Y-69437379D01*
X155581644Y-69572083D01*
X155581649Y-69572093D01*
X155667809Y-69687187D01*
X155667812Y-69687190D01*
X155782906Y-69773350D01*
X155782913Y-69773354D01*
X155917620Y-69823596D01*
X155917627Y-69823598D01*
X155977155Y-69829999D01*
X155977172Y-69830000D01*
X156001037Y-69830000D01*
X156068076Y-69849685D01*
X156113831Y-69902489D01*
X156123775Y-69971647D01*
X156094750Y-70035203D01*
X156072159Y-70055576D01*
X156068119Y-70058404D01*
X155913403Y-70213120D01*
X155787899Y-70392360D01*
X155787898Y-70392362D01*
X155785314Y-70397903D01*
X155739145Y-70450342D01*
X155672932Y-70469500D01*
X144607525Y-70469500D01*
X144468253Y-70506818D01*
X144468252Y-70506817D01*
X144467518Y-70507014D01*
X144341986Y-70579489D01*
X144341983Y-70579491D01*
X141768764Y-73152709D01*
X141707441Y-73186194D01*
X141637749Y-73181210D01*
X141598856Y-73157844D01*
X141583484Y-73144226D01*
X141516232Y-73084646D01*
X141511113Y-73081959D01*
X141460903Y-73033374D01*
X141444930Y-72965354D01*
X141455721Y-72923429D01*
X141455489Y-72923348D01*
X141456446Y-72920610D01*
X141457028Y-72918353D01*
X141457783Y-72916784D01*
X141457789Y-72916775D01*
X141511786Y-72762461D01*
X141511786Y-72762459D01*
X141511787Y-72762457D01*
X141530091Y-72600003D01*
X141530091Y-72599996D01*
X141511787Y-72437544D01*
X141511786Y-72437542D01*
X141511786Y-72437539D01*
X141457789Y-72283225D01*
X141370808Y-72144796D01*
X141255204Y-72029192D01*
X141255202Y-72029190D01*
X141167153Y-71973865D01*
X141120863Y-71921531D01*
X141110215Y-71852477D01*
X141138590Y-71788629D01*
X141196980Y-71750257D01*
X141262803Y-71748476D01*
X141271015Y-71750500D01*
X141428985Y-71750500D01*
X141582365Y-71712696D01*
X141606431Y-71700065D01*
X141722240Y-71639283D01*
X141840483Y-71534530D01*
X141930220Y-71404523D01*
X141986237Y-71256818D01*
X142005278Y-71100000D01*
X141996729Y-71029587D01*
X141986237Y-70943181D01*
X141951808Y-70852401D01*
X141930220Y-70795477D01*
X141840483Y-70665470D01*
X141722240Y-70560717D01*
X141722238Y-70560716D01*
X141722237Y-70560715D01*
X141582365Y-70487303D01*
X141428986Y-70449500D01*
X141428985Y-70449500D01*
X141271015Y-70449500D01*
X141271014Y-70449500D01*
X141117634Y-70487303D01*
X140977766Y-70560712D01*
X140977762Y-70560715D01*
X140977760Y-70560717D01*
X140969181Y-70568316D01*
X140905950Y-70598037D01*
X140886956Y-70599500D01*
X137665072Y-70599500D01*
X137598033Y-70579815D01*
X137552278Y-70527011D01*
X137541976Y-70490447D01*
X137539855Y-70472979D01*
X137536237Y-70443182D01*
X137480220Y-70295477D01*
X137472448Y-70284217D01*
X137450567Y-70217862D01*
X137450500Y-70213780D01*
X137450500Y-70059811D01*
X140075577Y-70059811D01*
X140075577Y-70059814D01*
X140144896Y-70113005D01*
X140144897Y-70113006D01*
X140290856Y-70173464D01*
X140447487Y-70194085D01*
X140604117Y-70173464D01*
X140604121Y-70173463D01*
X140750069Y-70113010D01*
X140750078Y-70113005D01*
X140795390Y-70078234D01*
X140795391Y-70078233D01*
X140424992Y-69707834D01*
X140375618Y-69693336D01*
X140375618Y-69738321D01*
X140344322Y-69791068D01*
X140075577Y-70059811D01*
X137450500Y-70059811D01*
X137450500Y-69227527D01*
X137450500Y-69227525D01*
X137412984Y-69087515D01*
X137395585Y-69057379D01*
X137340510Y-68961985D01*
X135904764Y-67526239D01*
X137879640Y-67526239D01*
X137900261Y-67682869D01*
X137900261Y-67682870D01*
X137960718Y-67828827D01*
X138033744Y-67923997D01*
X138058938Y-67989167D01*
X138044899Y-68057611D01*
X138037419Y-68069922D01*
X138019780Y-68095476D01*
X137963762Y-68243181D01*
X137944722Y-68399999D01*
X137944722Y-68400000D01*
X137963762Y-68556818D01*
X138007822Y-68672993D01*
X138019780Y-68704523D01*
X138109517Y-68834530D01*
X138227760Y-68939283D01*
X138367635Y-69012696D01*
X138420205Y-69025653D01*
X138428542Y-69027708D01*
X138488922Y-69062864D01*
X138520711Y-69125083D01*
X138521963Y-69133158D01*
X138535542Y-69244988D01*
X138572728Y-69343039D01*
X138591559Y-69392692D01*
X138681296Y-69522699D01*
X138799539Y-69627452D01*
X138799541Y-69627453D01*
X138939413Y-69700865D01*
X139092793Y-69738669D01*
X139092794Y-69738669D01*
X139250764Y-69738669D01*
X139391007Y-69704102D01*
X139420681Y-69700500D01*
X139672905Y-69700500D01*
X139739944Y-69720185D01*
X139771281Y-69749014D01*
X139792732Y-69776970D01*
X139866154Y-69703548D01*
X139921746Y-69671453D01*
X139940638Y-69666392D01*
X139958173Y-69656268D01*
X140002528Y-69640915D01*
X140137396Y-69621526D01*
X140205129Y-69590592D01*
X140274287Y-69580649D01*
X140310921Y-69597378D01*
X140306621Y-69567470D01*
X140335646Y-69503914D01*
X140341666Y-69497446D01*
X140473297Y-69365815D01*
X140534619Y-69332331D01*
X140604311Y-69337315D01*
X140648659Y-69365816D01*
X141078233Y-69795391D01*
X141078234Y-69795390D01*
X141113005Y-69750078D01*
X141113010Y-69750069D01*
X141173463Y-69604121D01*
X141173465Y-69604116D01*
X141188124Y-69492767D01*
X141216390Y-69428871D01*
X141272745Y-69391021D01*
X141320486Y-69375510D01*
X141397305Y-69319697D01*
X142219696Y-68497305D01*
X142275510Y-68420486D01*
X142314713Y-68299829D01*
X142314713Y-68172963D01*
X142275510Y-68052307D01*
X142219697Y-67975487D01*
X141432661Y-67188452D01*
X141432660Y-67188451D01*
X141355843Y-67132639D01*
X141355841Y-67132638D01*
X141325677Y-67122837D01*
X141235188Y-67093435D01*
X141235185Y-67093435D01*
X141130565Y-67093435D01*
X141063526Y-67073750D01*
X141017771Y-67020946D01*
X141006565Y-66969435D01*
X141006565Y-66864817D01*
X141006564Y-66864811D01*
X140985590Y-66800261D01*
X140967362Y-66744159D01*
X140911549Y-66667339D01*
X140124513Y-65880304D01*
X140124505Y-65880298D01*
X140047695Y-65824491D01*
X140047693Y-65824490D01*
X140017529Y-65814689D01*
X139927040Y-65785287D01*
X139927037Y-65785287D01*
X139800171Y-65785287D01*
X139800167Y-65785287D01*
X139679514Y-65824490D01*
X139679508Y-65824493D01*
X139602701Y-65880298D01*
X139602692Y-65880305D01*
X138780306Y-66702691D01*
X138780299Y-66702700D01*
X138759188Y-66731755D01*
X138703857Y-66774419D01*
X138642690Y-66781805D01*
X138626243Y-66779640D01*
X138626238Y-66779640D01*
X138469608Y-66800261D01*
X138469604Y-66800262D01*
X138323651Y-66860717D01*
X138278334Y-66895490D01*
X138278334Y-66895491D01*
X138707909Y-67325066D01*
X138741394Y-67386389D01*
X138736410Y-67456081D01*
X138707910Y-67500428D01*
X138576291Y-67632049D01*
X138514968Y-67665534D01*
X138445276Y-67660550D01*
X138389342Y-67618679D01*
X138364925Y-67553215D01*
X138364723Y-67547566D01*
X137995491Y-67178334D01*
X137995490Y-67178334D01*
X137960717Y-67223651D01*
X137900262Y-67369604D01*
X137900261Y-67369608D01*
X137879640Y-67526239D01*
X135904764Y-67526239D01*
X132288015Y-63909490D01*
X132162485Y-63837016D01*
X132162486Y-63837016D01*
X132127482Y-63827637D01*
X132022475Y-63799500D01*
X132022472Y-63799500D01*
X119489386Y-63799500D01*
X119422347Y-63779815D01*
X119401705Y-63763181D01*
X119186170Y-63547646D01*
X119152685Y-63486323D01*
X119157669Y-63416631D01*
X119199541Y-63360698D01*
X119265005Y-63336281D01*
X119284651Y-63336436D01*
X119445386Y-63350499D01*
X119499998Y-63355277D01*
X119500000Y-63355277D01*
X119500002Y-63355277D01*
X119528254Y-63352805D01*
X119717977Y-63336207D01*
X119929330Y-63279575D01*
X120127639Y-63187102D01*
X120306877Y-63061598D01*
X120461598Y-62906877D01*
X120587102Y-62727639D01*
X120657618Y-62576414D01*
X120703790Y-62523977D01*
X120770984Y-62504825D01*
X120837865Y-62525041D01*
X120882381Y-62576414D01*
X120952898Y-62727639D01*
X121078402Y-62906877D01*
X121233123Y-63061598D01*
X121412361Y-63187102D01*
X121610670Y-63279575D01*
X121822023Y-63336207D01*
X122004926Y-63352208D01*
X122039998Y-63355277D01*
X122040000Y-63355277D01*
X122040002Y-63355277D01*
X122068254Y-63352805D01*
X122257977Y-63336207D01*
X122469330Y-63279575D01*
X122667639Y-63187102D01*
X122846877Y-63061598D01*
X123001598Y-62906877D01*
X123127102Y-62727639D01*
X123197618Y-62576414D01*
X123243790Y-62523977D01*
X123310984Y-62504825D01*
X123377865Y-62525041D01*
X123422381Y-62576414D01*
X123492898Y-62727639D01*
X123618402Y-62906877D01*
X123773123Y-63061598D01*
X123952361Y-63187102D01*
X124150670Y-63279575D01*
X124362023Y-63336207D01*
X124544926Y-63352208D01*
X124579998Y-63355277D01*
X124580000Y-63355277D01*
X124580002Y-63355277D01*
X124608254Y-63352805D01*
X124797977Y-63336207D01*
X125009330Y-63279575D01*
X125207639Y-63187102D01*
X125386877Y-63061598D01*
X125541598Y-62906877D01*
X125667102Y-62727639D01*
X125737618Y-62576414D01*
X125783790Y-62523977D01*
X125850984Y-62504825D01*
X125917865Y-62525041D01*
X125962381Y-62576414D01*
X126032898Y-62727639D01*
X126158402Y-62906877D01*
X126313123Y-63061598D01*
X126492361Y-63187102D01*
X126690670Y-63279575D01*
X126902023Y-63336207D01*
X127084926Y-63352208D01*
X127119998Y-63355277D01*
X127120000Y-63355277D01*
X127120002Y-63355277D01*
X127148254Y-63352805D01*
X127337977Y-63336207D01*
X127549330Y-63279575D01*
X127747639Y-63187102D01*
X127926877Y-63061598D01*
X128081598Y-62906877D01*
X128207102Y-62727639D01*
X128277618Y-62576414D01*
X128323790Y-62523977D01*
X128390984Y-62504825D01*
X128457865Y-62525041D01*
X128502381Y-62576414D01*
X128572898Y-62727639D01*
X128698402Y-62906877D01*
X128853123Y-63061598D01*
X129032361Y-63187102D01*
X129230670Y-63279575D01*
X129442023Y-63336207D01*
X129624926Y-63352208D01*
X129659998Y-63355277D01*
X129660000Y-63355277D01*
X129660002Y-63355277D01*
X129688254Y-63352805D01*
X129877977Y-63336207D01*
X130089330Y-63279575D01*
X130287639Y-63187102D01*
X130466877Y-63061598D01*
X130621598Y-62906877D01*
X130747102Y-62727639D01*
X130817618Y-62576414D01*
X130863790Y-62523977D01*
X130930984Y-62504825D01*
X130997865Y-62525041D01*
X131042381Y-62576414D01*
X131112898Y-62727639D01*
X131238402Y-62906877D01*
X131393123Y-63061598D01*
X131572361Y-63187102D01*
X131770670Y-63279575D01*
X131982023Y-63336207D01*
X132164926Y-63352208D01*
X132199998Y-63355277D01*
X132200000Y-63355277D01*
X132200002Y-63355277D01*
X132228254Y-63352805D01*
X132417977Y-63336207D01*
X132629330Y-63279575D01*
X132827639Y-63187102D01*
X133006877Y-63061598D01*
X133161598Y-62906877D01*
X133287102Y-62727639D01*
X133357618Y-62576414D01*
X133403790Y-62523977D01*
X133470984Y-62504825D01*
X133537865Y-62525041D01*
X133582381Y-62576414D01*
X133652898Y-62727639D01*
X133778402Y-62906877D01*
X133933123Y-63061598D01*
X134112361Y-63187102D01*
X134310670Y-63279575D01*
X134522023Y-63336207D01*
X134704926Y-63352208D01*
X134739998Y-63355277D01*
X134740000Y-63355277D01*
X134740002Y-63355277D01*
X134768254Y-63352805D01*
X134957977Y-63336207D01*
X135169330Y-63279575D01*
X135367639Y-63187102D01*
X135546877Y-63061598D01*
X135701598Y-62906877D01*
X135827102Y-62727639D01*
X135897618Y-62576414D01*
X135943790Y-62523977D01*
X136010984Y-62504825D01*
X136077865Y-62525041D01*
X136122381Y-62576414D01*
X136192898Y-62727639D01*
X136318402Y-62906877D01*
X136473123Y-63061598D01*
X136652361Y-63187102D01*
X136850670Y-63279575D01*
X137062023Y-63336207D01*
X137244926Y-63352208D01*
X137279998Y-63355277D01*
X137280000Y-63355277D01*
X137280002Y-63355277D01*
X137308254Y-63352805D01*
X137497977Y-63336207D01*
X137709330Y-63279575D01*
X137907639Y-63187102D01*
X138086877Y-63061598D01*
X138241598Y-62906877D01*
X138367102Y-62727639D01*
X138437618Y-62576414D01*
X138483790Y-62523977D01*
X138550984Y-62504825D01*
X138617865Y-62525041D01*
X138662381Y-62576414D01*
X138732898Y-62727639D01*
X138858402Y-62906877D01*
X139013123Y-63061598D01*
X139192361Y-63187102D01*
X139390670Y-63279575D01*
X139602023Y-63336207D01*
X139784926Y-63352208D01*
X139819998Y-63355277D01*
X139820000Y-63355277D01*
X139820002Y-63355277D01*
X139848254Y-63352805D01*
X140037977Y-63336207D01*
X140249330Y-63279575D01*
X140447639Y-63187102D01*
X140626877Y-63061598D01*
X140781598Y-62906877D01*
X140907102Y-62727639D01*
X140977618Y-62576414D01*
X141023790Y-62523977D01*
X141090984Y-62504825D01*
X141157865Y-62525041D01*
X141202381Y-62576414D01*
X141272898Y-62727639D01*
X141398402Y-62906877D01*
X141553123Y-63061598D01*
X141732361Y-63187102D01*
X141930670Y-63279575D01*
X142142023Y-63336207D01*
X142324926Y-63352208D01*
X142359998Y-63355277D01*
X142360000Y-63355277D01*
X142360002Y-63355277D01*
X142388254Y-63352805D01*
X142577977Y-63336207D01*
X142789330Y-63279575D01*
X142987639Y-63187102D01*
X143166877Y-63061598D01*
X143321598Y-62906877D01*
X143447102Y-62727639D01*
X143517618Y-62576414D01*
X143563790Y-62523977D01*
X143630984Y-62504825D01*
X143697865Y-62525041D01*
X143742381Y-62576414D01*
X143812898Y-62727639D01*
X143938402Y-62906877D01*
X144093123Y-63061598D01*
X144272361Y-63187102D01*
X144470670Y-63279575D01*
X144682023Y-63336207D01*
X144864926Y-63352208D01*
X144899998Y-63355277D01*
X144900000Y-63355277D01*
X144900002Y-63355277D01*
X144928254Y-63352805D01*
X145117977Y-63336207D01*
X145329330Y-63279575D01*
X145527639Y-63187102D01*
X145706877Y-63061598D01*
X145861598Y-62906877D01*
X145987102Y-62727639D01*
X146057618Y-62576414D01*
X146103790Y-62523977D01*
X146170984Y-62504825D01*
X146237865Y-62525041D01*
X146282381Y-62576414D01*
X146352898Y-62727639D01*
X146478402Y-62906877D01*
X146633123Y-63061598D01*
X146812361Y-63187102D01*
X147010670Y-63279575D01*
X147222023Y-63336207D01*
X147404926Y-63352208D01*
X147439998Y-63355277D01*
X147440000Y-63355277D01*
X147440002Y-63355277D01*
X147468254Y-63352805D01*
X147657977Y-63336207D01*
X147869330Y-63279575D01*
X148067639Y-63187102D01*
X148246877Y-63061598D01*
X148401598Y-62906877D01*
X148527102Y-62727639D01*
X148597618Y-62576414D01*
X148643790Y-62523977D01*
X148710984Y-62504825D01*
X148777865Y-62525041D01*
X148822381Y-62576414D01*
X148892898Y-62727639D01*
X149018402Y-62906877D01*
X149173123Y-63061598D01*
X149352361Y-63187102D01*
X149550670Y-63279575D01*
X149762023Y-63336207D01*
X149944926Y-63352208D01*
X149979998Y-63355277D01*
X149980000Y-63355277D01*
X149980002Y-63355277D01*
X150008254Y-63352805D01*
X150197977Y-63336207D01*
X150409330Y-63279575D01*
X150607639Y-63187102D01*
X150786877Y-63061598D01*
X150941598Y-62906877D01*
X151067102Y-62727639D01*
X151137618Y-62576414D01*
X151183790Y-62523977D01*
X151250984Y-62504825D01*
X151317865Y-62525041D01*
X151362381Y-62576414D01*
X151432898Y-62727639D01*
X151558402Y-62906877D01*
X151713123Y-63061598D01*
X151892361Y-63187102D01*
X152090670Y-63279575D01*
X152302023Y-63336207D01*
X152484926Y-63352208D01*
X152519998Y-63355277D01*
X152520000Y-63355277D01*
X152520002Y-63355277D01*
X152548254Y-63352805D01*
X152737977Y-63336207D01*
X152949330Y-63279575D01*
X153147639Y-63187102D01*
X153326877Y-63061598D01*
X153481598Y-62906877D01*
X153607102Y-62727639D01*
X153677618Y-62576414D01*
X153723790Y-62523977D01*
X153790984Y-62504825D01*
X153857865Y-62525041D01*
X153902381Y-62576414D01*
X153972898Y-62727639D01*
X154098402Y-62906877D01*
X154253123Y-63061598D01*
X154432361Y-63187102D01*
X154630670Y-63279575D01*
X154842023Y-63336207D01*
X155024926Y-63352208D01*
X155059998Y-63355277D01*
X155060000Y-63355277D01*
X155060002Y-63355277D01*
X155088254Y-63352805D01*
X155277977Y-63336207D01*
X155489330Y-63279575D01*
X155687639Y-63187102D01*
X155866877Y-63061598D01*
X156021598Y-62906877D01*
X156123926Y-62760736D01*
X156178502Y-62717113D01*
X156248000Y-62709919D01*
X156310355Y-62741442D01*
X156345769Y-62801672D01*
X156349500Y-62831860D01*
X156349500Y-62981517D01*
X156360292Y-63049657D01*
X156364354Y-63075304D01*
X156421950Y-63188342D01*
X156421952Y-63188344D01*
X156421954Y-63188347D01*
X156511652Y-63278045D01*
X156511654Y-63278046D01*
X156511658Y-63278050D01*
X156612357Y-63329359D01*
X156624698Y-63335647D01*
X156718475Y-63350499D01*
X156718481Y-63350500D01*
X158481518Y-63350499D01*
X158575304Y-63335646D01*
X158688342Y-63278050D01*
X158778050Y-63188342D01*
X158835646Y-63075304D01*
X158835646Y-63075302D01*
X158835647Y-63075301D01*
X158850499Y-62981524D01*
X158850500Y-62981519D01*
X158850499Y-61581516D01*
X158870184Y-61514478D01*
X158922987Y-61468723D01*
X158944827Y-61461120D01*
X158950225Y-61459790D01*
X159017876Y-61424283D01*
X159086383Y-61410559D01*
X159151436Y-61436052D01*
G37*
%TD.AperFunction*%
%TA.AperFunction,Conductor*%
G36*
X136858022Y-72820185D02*
G01*
X136903777Y-72872989D01*
X136913922Y-72908314D01*
X136926535Y-73004117D01*
X136926536Y-73004121D01*
X136986990Y-73150071D01*
X136986993Y-73150076D01*
X137059017Y-73243940D01*
X137059022Y-73243946D01*
X137102895Y-73287819D01*
X137136380Y-73349142D01*
X137131396Y-73418834D01*
X137089524Y-73474767D01*
X137024060Y-73499184D01*
X137015214Y-73499500D01*
X136914944Y-73499500D01*
X136749773Y-73540210D01*
X136599150Y-73619263D01*
X136471816Y-73732072D01*
X136375182Y-73872068D01*
X136314860Y-74031125D01*
X136314859Y-74031130D01*
X136294355Y-74200000D01*
X136314859Y-74368869D01*
X136314860Y-74368874D01*
X136375182Y-74527931D01*
X136435376Y-74615135D01*
X136471817Y-74667929D01*
X136577505Y-74761560D01*
X136599150Y-74780736D01*
X136721597Y-74845001D01*
X136749775Y-74859790D01*
X136914944Y-74900500D01*
X137085056Y-74900500D01*
X137250225Y-74859790D01*
X137335037Y-74815277D01*
X137400849Y-74780736D01*
X137400850Y-74780734D01*
X137400852Y-74780734D01*
X137528183Y-74667929D01*
X137537756Y-74654059D01*
X137592039Y-74610070D01*
X137639806Y-74600500D01*
X140021613Y-74600500D01*
X140088652Y-74620185D01*
X140134407Y-74672989D01*
X140144351Y-74742147D01*
X140115326Y-74805703D01*
X140109294Y-74812181D01*
X137008294Y-77913181D01*
X136946971Y-77946666D01*
X136920613Y-77949500D01*
X135582006Y-77949500D01*
X135514967Y-77929815D01*
X135502925Y-77920697D01*
X135500845Y-77919261D01*
X135350226Y-77840210D01*
X135185056Y-77799500D01*
X135014944Y-77799500D01*
X134849773Y-77840210D01*
X134699150Y-77919263D01*
X134582638Y-78022484D01*
X134572882Y-78031128D01*
X134571816Y-78032072D01*
X134475182Y-78172068D01*
X134414860Y-78331125D01*
X134414859Y-78331130D01*
X134394355Y-78500000D01*
X134414859Y-78668869D01*
X134414860Y-78668874D01*
X134475182Y-78827931D01*
X134475183Y-78827932D01*
X134493908Y-78855059D01*
X134515792Y-78921413D01*
X134498327Y-78989065D01*
X134447060Y-79036535D01*
X134391859Y-79049500D01*
X133779387Y-79049500D01*
X133712348Y-79029815D01*
X133691706Y-79013181D01*
X132825829Y-78147304D01*
X132792344Y-78085981D01*
X132790414Y-78074568D01*
X132785140Y-78031128D01*
X132724818Y-77872070D01*
X132702826Y-77840210D01*
X132688096Y-77818869D01*
X132628183Y-77732071D01*
X132500852Y-77619266D01*
X132500849Y-77619263D01*
X132350226Y-77540210D01*
X132185056Y-77499500D01*
X132014944Y-77499500D01*
X131849773Y-77540210D01*
X131699149Y-77619264D01*
X131699147Y-77619266D01*
X131595662Y-77710944D01*
X131532429Y-77740665D01*
X131463165Y-77731481D01*
X131425755Y-77705809D01*
X128686819Y-74966873D01*
X128653334Y-74905550D01*
X128650500Y-74879192D01*
X128650500Y-73074500D01*
X128670185Y-73007461D01*
X128722989Y-72961706D01*
X128774500Y-72950500D01*
X133725500Y-72950500D01*
X133792539Y-72970185D01*
X133838294Y-73022989D01*
X133849500Y-73074500D01*
X133849500Y-74725023D01*
X133864428Y-74780734D01*
X133887016Y-74865033D01*
X133943246Y-74962428D01*
X133959489Y-74990561D01*
X133959491Y-74990564D01*
X133991210Y-75022283D01*
X134024695Y-75083606D01*
X134025700Y-75089176D01*
X134025925Y-75089942D01*
X134085713Y-75220859D01*
X134085714Y-75220861D01*
X134123324Y-75267532D01*
X134123326Y-75267535D01*
X134123328Y-75267537D01*
X134123333Y-75267543D01*
X134331571Y-75475779D01*
X134365055Y-75537100D01*
X134360071Y-75606792D01*
X134345939Y-75633899D01*
X134301457Y-75698342D01*
X134301456Y-75698342D01*
X134241134Y-75857399D01*
X134241133Y-75857404D01*
X134220629Y-76026274D01*
X134241133Y-76195143D01*
X134241134Y-76195148D01*
X134301456Y-76354205D01*
X134334955Y-76402736D01*
X134398091Y-76494203D01*
X134503779Y-76587834D01*
X134525424Y-76607010D01*
X134676047Y-76686063D01*
X134676049Y-76686064D01*
X134841218Y-76726774D01*
X135011330Y-76726774D01*
X135176499Y-76686064D01*
X135255966Y-76644355D01*
X135327123Y-76607010D01*
X135327124Y-76607008D01*
X135327126Y-76607008D01*
X135454457Y-76494203D01*
X135551092Y-76354204D01*
X135611414Y-76195146D01*
X135631919Y-76026274D01*
X135611414Y-75857402D01*
X135551092Y-75698344D01*
X135546447Y-75691614D01*
X135498724Y-75622475D01*
X135476841Y-75556120D01*
X135476774Y-75552035D01*
X135476774Y-75114336D01*
X135477042Y-75106194D01*
X135477990Y-75091784D01*
X135468439Y-75075242D01*
X135439258Y-74966337D01*
X135416212Y-74926420D01*
X135366784Y-74840807D01*
X135356241Y-74830264D01*
X135322756Y-74768941D01*
X135321752Y-74763375D01*
X135321527Y-74762612D01*
X135321526Y-74762604D01*
X135290592Y-74694870D01*
X135280649Y-74625713D01*
X135297378Y-74589078D01*
X135267470Y-74593379D01*
X135203914Y-74564354D01*
X135197446Y-74558333D01*
X135163495Y-74524382D01*
X135393337Y-74524382D01*
X135438321Y-74524382D01*
X135491068Y-74555678D01*
X135759812Y-74824422D01*
X135759813Y-74824421D01*
X135813004Y-74755103D01*
X135813005Y-74755102D01*
X135873464Y-74609143D01*
X135894085Y-74452513D01*
X135873464Y-74295882D01*
X135873463Y-74295878D01*
X135813009Y-74149928D01*
X135813008Y-74149927D01*
X135778233Y-74104608D01*
X135778232Y-74104608D01*
X135407834Y-74475008D01*
X135393337Y-74524382D01*
X135163495Y-74524382D01*
X135065813Y-74426700D01*
X135032330Y-74365381D01*
X135037314Y-74295689D01*
X135065815Y-74251340D01*
X135126274Y-74190882D01*
X135495390Y-73821765D01*
X135495390Y-73821764D01*
X135450077Y-73786993D01*
X135450071Y-73786990D01*
X135304121Y-73726536D01*
X135304117Y-73726535D01*
X135147487Y-73705914D01*
X135147486Y-73705914D01*
X135090685Y-73713392D01*
X135021650Y-73702626D01*
X134969394Y-73656246D01*
X134950500Y-73590453D01*
X134950500Y-72924500D01*
X134970185Y-72857461D01*
X135022989Y-72811706D01*
X135074500Y-72800500D01*
X136790983Y-72800500D01*
X136858022Y-72820185D01*
G37*
%TD.AperFunction*%
%TA.AperFunction,Conductor*%
G36*
X155739970Y-71590185D02*
G01*
X155785314Y-71642098D01*
X155787898Y-71647639D01*
X155913402Y-71826877D01*
X156068123Y-71981598D01*
X156219087Y-72087304D01*
X156247361Y-72107102D01*
X156398583Y-72177618D01*
X156451022Y-72223790D01*
X156470174Y-72290984D01*
X156449958Y-72357865D01*
X156398583Y-72402382D01*
X156247361Y-72472898D01*
X156247357Y-72472900D01*
X156068121Y-72598402D01*
X155913402Y-72753121D01*
X155787898Y-72932360D01*
X155787895Y-72932366D01*
X155766661Y-72977904D01*
X155720489Y-73030344D01*
X155654279Y-73049500D01*
X144477525Y-73049500D01*
X144346362Y-73084644D01*
X144346363Y-73084645D01*
X144337516Y-73087015D01*
X144337514Y-73087016D01*
X144211986Y-73159489D01*
X144211983Y-73159491D01*
X138358294Y-79013181D01*
X138296971Y-79046666D01*
X138270613Y-79049500D01*
X137728387Y-79049500D01*
X137661348Y-79029815D01*
X137615593Y-78977011D01*
X137605649Y-78907853D01*
X137634674Y-78844297D01*
X137640706Y-78837819D01*
X144871706Y-71606819D01*
X144933029Y-71573334D01*
X144959387Y-71570500D01*
X155672931Y-71570500D01*
X155739970Y-71590185D01*
G37*
%TD.AperFunction*%
%TA.AperFunction,Conductor*%
G36*
X138405820Y-73186641D02*
G01*
X138444713Y-73210007D01*
X138477759Y-73239282D01*
X138477761Y-73239284D01*
X138617634Y-73312696D01*
X138771014Y-73350500D01*
X138771015Y-73350500D01*
X138928985Y-73350500D01*
X139082365Y-73312696D01*
X139173805Y-73264703D01*
X139231431Y-73250500D01*
X140343893Y-73250500D01*
X140410932Y-73270185D01*
X140456687Y-73322989D01*
X140466631Y-73392147D01*
X140459835Y-73418471D01*
X140430240Y-73496504D01*
X140428445Y-73503791D01*
X140425538Y-73503074D01*
X140403364Y-73554613D01*
X140345434Y-73593676D01*
X140307880Y-73599500D01*
X138189811Y-73599500D01*
X138122772Y-73579815D01*
X138077017Y-73527011D01*
X138067073Y-73457853D01*
X138096098Y-73394297D01*
X138102130Y-73387819D01*
X138274806Y-73215142D01*
X138336129Y-73181657D01*
X138405820Y-73186641D01*
G37*
%TD.AperFunction*%
%TA.AperFunction,Conductor*%
G36*
X116382889Y-63210663D02*
G01*
X116530670Y-63279575D01*
X116742023Y-63336207D01*
X116924926Y-63352208D01*
X116959998Y-63355277D01*
X116960000Y-63355277D01*
X116960002Y-63355277D01*
X117014614Y-63350499D01*
X117177977Y-63336207D01*
X117297875Y-63304080D01*
X117367724Y-63305743D01*
X117417649Y-63336174D01*
X118871986Y-64790510D01*
X118997515Y-64862984D01*
X119137525Y-64900500D01*
X119137526Y-64900500D01*
X119282475Y-64900500D01*
X131670613Y-64900500D01*
X131737652Y-64920185D01*
X131758294Y-64936819D01*
X135589989Y-68768514D01*
X135623474Y-68829837D01*
X135618490Y-68899529D01*
X135584535Y-68949009D01*
X135512648Y-69012696D01*
X135509516Y-69015471D01*
X135419778Y-69145478D01*
X135419760Y-69145528D01*
X135419736Y-69145559D01*
X135416294Y-69152118D01*
X135415202Y-69151545D01*
X135377577Y-69201227D01*
X135321474Y-69224283D01*
X135310063Y-69225923D01*
X135310054Y-69225926D01*
X135179140Y-69285713D01*
X135179138Y-69285714D01*
X135132467Y-69323324D01*
X135132464Y-69323326D01*
X134923330Y-69532462D01*
X134923329Y-69532463D01*
X134885712Y-69579140D01*
X134885712Y-69579141D01*
X134825927Y-69710052D01*
X134825925Y-69710060D01*
X134814394Y-69790265D01*
X134785369Y-69853820D01*
X134779337Y-69860299D01*
X134392686Y-70246952D01*
X134299502Y-70340135D01*
X134299500Y-70340138D01*
X134233608Y-70454264D01*
X134199500Y-70581560D01*
X134199500Y-71525500D01*
X134179815Y-71592539D01*
X134127011Y-71638294D01*
X134075500Y-71649500D01*
X127820808Y-71649500D01*
X127753769Y-71629815D01*
X127733127Y-71613181D01*
X127601560Y-71481614D01*
X127568075Y-71420291D01*
X127573059Y-71350599D01*
X127601556Y-71306256D01*
X127858492Y-71049320D01*
X127916499Y-71016606D01*
X127932365Y-71012696D01*
X128072240Y-70939283D01*
X128190483Y-70834530D01*
X128280220Y-70704523D01*
X128336237Y-70556818D01*
X128355278Y-70400000D01*
X128354351Y-70392361D01*
X128336237Y-70243181D01*
X128314227Y-70185147D01*
X128280220Y-70095477D01*
X128190483Y-69965470D01*
X128072240Y-69860717D01*
X128072238Y-69860716D01*
X128072237Y-69860715D01*
X127932365Y-69787303D01*
X127778986Y-69749500D01*
X127778985Y-69749500D01*
X127621015Y-69749500D01*
X127621014Y-69749500D01*
X127467634Y-69787303D01*
X127327762Y-69860715D01*
X127209516Y-69965471D01*
X127119781Y-70095475D01*
X127119780Y-70095476D01*
X127063762Y-70243181D01*
X127043818Y-70407445D01*
X127041474Y-70407160D01*
X127025037Y-70463140D01*
X127008407Y-70483777D01*
X126935367Y-70556818D01*
X126893863Y-70598322D01*
X126832540Y-70631806D01*
X126771587Y-70629717D01*
X126762273Y-70627011D01*
X126677569Y-70602402D01*
X126677566Y-70602401D01*
X126677567Y-70602401D01*
X126640701Y-70599500D01*
X126640694Y-70599500D01*
X125559306Y-70599500D01*
X125559298Y-70599500D01*
X125522432Y-70602401D01*
X125522426Y-70602402D01*
X125409094Y-70635329D01*
X125339225Y-70635130D01*
X125280555Y-70597188D01*
X125251711Y-70533549D01*
X125250499Y-70516253D01*
X125250499Y-70036989D01*
X125250498Y-70036979D01*
X125244312Y-69958355D01*
X125195320Y-69775512D01*
X125150316Y-69687187D01*
X125109385Y-69606853D01*
X125067872Y-69555589D01*
X124990257Y-69459743D01*
X124903958Y-69389859D01*
X124843146Y-69340614D01*
X124701242Y-69268312D01*
X124674488Y-69254680D01*
X124607562Y-69236747D01*
X124491643Y-69205687D01*
X124419374Y-69200000D01*
X124413021Y-69199500D01*
X124413020Y-69199500D01*
X123286989Y-69199500D01*
X123286970Y-69199501D01*
X123208356Y-69205687D01*
X123025512Y-69254680D01*
X122856853Y-69340614D01*
X122709743Y-69459743D01*
X122590614Y-69606853D01*
X122504680Y-69775512D01*
X122455687Y-69958356D01*
X122455687Y-69958357D01*
X122449500Y-70036973D01*
X122449500Y-70575500D01*
X122429815Y-70642539D01*
X122377011Y-70688294D01*
X122325500Y-70699500D01*
X120524500Y-70699500D01*
X120457461Y-70679815D01*
X120411706Y-70627011D01*
X120400500Y-70575500D01*
X120400500Y-67821155D01*
X120400499Y-67821153D01*
X120377477Y-67705414D01*
X120369737Y-67666503D01*
X120366518Y-67658731D01*
X120309397Y-67520827D01*
X120309390Y-67520814D01*
X120221790Y-67389712D01*
X120193162Y-67361084D01*
X120110289Y-67278211D01*
X116242805Y-63410727D01*
X116209320Y-63349404D01*
X116214304Y-63279712D01*
X116256176Y-63223779D01*
X116321640Y-63199362D01*
X116382889Y-63210663D01*
G37*
%TD.AperFunction*%
%TA.AperFunction,Conductor*%
G36*
X135375984Y-70781785D02*
G01*
X135420339Y-70810288D01*
X135551020Y-70940969D01*
X135551028Y-70940976D01*
X135644897Y-71013006D01*
X135644901Y-71013008D01*
X135790856Y-71073464D01*
X135947487Y-71094085D01*
X136104117Y-71073464D01*
X136104121Y-71073463D01*
X136250071Y-71013009D01*
X136255261Y-71010013D01*
X136323161Y-70993536D01*
X136389189Y-71016384D01*
X136403875Y-71029587D01*
X136403903Y-71029556D01*
X136409516Y-71034528D01*
X136409517Y-71034530D01*
X136527760Y-71139283D01*
X136527762Y-71139284D01*
X136667634Y-71212696D01*
X136667633Y-71212696D01*
X136816211Y-71249316D01*
X136874218Y-71282032D01*
X136980005Y-71387819D01*
X137013490Y-71449142D01*
X137008506Y-71518834D01*
X136966634Y-71574767D01*
X136901170Y-71599184D01*
X136892324Y-71599500D01*
X135324500Y-71599500D01*
X135257461Y-71579815D01*
X135211706Y-71527011D01*
X135200500Y-71475500D01*
X135200500Y-70906128D01*
X135220185Y-70839089D01*
X135236809Y-70818456D01*
X135244975Y-70810290D01*
X135306292Y-70776804D01*
X135375984Y-70781785D01*
G37*
%TD.AperFunction*%
%TD*%
M02*
