%TF.GenerationSoftware,KiCad,Pcbnew,8.0.6*%
%TF.CreationDate,2025-02-01T08:29:43+02:00*%
%TF.ProjectId,stm32,73746d33-322e-46b6-9963-61645f706362,rev?*%
%TF.SameCoordinates,Original*%
%TF.FileFunction,Soldermask,Bot*%
%TF.FilePolarity,Negative*%
%FSLAX46Y46*%
G04 Gerber Fmt 4.6, Leading zero omitted, Abs format (unit mm)*
G04 Created by KiCad (PCBNEW 8.0.6) date 2025-02-01 08:29:43*
%MOMM*%
%LPD*%
G01*
G04 APERTURE LIST*
G04 Aperture macros list*
%AMRoundRect*
0 Rectangle with rounded corners*
0 $1 Rounding radius*
0 $2 $3 $4 $5 $6 $7 $8 $9 X,Y pos of 4 corners*
0 Add a 4 corners polygon primitive as box body*
4,1,4,$2,$3,$4,$5,$6,$7,$8,$9,$2,$3,0*
0 Add four circle primitives for the rounded corners*
1,1,$1+$1,$2,$3*
1,1,$1+$1,$4,$5*
1,1,$1+$1,$6,$7*
1,1,$1+$1,$8,$9*
0 Add four rect primitives between the rounded corners*
20,1,$1+$1,$2,$3,$4,$5,0*
20,1,$1+$1,$4,$5,$6,$7,0*
20,1,$1+$1,$6,$7,$8,$9,0*
20,1,$1+$1,$8,$9,$2,$3,0*%
%AMRotRect*
0 Rectangle, with rotation*
0 The origin of the aperture is its center*
0 $1 length*
0 $2 width*
0 $3 Rotation angle, in degrees counterclockwise*
0 Add horizontal line*
21,1,$1,$2,0,0,$3*%
G04 Aperture macros list end*
%ADD10O,1.600000X0.900000*%
%ADD11R,1.700000X1.700000*%
%ADD12O,1.700000X1.700000*%
%ADD13C,0.900000*%
%ADD14RoundRect,0.100000X-0.021213X-0.162635X0.162635X0.021213X0.021213X0.162635X-0.162635X-0.021213X0*%
%ADD15RoundRect,0.100000X-0.162635X0.021213X0.021213X-0.162635X0.162635X-0.021213X-0.021213X0.162635X0*%
%ADD16RoundRect,0.250000X-0.475000X0.250000X-0.475000X-0.250000X0.475000X-0.250000X0.475000X0.250000X0*%
%ADD17RoundRect,0.100000X0.162635X-0.021213X-0.021213X0.162635X-0.162635X0.021213X0.021213X-0.162635X0*%
%ADD18RoundRect,0.135000X0.185000X-0.135000X0.185000X0.135000X-0.185000X0.135000X-0.185000X-0.135000X0*%
%ADD19RoundRect,0.100000X0.021213X0.162635X-0.162635X-0.021213X-0.021213X-0.162635X0.162635X0.021213X0*%
%ADD20RoundRect,0.375000X-0.625000X-0.375000X0.625000X-0.375000X0.625000X0.375000X-0.625000X0.375000X0*%
%ADD21RoundRect,0.500000X-0.500000X-1.400000X0.500000X-1.400000X0.500000X1.400000X-0.500000X1.400000X0*%
%ADD22RoundRect,0.218750X-0.218750X-0.256250X0.218750X-0.256250X0.218750X0.256250X-0.218750X0.256250X0*%
%ADD23RoundRect,0.250000X0.250000X0.475000X-0.250000X0.475000X-0.250000X-0.475000X0.250000X-0.475000X0*%
%ADD24RotRect,1.050000X1.100000X315.000000*%
G04 APERTURE END LIST*
D10*
%TO.C,J2*%
X108750000Y-68950000D03*
X108750000Y-75550000D03*
%TD*%
D11*
%TO.C,J3*%
X156875000Y-68480000D03*
D12*
X156875000Y-71020000D03*
X156875000Y-73560000D03*
X156875000Y-76100000D03*
%TD*%
D13*
%TO.C,SW2*%
X149000000Y-75600000D03*
X152000000Y-75600000D03*
%TD*%
D14*
%TO.C,C17*%
X134673726Y-74926274D03*
X135126274Y-74473726D03*
%TD*%
D15*
%TO.C,C21*%
X135473726Y-69873726D03*
X135926274Y-70326274D03*
%TD*%
D16*
%TO.C,C16*%
X115000000Y-71750000D03*
X115000000Y-73650000D03*
%TD*%
D11*
%TO.C,J4*%
X157620000Y-82300000D03*
D12*
X155080000Y-82300000D03*
X152540000Y-82300000D03*
X150000000Y-82300000D03*
X147460000Y-82300000D03*
X144920000Y-82300000D03*
X142380000Y-82300000D03*
X139840000Y-82300000D03*
X137300000Y-82300000D03*
X134760000Y-82300000D03*
X132220000Y-82300000D03*
X129680000Y-82300000D03*
X127140000Y-82300000D03*
X124600000Y-82300000D03*
X122060000Y-82300000D03*
X119520000Y-82300000D03*
X116980000Y-82300000D03*
X114440000Y-82300000D03*
X111900000Y-82300000D03*
X109360000Y-82300000D03*
%TD*%
D17*
%TO.C,C12*%
X140426274Y-69426274D03*
X139973726Y-68973726D03*
%TD*%
D18*
%TO.C,R8*%
X115200000Y-70210000D03*
X115200000Y-69190000D03*
%TD*%
D15*
%TO.C,C13*%
X138647452Y-67547452D03*
X139100000Y-68000000D03*
%TD*%
D16*
%TO.C,C6*%
X126100000Y-71500000D03*
X126100000Y-73400000D03*
%TD*%
D19*
%TO.C,C18*%
X138126274Y-72373726D03*
X137673726Y-72826274D03*
%TD*%
D20*
%TO.C,U2*%
X117550000Y-73800000D03*
X117550000Y-71500000D03*
D21*
X123850000Y-71500000D03*
D20*
X117550000Y-69200000D03*
%TD*%
D22*
%TO.C,D5*%
X111850000Y-69150000D03*
X113425000Y-69150000D03*
%TD*%
D11*
%TO.C,J5*%
X157600000Y-62100000D03*
D12*
X155060000Y-62100000D03*
X152520000Y-62100000D03*
X149980000Y-62100000D03*
X147440000Y-62100000D03*
X144900000Y-62100000D03*
X142360000Y-62100000D03*
X139820000Y-62100000D03*
X137280000Y-62100000D03*
X134740000Y-62100000D03*
X132200000Y-62100000D03*
X129660000Y-62100000D03*
X127120000Y-62100000D03*
X124580000Y-62100000D03*
X122040000Y-62100000D03*
X119500000Y-62100000D03*
X116960000Y-62100000D03*
X114420000Y-62100000D03*
X111880000Y-62100000D03*
X109340000Y-62100000D03*
%TD*%
D23*
%TO.C,C4*%
X115450000Y-67250000D03*
X113550000Y-67250000D03*
%TD*%
D24*
%TO.C,Y1*%
X139845926Y-66945926D03*
X141154074Y-68254074D03*
%TD*%
M02*
