M48
; DRILL file {KiCad 8.0.6} date 2025-02-01T08:29:43+0200
; FORMAT={-:-/ absolute / metric / decimal}
; #@! TF.CreationDate,2025-02-01T08:29:43+02:00
; #@! TF.GenerationSoftware,Kicad,Pcbnew,8.0.6
; #@! TF.FileFunction,MixedPlating,1,2
FMAT,2
METRIC
; #@! TA.AperFunction,Plated,PTH,ViaDrill
T1C0.250
; #@! TA.AperFunction,Plated,PTH,ViaDrill
T2C0.300
; #@! TA.AperFunction,Plated,PTH,ViaDrill
T3C0.500
; #@! TA.AperFunction,Plated,PTH,ComponentDrill
T4C0.500
; #@! TA.AperFunction,Plated,PTH,ComponentDrill
T5C1.000
; #@! TA.AperFunction,NonPlated,NPTH,ComponentDrill
T6C0.900
%
G90
G05
T1
X140.8Y-72.6
X144.5Y-77.4
X145.6Y-78.3
X147.8Y-78.4
T2
X108.3Y-60.8
X108.3Y-83.7
X108.9Y-64.9
X108.9Y-66.9
X108.9Y-77.8
X108.9Y-79.8
X110.8Y-60.8
X110.8Y-83.7
X111.3Y-64.9
X111.3Y-66.9
X111.3Y-77.8
X113.4Y-60.8
X113.4Y-83.7
X115.9Y-60.8
X115.9Y-83.7
X116.19Y-70.21
X117.3Y-63.9
X118.1Y-64.6
X118.5Y-60.8
X118.5Y-83.7
X118.8Y-65.3
X121.0Y-60.8
X121.0Y-83.7
X121.75Y-65.75
X121.75Y-67.75
X123.6Y-60.8
X123.6Y-83.7
X124.25Y-65.75
X124.25Y-67.75
X126.1Y-60.8
X126.1Y-83.7
X126.25Y-67.75
X127.7Y-70.4
X128.7Y-60.8
X128.7Y-83.7
X131.2Y-60.8
X131.2Y-83.7
X132.1Y-78.2
X132.9Y-73.9
X133.1Y-71.0
X133.7Y-60.8
X133.7Y-83.7
X134.926Y-76.026
X135.1Y-78.5
X135.7Y-71.5
X135.9Y-73.7
X136.0Y-69.45
X136.3Y-60.8
X136.3Y-83.7
X136.9Y-70.6
X137.0Y-74.2
X138.274Y-73.181
X138.6Y-68.4
X138.8Y-60.8
X138.8Y-83.7
X138.85Y-72.7
X139.172Y-69.088
X141.115Y-73.665
X141.35Y-71.1
X141.4Y-60.8
X141.4Y-83.7
X141.5Y-69.9
X143.2Y-65.4
X143.9Y-60.8
X143.9Y-83.7
X146.4Y-60.8
X146.4Y-83.7
X149.0Y-60.8
X149.0Y-83.7
X150.0Y-77.65
X150.026Y-75.426
X151.5Y-60.8
X151.5Y-83.7
X154.0Y-60.8
X154.0Y-83.7
X156.4Y-60.8
X156.4Y-83.7
X158.7Y-60.8
X158.7Y-83.7
T3
X112.55Y-70.35
T5
X109.34Y-62.1
X109.36Y-82.3
X111.88Y-62.1
X111.9Y-82.3
X114.42Y-62.1
X114.44Y-82.3
X116.96Y-62.1
X116.98Y-82.3
X119.5Y-62.1
X119.52Y-82.3
X122.04Y-62.1
X122.06Y-82.3
X124.58Y-62.1
X124.6Y-82.3
X127.12Y-62.1
X127.14Y-82.3
X129.66Y-62.1
X129.68Y-82.3
X132.2Y-62.1
X132.22Y-82.3
X134.74Y-62.1
X134.76Y-82.3
X137.28Y-62.1
X137.3Y-82.3
X139.82Y-62.1
X139.84Y-82.3
X142.36Y-62.1
X142.38Y-82.3
X144.9Y-62.1
X144.92Y-82.3
X147.44Y-62.1
X147.46Y-82.3
X149.98Y-62.1
X150.0Y-82.3
X152.52Y-62.1
X152.54Y-82.3
X155.06Y-62.1
X155.08Y-82.3
X156.875Y-68.48
X156.875Y-71.02
X156.875Y-73.56
X156.875Y-76.1
X157.6Y-62.1
X157.62Y-82.3
T6
X149.0Y-75.6
X152.0Y-75.6
T4
G00X108.4Y-68.95
M15
G01X109.1Y-68.95
M16
G05
G00X108.4Y-75.55
M15
G01X109.1Y-75.55
M16
G05
M30
