%TF.GenerationSoftware,KiCad,Pcbnew,8.0.6*%
%TF.CreationDate,2025-02-01T08:29:43+02:00*%
%TF.ProjectId,stm32,73746d33-322e-46b6-9963-61645f706362,rev?*%
%TF.SameCoordinates,Original*%
%TF.FileFunction,Legend,Top*%
%TF.FilePolarity,Positive*%
%FSLAX46Y46*%
G04 Gerber Fmt 4.6, Leading zero omitted, Abs format (unit mm)*
G04 Created by KiCad (PCBNEW 8.0.6) date 2025-02-01 08:29:43*
%MOMM*%
%LPD*%
G01*
G04 APERTURE LIST*
%ADD10C,0.150000*%
%ADD11C,0.120000*%
G04 APERTURE END LIST*
D10*
X112704819Y-72583333D02*
X113419104Y-72583333D01*
X113419104Y-72583333D02*
X113561961Y-72630952D01*
X113561961Y-72630952D02*
X113657200Y-72726190D01*
X113657200Y-72726190D02*
X113704819Y-72869047D01*
X113704819Y-72869047D02*
X113704819Y-72964285D01*
X112800057Y-72154761D02*
X112752438Y-72107142D01*
X112752438Y-72107142D02*
X112704819Y-72011904D01*
X112704819Y-72011904D02*
X112704819Y-71773809D01*
X112704819Y-71773809D02*
X112752438Y-71678571D01*
X112752438Y-71678571D02*
X112800057Y-71630952D01*
X112800057Y-71630952D02*
X112895295Y-71583333D01*
X112895295Y-71583333D02*
X112990533Y-71583333D01*
X112990533Y-71583333D02*
X113133390Y-71630952D01*
X113133390Y-71630952D02*
X113704819Y-72202380D01*
X113704819Y-72202380D02*
X113704819Y-71583333D01*
X155849580Y-67166666D02*
X155897200Y-67214285D01*
X155897200Y-67214285D02*
X155944819Y-67357142D01*
X155944819Y-67357142D02*
X155944819Y-67452380D01*
X155944819Y-67452380D02*
X155897200Y-67595237D01*
X155897200Y-67595237D02*
X155801961Y-67690475D01*
X155801961Y-67690475D02*
X155706723Y-67738094D01*
X155706723Y-67738094D02*
X155516247Y-67785713D01*
X155516247Y-67785713D02*
X155373390Y-67785713D01*
X155373390Y-67785713D02*
X155182914Y-67738094D01*
X155182914Y-67738094D02*
X155087676Y-67690475D01*
X155087676Y-67690475D02*
X154992438Y-67595237D01*
X154992438Y-67595237D02*
X154944819Y-67452380D01*
X154944819Y-67452380D02*
X154944819Y-67357142D01*
X154944819Y-67357142D02*
X154992438Y-67214285D01*
X154992438Y-67214285D02*
X155040057Y-67166666D01*
X154944819Y-66833332D02*
X154944819Y-66166666D01*
X154944819Y-66166666D02*
X155944819Y-66595237D01*
X158166666Y-65664819D02*
X158166666Y-66379104D01*
X158166666Y-66379104D02*
X158119047Y-66521961D01*
X158119047Y-66521961D02*
X158023809Y-66617200D01*
X158023809Y-66617200D02*
X157880952Y-66664819D01*
X157880952Y-66664819D02*
X157785714Y-66664819D01*
X158547619Y-65664819D02*
X159166666Y-65664819D01*
X159166666Y-65664819D02*
X158833333Y-66045771D01*
X158833333Y-66045771D02*
X158976190Y-66045771D01*
X158976190Y-66045771D02*
X159071428Y-66093390D01*
X159071428Y-66093390D02*
X159119047Y-66141009D01*
X159119047Y-66141009D02*
X159166666Y-66236247D01*
X159166666Y-66236247D02*
X159166666Y-66474342D01*
X159166666Y-66474342D02*
X159119047Y-66569580D01*
X159119047Y-66569580D02*
X159071428Y-66617200D01*
X159071428Y-66617200D02*
X158976190Y-66664819D01*
X158976190Y-66664819D02*
X158690476Y-66664819D01*
X158690476Y-66664819D02*
X158595238Y-66617200D01*
X158595238Y-66617200D02*
X158547619Y-66569580D01*
X147184819Y-75066666D02*
X146708628Y-75399999D01*
X147184819Y-75638094D02*
X146184819Y-75638094D01*
X146184819Y-75638094D02*
X146184819Y-75257142D01*
X146184819Y-75257142D02*
X146232438Y-75161904D01*
X146232438Y-75161904D02*
X146280057Y-75114285D01*
X146280057Y-75114285D02*
X146375295Y-75066666D01*
X146375295Y-75066666D02*
X146518152Y-75066666D01*
X146518152Y-75066666D02*
X146613390Y-75114285D01*
X146613390Y-75114285D02*
X146661009Y-75161904D01*
X146661009Y-75161904D02*
X146708628Y-75257142D01*
X146708628Y-75257142D02*
X146708628Y-75638094D01*
X146280057Y-74685713D02*
X146232438Y-74638094D01*
X146232438Y-74638094D02*
X146184819Y-74542856D01*
X146184819Y-74542856D02*
X146184819Y-74304761D01*
X146184819Y-74304761D02*
X146232438Y-74209523D01*
X146232438Y-74209523D02*
X146280057Y-74161904D01*
X146280057Y-74161904D02*
X146375295Y-74114285D01*
X146375295Y-74114285D02*
X146470533Y-74114285D01*
X146470533Y-74114285D02*
X146613390Y-74161904D01*
X146613390Y-74161904D02*
X147184819Y-74733332D01*
X147184819Y-74733332D02*
X147184819Y-74114285D01*
X137962325Y-76809821D02*
X138534745Y-77382241D01*
X138534745Y-77382241D02*
X138635760Y-77415913D01*
X138635760Y-77415913D02*
X138703104Y-77415913D01*
X138703104Y-77415913D02*
X138804119Y-77382241D01*
X138804119Y-77382241D02*
X138938806Y-77247554D01*
X138938806Y-77247554D02*
X138972478Y-77146539D01*
X138972478Y-77146539D02*
X138972478Y-77079195D01*
X138972478Y-77079195D02*
X138938806Y-76978180D01*
X138938806Y-76978180D02*
X138366386Y-76405760D01*
X139780600Y-76405760D02*
X139376539Y-76809821D01*
X139578569Y-76607791D02*
X138871463Y-75900684D01*
X138871463Y-75900684D02*
X138905134Y-76069043D01*
X138905134Y-76069043D02*
X138905134Y-76203730D01*
X138905134Y-76203730D02*
X138871463Y-76304745D01*
X143410806Y-65315758D02*
X143074088Y-65652476D01*
X143545493Y-64709667D02*
X143410806Y-65315758D01*
X143410806Y-65315758D02*
X144016897Y-65181071D01*
X144151584Y-65450445D02*
X144218928Y-65450445D01*
X144218928Y-65450445D02*
X144319943Y-65484117D01*
X144319943Y-65484117D02*
X144488302Y-65652476D01*
X144488302Y-65652476D02*
X144521974Y-65753491D01*
X144521974Y-65753491D02*
X144521974Y-65820834D01*
X144521974Y-65820834D02*
X144488302Y-65921850D01*
X144488302Y-65921850D02*
X144420958Y-65989193D01*
X144420958Y-65989193D02*
X144286271Y-66056537D01*
X144286271Y-66056537D02*
X143478149Y-66056537D01*
X143478149Y-66056537D02*
X143915882Y-66494269D01*
X149166667Y-72477200D02*
X149309524Y-72524819D01*
X149309524Y-72524819D02*
X149547619Y-72524819D01*
X149547619Y-72524819D02*
X149642857Y-72477200D01*
X149642857Y-72477200D02*
X149690476Y-72429580D01*
X149690476Y-72429580D02*
X149738095Y-72334342D01*
X149738095Y-72334342D02*
X149738095Y-72239104D01*
X149738095Y-72239104D02*
X149690476Y-72143866D01*
X149690476Y-72143866D02*
X149642857Y-72096247D01*
X149642857Y-72096247D02*
X149547619Y-72048628D01*
X149547619Y-72048628D02*
X149357143Y-72001009D01*
X149357143Y-72001009D02*
X149261905Y-71953390D01*
X149261905Y-71953390D02*
X149214286Y-71905771D01*
X149214286Y-71905771D02*
X149166667Y-71810533D01*
X149166667Y-71810533D02*
X149166667Y-71715295D01*
X149166667Y-71715295D02*
X149214286Y-71620057D01*
X149214286Y-71620057D02*
X149261905Y-71572438D01*
X149261905Y-71572438D02*
X149357143Y-71524819D01*
X149357143Y-71524819D02*
X149595238Y-71524819D01*
X149595238Y-71524819D02*
X149738095Y-71572438D01*
X150071429Y-71524819D02*
X150309524Y-72524819D01*
X150309524Y-72524819D02*
X150500000Y-71810533D01*
X150500000Y-71810533D02*
X150690476Y-72524819D01*
X150690476Y-72524819D02*
X150928572Y-71524819D01*
X151261905Y-71620057D02*
X151309524Y-71572438D01*
X151309524Y-71572438D02*
X151404762Y-71524819D01*
X151404762Y-71524819D02*
X151642857Y-71524819D01*
X151642857Y-71524819D02*
X151738095Y-71572438D01*
X151738095Y-71572438D02*
X151785714Y-71620057D01*
X151785714Y-71620057D02*
X151833333Y-71715295D01*
X151833333Y-71715295D02*
X151833333Y-71810533D01*
X151833333Y-71810533D02*
X151785714Y-71953390D01*
X151785714Y-71953390D02*
X151214286Y-72524819D01*
X151214286Y-72524819D02*
X151833333Y-72524819D01*
X143124819Y-71538094D02*
X142124819Y-71538094D01*
X142124819Y-71538094D02*
X142124819Y-71299999D01*
X142124819Y-71299999D02*
X142172438Y-71157142D01*
X142172438Y-71157142D02*
X142267676Y-71061904D01*
X142267676Y-71061904D02*
X142362914Y-71014285D01*
X142362914Y-71014285D02*
X142553390Y-70966666D01*
X142553390Y-70966666D02*
X142696247Y-70966666D01*
X142696247Y-70966666D02*
X142886723Y-71014285D01*
X142886723Y-71014285D02*
X142981961Y-71061904D01*
X142981961Y-71061904D02*
X143077200Y-71157142D01*
X143077200Y-71157142D02*
X143124819Y-71299999D01*
X143124819Y-71299999D02*
X143124819Y-71538094D01*
X142458152Y-70109523D02*
X143124819Y-70109523D01*
X142077200Y-70347618D02*
X142791485Y-70585713D01*
X142791485Y-70585713D02*
X142791485Y-69966666D01*
X127657231Y-70366368D02*
X127657231Y-70433712D01*
X127657231Y-70433712D02*
X127589887Y-70568399D01*
X127589887Y-70568399D02*
X127522544Y-70635742D01*
X127522544Y-70635742D02*
X127387857Y-70703086D01*
X127387857Y-70703086D02*
X127253170Y-70703086D01*
X127253170Y-70703086D02*
X127152155Y-70669414D01*
X127152155Y-70669414D02*
X126983796Y-70568399D01*
X126983796Y-70568399D02*
X126882781Y-70467384D01*
X126882781Y-70467384D02*
X126781765Y-70299025D01*
X126781765Y-70299025D02*
X126748094Y-70198010D01*
X126748094Y-70198010D02*
X126748094Y-70063323D01*
X126748094Y-70063323D02*
X126815437Y-69928636D01*
X126815437Y-69928636D02*
X126882781Y-69861292D01*
X126882781Y-69861292D02*
X127017468Y-69793949D01*
X127017468Y-69793949D02*
X127084811Y-69793949D01*
X127354185Y-69524575D02*
X127354185Y-69457231D01*
X127354185Y-69457231D02*
X127387857Y-69356216D01*
X127387857Y-69356216D02*
X127556216Y-69187857D01*
X127556216Y-69187857D02*
X127657231Y-69154185D01*
X127657231Y-69154185D02*
X127724574Y-69154185D01*
X127724574Y-69154185D02*
X127825590Y-69187857D01*
X127825590Y-69187857D02*
X127892933Y-69255201D01*
X127892933Y-69255201D02*
X127960277Y-69389888D01*
X127960277Y-69389888D02*
X127960277Y-70198010D01*
X127960277Y-70198010D02*
X128398009Y-69760277D01*
X128128636Y-68615437D02*
X128195979Y-68548094D01*
X128195979Y-68548094D02*
X128296994Y-68514422D01*
X128296994Y-68514422D02*
X128364338Y-68514422D01*
X128364338Y-68514422D02*
X128465353Y-68548094D01*
X128465353Y-68548094D02*
X128633712Y-68649109D01*
X128633712Y-68649109D02*
X128802071Y-68817468D01*
X128802071Y-68817468D02*
X128903086Y-68985826D01*
X128903086Y-68985826D02*
X128936758Y-69086842D01*
X128936758Y-69086842D02*
X128936758Y-69154185D01*
X128936758Y-69154185D02*
X128903086Y-69255200D01*
X128903086Y-69255200D02*
X128835742Y-69322544D01*
X128835742Y-69322544D02*
X128734727Y-69356216D01*
X128734727Y-69356216D02*
X128667384Y-69356216D01*
X128667384Y-69356216D02*
X128566368Y-69322544D01*
X128566368Y-69322544D02*
X128398010Y-69221529D01*
X128398010Y-69221529D02*
X128229651Y-69053170D01*
X128229651Y-69053170D02*
X128128636Y-68884811D01*
X128128636Y-68884811D02*
X128094964Y-68783796D01*
X128094964Y-68783796D02*
X128094964Y-68716452D01*
X128094964Y-68716452D02*
X128128636Y-68615437D01*
X156061905Y-64124819D02*
X156061905Y-63124819D01*
X156061905Y-63124819D02*
X156300000Y-63124819D01*
X156300000Y-63124819D02*
X156442857Y-63172438D01*
X156442857Y-63172438D02*
X156538095Y-63267676D01*
X156538095Y-63267676D02*
X156585714Y-63362914D01*
X156585714Y-63362914D02*
X156633333Y-63553390D01*
X156633333Y-63553390D02*
X156633333Y-63696247D01*
X156633333Y-63696247D02*
X156585714Y-63886723D01*
X156585714Y-63886723D02*
X156538095Y-63981961D01*
X156538095Y-63981961D02*
X156442857Y-64077200D01*
X156442857Y-64077200D02*
X156300000Y-64124819D01*
X156300000Y-64124819D02*
X156061905Y-64124819D01*
X157014286Y-63220057D02*
X157061905Y-63172438D01*
X157061905Y-63172438D02*
X157157143Y-63124819D01*
X157157143Y-63124819D02*
X157395238Y-63124819D01*
X157395238Y-63124819D02*
X157490476Y-63172438D01*
X157490476Y-63172438D02*
X157538095Y-63220057D01*
X157538095Y-63220057D02*
X157585714Y-63315295D01*
X157585714Y-63315295D02*
X157585714Y-63410533D01*
X157585714Y-63410533D02*
X157538095Y-63553390D01*
X157538095Y-63553390D02*
X156966667Y-64124819D01*
X156966667Y-64124819D02*
X157585714Y-64124819D01*
X144309580Y-71966666D02*
X144357200Y-72014285D01*
X144357200Y-72014285D02*
X144404819Y-72157142D01*
X144404819Y-72157142D02*
X144404819Y-72252380D01*
X144404819Y-72252380D02*
X144357200Y-72395237D01*
X144357200Y-72395237D02*
X144261961Y-72490475D01*
X144261961Y-72490475D02*
X144166723Y-72538094D01*
X144166723Y-72538094D02*
X143976247Y-72585713D01*
X143976247Y-72585713D02*
X143833390Y-72585713D01*
X143833390Y-72585713D02*
X143642914Y-72538094D01*
X143642914Y-72538094D02*
X143547676Y-72490475D01*
X143547676Y-72490475D02*
X143452438Y-72395237D01*
X143452438Y-72395237D02*
X143404819Y-72252380D01*
X143404819Y-72252380D02*
X143404819Y-72157142D01*
X143404819Y-72157142D02*
X143452438Y-72014285D01*
X143452438Y-72014285D02*
X143500057Y-71966666D01*
X144404819Y-71014285D02*
X144404819Y-71585713D01*
X144404819Y-71299999D02*
X143404819Y-71299999D01*
X143404819Y-71299999D02*
X143547676Y-71395237D01*
X143547676Y-71395237D02*
X143642914Y-71490475D01*
X143642914Y-71490475D02*
X143690533Y-71585713D01*
X141284819Y-72166666D02*
X140808628Y-72499999D01*
X141284819Y-72738094D02*
X140284819Y-72738094D01*
X140284819Y-72738094D02*
X140284819Y-72357142D01*
X140284819Y-72357142D02*
X140332438Y-72261904D01*
X140332438Y-72261904D02*
X140380057Y-72214285D01*
X140380057Y-72214285D02*
X140475295Y-72166666D01*
X140475295Y-72166666D02*
X140618152Y-72166666D01*
X140618152Y-72166666D02*
X140713390Y-72214285D01*
X140713390Y-72214285D02*
X140761009Y-72261904D01*
X140761009Y-72261904D02*
X140808628Y-72357142D01*
X140808628Y-72357142D02*
X140808628Y-72738094D01*
X141284819Y-71214285D02*
X141284819Y-71785713D01*
X141284819Y-71499999D02*
X140284819Y-71499999D01*
X140284819Y-71499999D02*
X140427676Y-71595237D01*
X140427676Y-71595237D02*
X140522914Y-71690475D01*
X140522914Y-71690475D02*
X140570533Y-71785713D01*
X116104819Y-72661904D02*
X116914342Y-72661904D01*
X116914342Y-72661904D02*
X117009580Y-72614285D01*
X117009580Y-72614285D02*
X117057200Y-72566666D01*
X117057200Y-72566666D02*
X117104819Y-72471428D01*
X117104819Y-72471428D02*
X117104819Y-72280952D01*
X117104819Y-72280952D02*
X117057200Y-72185714D01*
X117057200Y-72185714D02*
X117009580Y-72138095D01*
X117009580Y-72138095D02*
X116914342Y-72090476D01*
X116914342Y-72090476D02*
X116104819Y-72090476D01*
X116104819Y-71709523D02*
X116104819Y-71090476D01*
X116104819Y-71090476D02*
X116485771Y-71423809D01*
X116485771Y-71423809D02*
X116485771Y-71280952D01*
X116485771Y-71280952D02*
X116533390Y-71185714D01*
X116533390Y-71185714D02*
X116581009Y-71138095D01*
X116581009Y-71138095D02*
X116676247Y-71090476D01*
X116676247Y-71090476D02*
X116914342Y-71090476D01*
X116914342Y-71090476D02*
X117009580Y-71138095D01*
X117009580Y-71138095D02*
X117057200Y-71185714D01*
X117057200Y-71185714D02*
X117104819Y-71280952D01*
X117104819Y-71280952D02*
X117104819Y-71566666D01*
X117104819Y-71566666D02*
X117057200Y-71661904D01*
X117057200Y-71661904D02*
X117009580Y-71709523D01*
X152833333Y-80884819D02*
X152500000Y-80408628D01*
X152261905Y-80884819D02*
X152261905Y-79884819D01*
X152261905Y-79884819D02*
X152642857Y-79884819D01*
X152642857Y-79884819D02*
X152738095Y-79932438D01*
X152738095Y-79932438D02*
X152785714Y-79980057D01*
X152785714Y-79980057D02*
X152833333Y-80075295D01*
X152833333Y-80075295D02*
X152833333Y-80218152D01*
X152833333Y-80218152D02*
X152785714Y-80313390D01*
X152785714Y-80313390D02*
X152738095Y-80361009D01*
X152738095Y-80361009D02*
X152642857Y-80408628D01*
X152642857Y-80408628D02*
X152261905Y-80408628D01*
X153690476Y-80218152D02*
X153690476Y-80884819D01*
X153452381Y-79837200D02*
X153214286Y-80551485D01*
X153214286Y-80551485D02*
X153833333Y-80551485D01*
X145624819Y-75066666D02*
X145148628Y-75399999D01*
X145624819Y-75638094D02*
X144624819Y-75638094D01*
X144624819Y-75638094D02*
X144624819Y-75257142D01*
X144624819Y-75257142D02*
X144672438Y-75161904D01*
X144672438Y-75161904D02*
X144720057Y-75114285D01*
X144720057Y-75114285D02*
X144815295Y-75066666D01*
X144815295Y-75066666D02*
X144958152Y-75066666D01*
X144958152Y-75066666D02*
X145053390Y-75114285D01*
X145053390Y-75114285D02*
X145101009Y-75161904D01*
X145101009Y-75161904D02*
X145148628Y-75257142D01*
X145148628Y-75257142D02*
X145148628Y-75638094D01*
X144720057Y-74685713D02*
X144672438Y-74638094D01*
X144672438Y-74638094D02*
X144624819Y-74542856D01*
X144624819Y-74542856D02*
X144624819Y-74304761D01*
X144624819Y-74304761D02*
X144672438Y-74209523D01*
X144672438Y-74209523D02*
X144720057Y-74161904D01*
X144720057Y-74161904D02*
X144815295Y-74114285D01*
X144815295Y-74114285D02*
X144910533Y-74114285D01*
X144910533Y-74114285D02*
X145053390Y-74161904D01*
X145053390Y-74161904D02*
X145624819Y-74733332D01*
X145624819Y-74733332D02*
X145624819Y-74114285D01*
X148566667Y-73307200D02*
X148709524Y-73354819D01*
X148709524Y-73354819D02*
X148947619Y-73354819D01*
X148947619Y-73354819D02*
X149042857Y-73307200D01*
X149042857Y-73307200D02*
X149090476Y-73259580D01*
X149090476Y-73259580D02*
X149138095Y-73164342D01*
X149138095Y-73164342D02*
X149138095Y-73069104D01*
X149138095Y-73069104D02*
X149090476Y-72973866D01*
X149090476Y-72973866D02*
X149042857Y-72926247D01*
X149042857Y-72926247D02*
X148947619Y-72878628D01*
X148947619Y-72878628D02*
X148757143Y-72831009D01*
X148757143Y-72831009D02*
X148661905Y-72783390D01*
X148661905Y-72783390D02*
X148614286Y-72735771D01*
X148614286Y-72735771D02*
X148566667Y-72640533D01*
X148566667Y-72640533D02*
X148566667Y-72545295D01*
X148566667Y-72545295D02*
X148614286Y-72450057D01*
X148614286Y-72450057D02*
X148661905Y-72402438D01*
X148661905Y-72402438D02*
X148757143Y-72354819D01*
X148757143Y-72354819D02*
X148995238Y-72354819D01*
X148995238Y-72354819D02*
X149138095Y-72402438D01*
X149471429Y-72354819D02*
X149709524Y-73354819D01*
X149709524Y-73354819D02*
X149900000Y-72640533D01*
X149900000Y-72640533D02*
X150090476Y-73354819D01*
X150090476Y-73354819D02*
X150328572Y-72354819D01*
X151233333Y-73354819D02*
X150661905Y-73354819D01*
X150947619Y-73354819D02*
X150947619Y-72354819D01*
X150947619Y-72354819D02*
X150852381Y-72497676D01*
X150852381Y-72497676D02*
X150757143Y-72592914D01*
X150757143Y-72592914D02*
X150661905Y-72640533D01*
X139759905Y-67183505D02*
X139692561Y-67183505D01*
X139692561Y-67183505D02*
X139557874Y-67116161D01*
X139557874Y-67116161D02*
X139490531Y-67048818D01*
X139490531Y-67048818D02*
X139423187Y-66914131D01*
X139423187Y-66914131D02*
X139423187Y-66779444D01*
X139423187Y-66779444D02*
X139456859Y-66678429D01*
X139456859Y-66678429D02*
X139557874Y-66510070D01*
X139557874Y-66510070D02*
X139658889Y-66409055D01*
X139658889Y-66409055D02*
X139827248Y-66308039D01*
X139827248Y-66308039D02*
X139928263Y-66274368D01*
X139928263Y-66274368D02*
X140062950Y-66274368D01*
X140062950Y-66274368D02*
X140197637Y-66341711D01*
X140197637Y-66341711D02*
X140264981Y-66409055D01*
X140264981Y-66409055D02*
X140332324Y-66543742D01*
X140332324Y-66543742D02*
X140332324Y-66611085D01*
X140365996Y-67924283D02*
X139961935Y-67520222D01*
X140163966Y-67722253D02*
X140871072Y-67015146D01*
X140871072Y-67015146D02*
X140702714Y-67048818D01*
X140702714Y-67048818D02*
X140568027Y-67048818D01*
X140568027Y-67048818D02*
X140467011Y-67015146D01*
X141712866Y-67856940D02*
X141376149Y-67520222D01*
X141376149Y-67520222D02*
X141005760Y-67823268D01*
X141005760Y-67823268D02*
X141073103Y-67823268D01*
X141073103Y-67823268D02*
X141174118Y-67856940D01*
X141174118Y-67856940D02*
X141342477Y-68025299D01*
X141342477Y-68025299D02*
X141376149Y-68126314D01*
X141376149Y-68126314D02*
X141376149Y-68193658D01*
X141376149Y-68193658D02*
X141342477Y-68294673D01*
X141342477Y-68294673D02*
X141174118Y-68463032D01*
X141174118Y-68463032D02*
X141073103Y-68496703D01*
X141073103Y-68496703D02*
X141005760Y-68496703D01*
X141005760Y-68496703D02*
X140904744Y-68463032D01*
X140904744Y-68463032D02*
X140736386Y-68294673D01*
X140736386Y-68294673D02*
X140702714Y-68193658D01*
X140702714Y-68193658D02*
X140702714Y-68126314D01*
X139348707Y-69742155D02*
X139281363Y-69742155D01*
X139281363Y-69742155D02*
X139146676Y-69674811D01*
X139146676Y-69674811D02*
X139079333Y-69607468D01*
X139079333Y-69607468D02*
X139011989Y-69472781D01*
X139011989Y-69472781D02*
X139011989Y-69338094D01*
X139011989Y-69338094D02*
X139045661Y-69237079D01*
X139045661Y-69237079D02*
X139146676Y-69068720D01*
X139146676Y-69068720D02*
X139247691Y-68967705D01*
X139247691Y-68967705D02*
X139416050Y-68866689D01*
X139416050Y-68866689D02*
X139517065Y-68833018D01*
X139517065Y-68833018D02*
X139651752Y-68833018D01*
X139651752Y-68833018D02*
X139786439Y-68900361D01*
X139786439Y-68900361D02*
X139853783Y-68967705D01*
X139853783Y-68967705D02*
X139921126Y-69102392D01*
X139921126Y-69102392D02*
X139921126Y-69169735D01*
X139954798Y-70482933D02*
X139550737Y-70078872D01*
X139752768Y-70280903D02*
X140459874Y-69573796D01*
X140459874Y-69573796D02*
X140291516Y-69607468D01*
X140291516Y-69607468D02*
X140156829Y-69607468D01*
X140156829Y-69607468D02*
X140055813Y-69573796D01*
X141032294Y-70617621D02*
X140560890Y-71089025D01*
X141133310Y-70179888D02*
X140459875Y-70516605D01*
X140459875Y-70516605D02*
X140897607Y-70954338D01*
X155561905Y-78354819D02*
X155561905Y-77354819D01*
X155561905Y-77354819D02*
X155800000Y-77354819D01*
X155800000Y-77354819D02*
X155942857Y-77402438D01*
X155942857Y-77402438D02*
X156038095Y-77497676D01*
X156038095Y-77497676D02*
X156085714Y-77592914D01*
X156085714Y-77592914D02*
X156133333Y-77783390D01*
X156133333Y-77783390D02*
X156133333Y-77926247D01*
X156133333Y-77926247D02*
X156085714Y-78116723D01*
X156085714Y-78116723D02*
X156038095Y-78211961D01*
X156038095Y-78211961D02*
X155942857Y-78307200D01*
X155942857Y-78307200D02*
X155800000Y-78354819D01*
X155800000Y-78354819D02*
X155561905Y-78354819D01*
X157085714Y-78354819D02*
X156514286Y-78354819D01*
X156800000Y-78354819D02*
X156800000Y-77354819D01*
X156800000Y-77354819D02*
X156704762Y-77497676D01*
X156704762Y-77497676D02*
X156609524Y-77592914D01*
X156609524Y-77592914D02*
X156514286Y-77640533D01*
X114233333Y-69974819D02*
X113900000Y-69498628D01*
X113661905Y-69974819D02*
X113661905Y-68974819D01*
X113661905Y-68974819D02*
X114042857Y-68974819D01*
X114042857Y-68974819D02*
X114138095Y-69022438D01*
X114138095Y-69022438D02*
X114185714Y-69070057D01*
X114185714Y-69070057D02*
X114233333Y-69165295D01*
X114233333Y-69165295D02*
X114233333Y-69308152D01*
X114233333Y-69308152D02*
X114185714Y-69403390D01*
X114185714Y-69403390D02*
X114138095Y-69451009D01*
X114138095Y-69451009D02*
X114042857Y-69498628D01*
X114042857Y-69498628D02*
X113661905Y-69498628D01*
X114566667Y-68974819D02*
X115233333Y-68974819D01*
X115233333Y-68974819D02*
X114804762Y-69974819D01*
X114233333Y-71924819D02*
X113900000Y-71448628D01*
X113661905Y-71924819D02*
X113661905Y-70924819D01*
X113661905Y-70924819D02*
X114042857Y-70924819D01*
X114042857Y-70924819D02*
X114138095Y-70972438D01*
X114138095Y-70972438D02*
X114185714Y-71020057D01*
X114185714Y-71020057D02*
X114233333Y-71115295D01*
X114233333Y-71115295D02*
X114233333Y-71258152D01*
X114233333Y-71258152D02*
X114185714Y-71353390D01*
X114185714Y-71353390D02*
X114138095Y-71401009D01*
X114138095Y-71401009D02*
X114042857Y-71448628D01*
X114042857Y-71448628D02*
X113661905Y-71448628D01*
X115090476Y-70924819D02*
X114900000Y-70924819D01*
X114900000Y-70924819D02*
X114804762Y-70972438D01*
X114804762Y-70972438D02*
X114757143Y-71020057D01*
X114757143Y-71020057D02*
X114661905Y-71162914D01*
X114661905Y-71162914D02*
X114614286Y-71353390D01*
X114614286Y-71353390D02*
X114614286Y-71734342D01*
X114614286Y-71734342D02*
X114661905Y-71829580D01*
X114661905Y-71829580D02*
X114709524Y-71877200D01*
X114709524Y-71877200D02*
X114804762Y-71924819D01*
X114804762Y-71924819D02*
X114995238Y-71924819D01*
X114995238Y-71924819D02*
X115090476Y-71877200D01*
X115090476Y-71877200D02*
X115138095Y-71829580D01*
X115138095Y-71829580D02*
X115185714Y-71734342D01*
X115185714Y-71734342D02*
X115185714Y-71496247D01*
X115185714Y-71496247D02*
X115138095Y-71401009D01*
X115138095Y-71401009D02*
X115090476Y-71353390D01*
X115090476Y-71353390D02*
X114995238Y-71305771D01*
X114995238Y-71305771D02*
X114804762Y-71305771D01*
X114804762Y-71305771D02*
X114709524Y-71353390D01*
X114709524Y-71353390D02*
X114661905Y-71401009D01*
X114661905Y-71401009D02*
X114614286Y-71496247D01*
X141724819Y-76038094D02*
X140724819Y-76038094D01*
X140724819Y-76038094D02*
X140724819Y-75799999D01*
X140724819Y-75799999D02*
X140772438Y-75657142D01*
X140772438Y-75657142D02*
X140867676Y-75561904D01*
X140867676Y-75561904D02*
X140962914Y-75514285D01*
X140962914Y-75514285D02*
X141153390Y-75466666D01*
X141153390Y-75466666D02*
X141296247Y-75466666D01*
X141296247Y-75466666D02*
X141486723Y-75514285D01*
X141486723Y-75514285D02*
X141581961Y-75561904D01*
X141581961Y-75561904D02*
X141677200Y-75657142D01*
X141677200Y-75657142D02*
X141724819Y-75799999D01*
X141724819Y-75799999D02*
X141724819Y-76038094D01*
X140724819Y-75133332D02*
X140724819Y-74514285D01*
X140724819Y-74514285D02*
X141105771Y-74847618D01*
X141105771Y-74847618D02*
X141105771Y-74704761D01*
X141105771Y-74704761D02*
X141153390Y-74609523D01*
X141153390Y-74609523D02*
X141201009Y-74561904D01*
X141201009Y-74561904D02*
X141296247Y-74514285D01*
X141296247Y-74514285D02*
X141534342Y-74514285D01*
X141534342Y-74514285D02*
X141629580Y-74561904D01*
X141629580Y-74561904D02*
X141677200Y-74609523D01*
X141677200Y-74609523D02*
X141724819Y-74704761D01*
X141724819Y-74704761D02*
X141724819Y-74990475D01*
X141724819Y-74990475D02*
X141677200Y-75085713D01*
X141677200Y-75085713D02*
X141629580Y-75133332D01*
X139657231Y-71866368D02*
X139657231Y-71933712D01*
X139657231Y-71933712D02*
X139589887Y-72068399D01*
X139589887Y-72068399D02*
X139522544Y-72135742D01*
X139522544Y-72135742D02*
X139387857Y-72203086D01*
X139387857Y-72203086D02*
X139253170Y-72203086D01*
X139253170Y-72203086D02*
X139152155Y-72169414D01*
X139152155Y-72169414D02*
X138983796Y-72068399D01*
X138983796Y-72068399D02*
X138882781Y-71967384D01*
X138882781Y-71967384D02*
X138781765Y-71799025D01*
X138781765Y-71799025D02*
X138748094Y-71698010D01*
X138748094Y-71698010D02*
X138748094Y-71563323D01*
X138748094Y-71563323D02*
X138815437Y-71428636D01*
X138815437Y-71428636D02*
X138882781Y-71361292D01*
X138882781Y-71361292D02*
X139017468Y-71293949D01*
X139017468Y-71293949D02*
X139084811Y-71293949D01*
X140398009Y-71260277D02*
X139993948Y-71664338D01*
X140195979Y-71462307D02*
X139488872Y-70755201D01*
X139488872Y-70755201D02*
X139522544Y-70923559D01*
X139522544Y-70923559D02*
X139522544Y-71058246D01*
X139522544Y-71058246D02*
X139488872Y-71159262D01*
X140734727Y-70923559D02*
X140869414Y-70788872D01*
X140869414Y-70788872D02*
X140903086Y-70687857D01*
X140903086Y-70687857D02*
X140903086Y-70620513D01*
X140903086Y-70620513D02*
X140869414Y-70452155D01*
X140869414Y-70452155D02*
X140768399Y-70283796D01*
X140768399Y-70283796D02*
X140499025Y-70014422D01*
X140499025Y-70014422D02*
X140398010Y-69980750D01*
X140398010Y-69980750D02*
X140330666Y-69980750D01*
X140330666Y-69980750D02*
X140229651Y-70014422D01*
X140229651Y-70014422D02*
X140094964Y-70149109D01*
X140094964Y-70149109D02*
X140061292Y-70250124D01*
X140061292Y-70250124D02*
X140061292Y-70317468D01*
X140061292Y-70317468D02*
X140094964Y-70418483D01*
X140094964Y-70418483D02*
X140263323Y-70586842D01*
X140263323Y-70586842D02*
X140364338Y-70620513D01*
X140364338Y-70620513D02*
X140431681Y-70620513D01*
X140431681Y-70620513D02*
X140532697Y-70586842D01*
X140532697Y-70586842D02*
X140667384Y-70452155D01*
X140667384Y-70452155D02*
X140701055Y-70351139D01*
X140701055Y-70351139D02*
X140701055Y-70283796D01*
X140701055Y-70283796D02*
X140667384Y-70182781D01*
X153533333Y-66984819D02*
X153200000Y-66508628D01*
X152961905Y-66984819D02*
X152961905Y-65984819D01*
X152961905Y-65984819D02*
X153342857Y-65984819D01*
X153342857Y-65984819D02*
X153438095Y-66032438D01*
X153438095Y-66032438D02*
X153485714Y-66080057D01*
X153485714Y-66080057D02*
X153533333Y-66175295D01*
X153533333Y-66175295D02*
X153533333Y-66318152D01*
X153533333Y-66318152D02*
X153485714Y-66413390D01*
X153485714Y-66413390D02*
X153438095Y-66461009D01*
X153438095Y-66461009D02*
X153342857Y-66508628D01*
X153342857Y-66508628D02*
X152961905Y-66508628D01*
X154438095Y-65984819D02*
X153961905Y-65984819D01*
X153961905Y-65984819D02*
X153914286Y-66461009D01*
X153914286Y-66461009D02*
X153961905Y-66413390D01*
X153961905Y-66413390D02*
X154057143Y-66365771D01*
X154057143Y-66365771D02*
X154295238Y-66365771D01*
X154295238Y-66365771D02*
X154390476Y-66413390D01*
X154390476Y-66413390D02*
X154438095Y-66461009D01*
X154438095Y-66461009D02*
X154485714Y-66556247D01*
X154485714Y-66556247D02*
X154485714Y-66794342D01*
X154485714Y-66794342D02*
X154438095Y-66889580D01*
X154438095Y-66889580D02*
X154390476Y-66937200D01*
X154390476Y-66937200D02*
X154295238Y-66984819D01*
X154295238Y-66984819D02*
X154057143Y-66984819D01*
X154057143Y-66984819D02*
X153961905Y-66937200D01*
X153961905Y-66937200D02*
X153914286Y-66889580D01*
D11*
%TO.C,J2*%
X112160000Y-67990000D02*
X107800000Y-67990000D01*
X112160000Y-67990000D02*
X112160000Y-70490000D01*
X112160000Y-70490000D02*
X112360000Y-70490000D01*
X112160000Y-74010000D02*
X112160000Y-76510000D01*
X112160000Y-76510000D02*
X107800000Y-76510000D01*
X112360000Y-71150000D02*
X112360000Y-70490000D01*
%TO.C,J3*%
X155605000Y-67210000D02*
X156875000Y-67210000D01*
X155605000Y-68480000D02*
X155605000Y-67210000D01*
X157917929Y-70640000D02*
X158315000Y-70640000D01*
X157917929Y-71400000D02*
X158315000Y-71400000D01*
X157917929Y-73180000D02*
X158315000Y-73180000D01*
X157917929Y-73940000D02*
X158315000Y-73940000D01*
X157917929Y-75720000D02*
X158315000Y-75720000D01*
X157917929Y-76480000D02*
X158315000Y-76480000D01*
X157985000Y-68100000D02*
X158315000Y-68100000D01*
X157985000Y-68860000D02*
X158315000Y-68860000D01*
X158315000Y-67150000D02*
X158315000Y-77430000D01*
X158315000Y-69750000D02*
X160975000Y-69750000D01*
X158315000Y-72290000D02*
X160975000Y-72290000D01*
X158315000Y-74830000D02*
X160975000Y-74830000D01*
X158315000Y-77430000D02*
X160975000Y-77430000D01*
X160975000Y-67150000D02*
X158315000Y-67150000D01*
X160975000Y-68100000D02*
X166975000Y-68100000D01*
X160975000Y-68160000D02*
X166975000Y-68160000D01*
X160975000Y-68280000D02*
X166975000Y-68280000D01*
X160975000Y-68400000D02*
X166975000Y-68400000D01*
X160975000Y-68520000D02*
X166975000Y-68520000D01*
X160975000Y-68640000D02*
X166975000Y-68640000D01*
X160975000Y-68760000D02*
X166975000Y-68760000D01*
X160975000Y-70640000D02*
X166975000Y-70640000D01*
X160975000Y-73180000D02*
X166975000Y-73180000D01*
X160975000Y-75720000D02*
X166975000Y-75720000D01*
X160975000Y-77430000D02*
X160975000Y-67150000D01*
X166975000Y-68100000D02*
X166975000Y-68860000D01*
X166975000Y-68860000D02*
X160975000Y-68860000D01*
X166975000Y-70640000D02*
X166975000Y-71400000D01*
X166975000Y-71400000D02*
X160975000Y-71400000D01*
X166975000Y-73180000D02*
X166975000Y-73940000D01*
X166975000Y-73940000D02*
X160975000Y-73940000D01*
X166975000Y-75720000D02*
X166975000Y-76480000D01*
X166975000Y-76480000D02*
X160975000Y-76480000D01*
%TO.C,R2*%
X144777500Y-74662742D02*
X144777500Y-75137258D01*
X145822500Y-74662742D02*
X145822500Y-75137258D01*
%TO.C,U1*%
X129644689Y-72520000D02*
X129962887Y-72838198D01*
X129962887Y-72201802D02*
X129644689Y-72520000D01*
X134431802Y-67732887D02*
X134750000Y-67414689D01*
X134750000Y-67414689D02*
X135068198Y-67732887D01*
X134750000Y-77625311D02*
X134431802Y-77307113D01*
X135068198Y-77307113D02*
X134750000Y-77625311D01*
X139537113Y-72838198D02*
X139855311Y-72520000D01*
X139855311Y-72520000D02*
X139537113Y-72201802D01*
X140527062Y-71876533D02*
X140046230Y-72357365D01*
X139954306Y-71784609D01*
X140527062Y-71876533D01*
G36*
X140527062Y-71876533D02*
G01*
X140046230Y-72357365D01*
X139954306Y-71784609D01*
X140527062Y-71876533D01*
G37*
%TO.C,Y2*%
X139454416Y-67117157D02*
X142282843Y-69945584D01*
X141717157Y-64854416D02*
X139454416Y-67117157D01*
%TO.C,SW2*%
X147050000Y-75200000D02*
X147050000Y-75990000D01*
X147650000Y-77000000D02*
X153350000Y-77000000D01*
X148900000Y-74150000D02*
X150600000Y-74150000D01*
X149100000Y-77000000D02*
X149100000Y-78290000D01*
X149100000Y-78290000D02*
X149300000Y-78500000D01*
X149300000Y-78500000D02*
X150200000Y-78500000D01*
X150400000Y-78290000D02*
X150200000Y-78500000D01*
X150400000Y-78290000D02*
X150400000Y-77000000D01*
X151900000Y-74150000D02*
X152100000Y-74150000D01*
X153950000Y-75990000D02*
X153950000Y-75200000D01*
%TO.C,D4*%
X143365000Y-70000000D02*
X143365000Y-72285000D01*
X143365000Y-72285000D02*
X144835000Y-72285000D01*
X144835000Y-72285000D02*
X144835000Y-70000000D01*
%TO.C,D2*%
X155315000Y-64365000D02*
X155315000Y-65835000D01*
X155315000Y-65835000D02*
X157600000Y-65835000D01*
X157600000Y-64365000D02*
X155315000Y-64365000D01*
%TO.C,R1*%
X141620000Y-72153641D02*
X141620000Y-71846359D01*
X142380000Y-72153641D02*
X142380000Y-71846359D01*
%TO.C,U3*%
X117490000Y-71900000D02*
X117490000Y-71100000D01*
X117490000Y-71900000D02*
X117490000Y-72700000D01*
X120610000Y-71900000D02*
X120610000Y-71100000D01*
X120610000Y-71900000D02*
X120610000Y-72700000D01*
X117540000Y-73200000D02*
X117210000Y-73440000D01*
X117210000Y-72960000D01*
X117540000Y-73200000D01*
G36*
X117540000Y-73200000D02*
G01*
X117210000Y-73440000D01*
X117210000Y-72960000D01*
X117540000Y-73200000D01*
G37*
%TO.C,R4*%
X153237258Y-78477500D02*
X152762742Y-78477500D01*
X153237258Y-79522500D02*
X152762742Y-79522500D01*
%TO.C,R2*%
X143620000Y-74746359D02*
X143620000Y-75053641D01*
X144380000Y-74746359D02*
X144380000Y-75053641D01*
%TO.C,SW1*%
X146840000Y-68450000D02*
X152960000Y-68450000D01*
X146840000Y-72150000D02*
X146840000Y-68450000D01*
X152960000Y-68450000D02*
X152960000Y-72150000D01*
X152960000Y-72150000D02*
X146840000Y-72150000D01*
%TO.C,D1*%
X154615000Y-78265000D02*
X154615000Y-79735000D01*
X154615000Y-79735000D02*
X156900000Y-79735000D01*
X156900000Y-78265000D02*
X154615000Y-78265000D01*
%TO.C,R7*%
X114162742Y-70427500D02*
X114637258Y-70427500D01*
X114162742Y-71472500D02*
X114637258Y-71472500D01*
%TO.C,R6*%
X114162742Y-72377500D02*
X114637258Y-72377500D01*
X114162742Y-73422500D02*
X114637258Y-73422500D01*
%TO.C,D3*%
X141965000Y-74500000D02*
X141965000Y-76785000D01*
X141965000Y-76785000D02*
X143435000Y-76785000D01*
X143435000Y-76785000D02*
X143435000Y-74500000D01*
%TO.C,R5*%
X153937258Y-64577500D02*
X153462742Y-64577500D01*
X153937258Y-65622500D02*
X153462742Y-65622500D01*
%TD*%
M02*
