%TF.GenerationSoftware,KiCad,Pcbnew,8.0.6*%
%TF.CreationDate,2025-02-01T08:29:42+02:00*%
%TF.ProjectId,stm32,73746d33-322e-46b6-9963-61645f706362,rev?*%
%TF.SameCoordinates,Original*%
%TF.FileFunction,Copper,L1,Top*%
%TF.FilePolarity,Positive*%
%FSLAX46Y46*%
G04 Gerber Fmt 4.6, Leading zero omitted, Abs format (unit mm)*
G04 Created by KiCad (PCBNEW 8.0.6) date 2025-02-01 08:29:42*
%MOMM*%
%LPD*%
G01*
G04 APERTURE LIST*
G04 Aperture macros list*
%AMRoundRect*
0 Rectangle with rounded corners*
0 $1 Rounding radius*
0 $2 $3 $4 $5 $6 $7 $8 $9 X,Y pos of 4 corners*
0 Add a 4 corners polygon primitive as box body*
4,1,4,$2,$3,$4,$5,$6,$7,$8,$9,$2,$3,0*
0 Add four circle primitives for the rounded corners*
1,1,$1+$1,$2,$3*
1,1,$1+$1,$4,$5*
1,1,$1+$1,$6,$7*
1,1,$1+$1,$8,$9*
0 Add four rect primitives between the rounded corners*
20,1,$1+$1,$2,$3,$4,$5,0*
20,1,$1+$1,$4,$5,$6,$7,0*
20,1,$1+$1,$6,$7,$8,$9,0*
20,1,$1+$1,$8,$9,$2,$3,0*%
%AMRotRect*
0 Rectangle, with rotation*
0 The origin of the aperture is its center*
0 $1 length*
0 $2 width*
0 $3 Rotation angle, in degrees counterclockwise*
0 Add horizontal line*
21,1,$1,$2,0,0,$3*%
G04 Aperture macros list end*
%TA.AperFunction,SMDPad,CuDef*%
%ADD10RoundRect,0.100000X-0.575000X0.100000X-0.575000X-0.100000X0.575000X-0.100000X0.575000X0.100000X0*%
%TD*%
%TA.AperFunction,ComponentPad*%
%ADD11O,1.600000X0.900000*%
%TD*%
%TA.AperFunction,SMDPad,CuDef*%
%ADD12RoundRect,0.250000X-0.450000X0.550000X-0.450000X-0.550000X0.450000X-0.550000X0.450000X0.550000X0*%
%TD*%
%TA.AperFunction,SMDPad,CuDef*%
%ADD13RoundRect,0.250000X-0.700000X0.700000X-0.700000X-0.700000X0.700000X-0.700000X0.700000X0.700000X0*%
%TD*%
%TA.AperFunction,SMDPad,CuDef*%
%ADD14RoundRect,0.165000X-0.475000X0.165000X-0.475000X-0.165000X0.475000X-0.165000X0.475000X0.165000X0*%
%TD*%
%TA.AperFunction,ComponentPad*%
%ADD15R,1.700000X1.700000*%
%TD*%
%TA.AperFunction,ComponentPad*%
%ADD16O,1.700000X1.700000*%
%TD*%
%TA.AperFunction,SMDPad,CuDef*%
%ADD17RoundRect,0.200000X-0.275000X0.200000X-0.275000X-0.200000X0.275000X-0.200000X0.275000X0.200000X0*%
%TD*%
%TA.AperFunction,SMDPad,CuDef*%
%ADD18RoundRect,0.075000X0.415425X0.521491X-0.521491X-0.415425X-0.415425X-0.521491X0.521491X0.415425X0*%
%TD*%
%TA.AperFunction,SMDPad,CuDef*%
%ADD19RoundRect,0.075000X-0.415425X0.521491X-0.521491X0.415425X0.415425X-0.521491X0.521491X-0.415425X0*%
%TD*%
%TA.AperFunction,SMDPad,CuDef*%
%ADD20RotRect,1.400000X1.200000X315.000000*%
%TD*%
%TA.AperFunction,SMDPad,CuDef*%
%ADD21R,1.000000X0.800000*%
%TD*%
%TA.AperFunction,SMDPad,CuDef*%
%ADD22R,0.700000X1.500000*%
%TD*%
%TA.AperFunction,SMDPad,CuDef*%
%ADD23RoundRect,0.218750X0.256250X-0.218750X0.256250X0.218750X-0.256250X0.218750X-0.256250X-0.218750X0*%
%TD*%
%TA.AperFunction,SMDPad,CuDef*%
%ADD24RoundRect,0.100000X-0.021213X-0.162635X0.162635X0.021213X0.021213X0.162635X-0.162635X-0.021213X0*%
%TD*%
%TA.AperFunction,SMDPad,CuDef*%
%ADD25RoundRect,0.218750X-0.218750X-0.256250X0.218750X-0.256250X0.218750X0.256250X-0.218750X0.256250X0*%
%TD*%
%TA.AperFunction,SMDPad,CuDef*%
%ADD26RoundRect,0.100000X-0.100000X0.130000X-0.100000X-0.130000X0.100000X-0.130000X0.100000X0.130000X0*%
%TD*%
%TA.AperFunction,SMDPad,CuDef*%
%ADD27RoundRect,0.135000X0.185000X-0.135000X0.185000X0.135000X-0.185000X0.135000X-0.185000X-0.135000X0*%
%TD*%
%TA.AperFunction,SMDPad,CuDef*%
%ADD28RoundRect,0.150000X0.150000X-0.512500X0.150000X0.512500X-0.150000X0.512500X-0.150000X-0.512500X0*%
%TD*%
%TA.AperFunction,SMDPad,CuDef*%
%ADD29RoundRect,0.200000X0.200000X0.275000X-0.200000X0.275000X-0.200000X-0.275000X0.200000X-0.275000X0*%
%TD*%
%TA.AperFunction,SMDPad,CuDef*%
%ADD30RoundRect,0.135000X-0.185000X0.135000X-0.185000X-0.135000X0.185000X-0.135000X0.185000X0.135000X0*%
%TD*%
%TA.AperFunction,SMDPad,CuDef*%
%ADD31R,1.500000X1.500000*%
%TD*%
%TA.AperFunction,SMDPad,CuDef*%
%ADD32RoundRect,0.100000X-0.162635X0.021213X0.021213X-0.162635X0.162635X-0.021213X-0.021213X0.162635X0*%
%TD*%
%TA.AperFunction,SMDPad,CuDef*%
%ADD33RoundRect,0.100000X0.162635X-0.021213X-0.021213X0.162635X-0.162635X0.021213X0.021213X-0.162635X0*%
%TD*%
%TA.AperFunction,SMDPad,CuDef*%
%ADD34RoundRect,0.200000X-0.200000X-0.275000X0.200000X-0.275000X0.200000X0.275000X-0.200000X0.275000X0*%
%TD*%
%TA.AperFunction,ViaPad*%
%ADD35C,0.600000*%
%TD*%
%TA.AperFunction,ViaPad*%
%ADD36C,0.650000*%
%TD*%
%TA.AperFunction,ViaPad*%
%ADD37C,0.500000*%
%TD*%
%TA.AperFunction,ViaPad*%
%ADD38C,0.800000*%
%TD*%
%TA.AperFunction,Conductor*%
%ADD39C,0.200000*%
%TD*%
%TA.AperFunction,Conductor*%
%ADD40C,0.300000*%
%TD*%
%TA.AperFunction,Conductor*%
%ADD41C,0.400000*%
%TD*%
%TA.AperFunction,Conductor*%
%ADD42C,0.800000*%
%TD*%
%TA.AperFunction,Conductor*%
%ADD43C,0.500000*%
%TD*%
G04 APERTURE END LIST*
D10*
%TO.P,J2,1,VBUS*%
%TO.N,+5V*%
X111425000Y-70950000D03*
%TO.P,J2,2,D-*%
%TO.N,Net-(J2-D-)*%
X111425000Y-71600000D03*
%TO.P,J2,3,D+*%
%TO.N,Net-(J2-D+)*%
X111425000Y-72250000D03*
%TO.P,J2,4,ID*%
%TO.N,GND*%
X111425000Y-72900000D03*
%TO.P,J2,5,GND*%
X111425000Y-73550000D03*
D11*
%TO.P,J2,6,Shield*%
X108750000Y-68950000D03*
D12*
X111200000Y-69050000D03*
D13*
X108750000Y-71050000D03*
X108750000Y-73450000D03*
D12*
X111200000Y-75450000D03*
D11*
X108750000Y-75550000D03*
%TD*%
D14*
%TO.P,C7,1*%
%TO.N,+3V3*%
X154000000Y-66460000D03*
%TO.P,C7,2*%
%TO.N,GND*%
X154000000Y-67540000D03*
%TD*%
D15*
%TO.P,J3,1,Pin_1*%
%TO.N,GND*%
X156875000Y-68480000D03*
D16*
%TO.P,J3,2,Pin_2*%
%TO.N,SWCLK*%
X156875000Y-71020000D03*
%TO.P,J3,3,Pin_3*%
%TO.N,SWIO*%
X156875000Y-73560000D03*
%TO.P,J3,4,Pin_4*%
%TO.N,+3V3*%
X156875000Y-76100000D03*
%TD*%
D17*
%TO.P,R2,1*%
%TO.N,BOOT0*%
X145300000Y-74075000D03*
%TO.P,R2,2*%
%TO.N,Net-(SW2-B)*%
X145300000Y-75725000D03*
%TD*%
D18*
%TO.P,U1,1,VBAT*%
%TO.N,+3V3*%
X139637876Y-71521212D03*
%TO.P,U1,2,PC13*%
%TO.N,PC13*%
X139284322Y-71167658D03*
%TO.P,U1,3,PC14*%
%TO.N,PC14*%
X138930769Y-70814105D03*
%TO.P,U1,4,PC15*%
%TO.N,PC15*%
X138577215Y-70460551D03*
%TO.P,U1,5,PD0*%
%TO.N,OSC_IN*%
X138223662Y-70106998D03*
%TO.P,U1,6,PD1*%
%TO.N,OSC_OUT*%
X137870109Y-69753445D03*
%TO.P,U1,7,NRST*%
%TO.N,RESET*%
X137516555Y-69399891D03*
%TO.P,U1,8,VSSA*%
%TO.N,GND*%
X137163002Y-69046338D03*
%TO.P,U1,9,VDDA*%
%TO.N,+3V3*%
X136809449Y-68692785D03*
%TO.P,U1,10,PA0*%
%TO.N,PA0*%
X136455895Y-68339231D03*
%TO.P,U1,11,PA1*%
%TO.N,PA1*%
X136102342Y-67985678D03*
%TO.P,U1,12,PA2*%
%TO.N,PA2*%
X135748788Y-67632124D03*
D19*
%TO.P,U1,13,PA3*%
%TO.N,PA3*%
X133751212Y-67632124D03*
%TO.P,U1,14,PA4*%
%TO.N,PA4*%
X133397658Y-67985678D03*
%TO.P,U1,15,PA5*%
%TO.N,PA5*%
X133044105Y-68339231D03*
%TO.P,U1,16,PA6*%
%TO.N,PA6*%
X132690551Y-68692785D03*
%TO.P,U1,17,PA7*%
%TO.N,PA7*%
X132336998Y-69046338D03*
%TO.P,U1,18,PB0*%
%TO.N,PB0*%
X131983445Y-69399891D03*
%TO.P,U1,19,PB1*%
%TO.N,PB1*%
X131629891Y-69753445D03*
%TO.P,U1,20,PB2*%
%TO.N,GND*%
X131276338Y-70106998D03*
%TO.P,U1,21,PB10*%
%TO.N,PB10*%
X130922785Y-70460551D03*
%TO.P,U1,22,PB11*%
%TO.N,PB11*%
X130569231Y-70814105D03*
%TO.P,U1,23,VSS*%
%TO.N,GND*%
X130215678Y-71167658D03*
%TO.P,U1,24,VDD*%
%TO.N,+3V3*%
X129862124Y-71521212D03*
D18*
%TO.P,U1,25,PB12*%
%TO.N,PB12*%
X129862124Y-73518788D03*
%TO.P,U1,26,PB13*%
%TO.N,PB13*%
X130215678Y-73872342D03*
%TO.P,U1,27,PB14*%
%TO.N,PB14*%
X130569231Y-74225895D03*
%TO.P,U1,28,PB15*%
%TO.N,PB15*%
X130922785Y-74579449D03*
%TO.P,U1,29,PA8*%
%TO.N,PA8*%
X131276338Y-74933002D03*
%TO.P,U1,30,PA9*%
%TO.N,PA9*%
X131629891Y-75286555D03*
%TO.P,U1,31,PA10*%
%TO.N,PA10*%
X131983445Y-75640109D03*
%TO.P,U1,32,PA11*%
%TO.N,PA11*%
X132336998Y-75993662D03*
%TO.P,U1,33,PA12*%
%TO.N,PA12*%
X132690551Y-76347215D03*
%TO.P,U1,34,PA13*%
%TO.N,SWIO*%
X133044105Y-76700769D03*
%TO.P,U1,35,VSS*%
%TO.N,GND*%
X133397658Y-77054322D03*
%TO.P,U1,36,VDD*%
%TO.N,+3V3*%
X133751212Y-77407876D03*
D19*
%TO.P,U1,37,PA14*%
%TO.N,SWCLK*%
X135748788Y-77407876D03*
%TO.P,U1,38,PA15*%
%TO.N,PA15*%
X136102342Y-77054322D03*
%TO.P,U1,39,PB3*%
%TO.N,PB3*%
X136455895Y-76700769D03*
%TO.P,U1,40,PB4*%
%TO.N,PB4*%
X136809449Y-76347215D03*
%TO.P,U1,41,PB5*%
%TO.N,PB5*%
X137163002Y-75993662D03*
%TO.P,U1,42,PB6*%
%TO.N,PB6*%
X137516555Y-75640109D03*
%TO.P,U1,43,PB7*%
%TO.N,PB7*%
X137870109Y-75286555D03*
%TO.P,U1,44,BOOT0*%
%TO.N,BOOT0*%
X138223662Y-74933002D03*
%TO.P,U1,45,PB8*%
%TO.N,PB8*%
X138577215Y-74579449D03*
%TO.P,U1,46,PB9*%
%TO.N,PB9*%
X138930769Y-74225895D03*
%TO.P,U1,47,VSS*%
%TO.N,GND*%
X139284322Y-73872342D03*
%TO.P,U1,48,VDD*%
%TO.N,+3V3*%
X139637876Y-73518788D03*
%TD*%
D20*
%TO.P,Y2,1,1*%
%TO.N,PC15*%
X140656497Y-67187868D03*
%TO.P,Y2,2,2*%
%TO.N,GND*%
X142212132Y-68743503D03*
%TO.P,Y2,3,3*%
%TO.N,PC14*%
X143343503Y-67612132D03*
%TO.P,Y2,4,4*%
%TO.N,GND*%
X141787868Y-66056497D03*
%TD*%
D21*
%TO.P,SW2,*%
%TO.N,*%
X146850000Y-74490000D03*
X146850000Y-76700000D03*
X154150000Y-74490000D03*
X154150000Y-76700000D03*
D22*
%TO.P,SW2,1,A*%
%TO.N,+3V3*%
X148250000Y-73840000D03*
%TO.P,SW2,2,B*%
%TO.N,Net-(SW2-B)*%
X151250000Y-73840000D03*
%TO.P,SW2,3,C*%
%TO.N,GND*%
X152750000Y-73840000D03*
%TD*%
D23*
%TO.P,D4,1,A1*%
%TO.N,GND*%
X144100000Y-71587500D03*
%TO.P,D4,2,A2*%
%TO.N,RESET*%
X144100000Y-70012500D03*
%TD*%
D24*
%TO.P,C20,1*%
%TO.N,+3V3*%
X128373726Y-70626274D03*
%TO.P,C20,2*%
%TO.N,GND*%
X128826274Y-70173726D03*
%TD*%
D25*
%TO.P,D2,1,K*%
%TO.N,Net-(D2-K)*%
X156012500Y-65100000D03*
%TO.P,D2,2,A*%
%TO.N,+3V3*%
X157587500Y-65100000D03*
%TD*%
D26*
%TO.P,C1,1*%
%TO.N,RESET*%
X142900000Y-71480000D03*
%TO.P,C1,2*%
%TO.N,GND*%
X142900000Y-72120000D03*
%TD*%
D27*
%TO.P,R1,1*%
%TO.N,+3V3*%
X142000000Y-72510000D03*
%TO.P,R1,2*%
%TO.N,RESET*%
X142000000Y-71490000D03*
%TD*%
D28*
%TO.P,U3,1,I/O1*%
%TO.N,USB_IN+*%
X118100000Y-73037500D03*
%TO.P,U3,2,GND*%
%TO.N,GND*%
X119050000Y-73037500D03*
%TO.P,U3,3,I/O2*%
%TO.N,PB12*%
X120000000Y-73037500D03*
%TO.P,U3,4,I/O2*%
%TO.N,PB11*%
X120000000Y-70762500D03*
%TO.P,U3,5,VBUS*%
%TO.N,unconnected-(U3-VBUS-Pad5)*%
X119050000Y-70762500D03*
%TO.P,U3,6,I/O1*%
%TO.N,USB_IN-*%
X118100000Y-70762500D03*
%TD*%
D29*
%TO.P,R4,1*%
%TO.N,Net-(D1-K)*%
X153825000Y-79000000D03*
%TO.P,R4,2*%
%TO.N,GND*%
X152175000Y-79000000D03*
%TD*%
D30*
%TO.P,R2,1*%
%TO.N,BOOT0*%
X144000000Y-74390000D03*
%TO.P,R2,2*%
%TO.N,Net-(SW2-B)*%
X144000000Y-75410000D03*
%TD*%
D31*
%TO.P,SW1,1,1*%
%TO.N,GND*%
X153800000Y-70300000D03*
%TO.P,SW1,2,2*%
%TO.N,RESET*%
X146000000Y-70300000D03*
%TD*%
D32*
%TO.P,C15,1*%
%TO.N,GND*%
X139500000Y-67900000D03*
%TO.P,C15,2*%
%TO.N,PC15*%
X139952548Y-68352548D03*
%TD*%
D33*
%TO.P,C14,1*%
%TO.N,GND*%
X141026274Y-69426274D03*
%TO.P,C14,2*%
%TO.N,PC14*%
X140573726Y-68973726D03*
%TD*%
D25*
%TO.P,D1,1,K*%
%TO.N,Net-(D1-K)*%
X155312500Y-79000000D03*
%TO.P,D1,2,A*%
%TO.N,+3V3*%
X156887500Y-79000000D03*
%TD*%
D34*
%TO.P,R7,1*%
%TO.N,Net-(J2-D-)*%
X113575000Y-70950000D03*
%TO.P,R7,2*%
%TO.N,USB_IN-*%
X115225000Y-70950000D03*
%TD*%
%TO.P,R6,1*%
%TO.N,Net-(J2-D+)*%
X113575000Y-72900000D03*
%TO.P,R6,2*%
%TO.N,USB_IN+*%
X115225000Y-72900000D03*
%TD*%
D23*
%TO.P,D3,1,A1*%
%TO.N,GND*%
X142700000Y-76087500D03*
%TO.P,D3,2,A2*%
%TO.N,BOOT0*%
X142700000Y-74512500D03*
%TD*%
D24*
%TO.P,C19,1*%
%TO.N,+3V3*%
X140373726Y-72126274D03*
%TO.P,C19,2*%
%TO.N,GND*%
X140826274Y-71673726D03*
%TD*%
D29*
%TO.P,R5,1*%
%TO.N,Net-(D2-K)*%
X154525000Y-65100000D03*
%TO.P,R5,2*%
%TO.N,PC13*%
X152875000Y-65100000D03*
%TD*%
D15*
%TO.P,J4,1,Pin_1*%
%TO.N,+3V3*%
X157620000Y-82300000D03*
D16*
%TO.P,J4,2,Pin_2*%
%TO.N,GND*%
X155080000Y-82300000D03*
%TO.P,J4,3,Pin_3*%
%TO.N,+3V3*%
X152540000Y-82300000D03*
%TO.P,J4,4,Pin_4*%
%TO.N,PB9*%
X150000000Y-82300000D03*
%TO.P,J4,5,Pin_5*%
%TO.N,PB8*%
X147460000Y-82300000D03*
%TO.P,J4,6,Pin_6*%
%TO.N,PB7*%
X144920000Y-82300000D03*
%TO.P,J4,7,Pin_7*%
%TO.N,PB6*%
X142380000Y-82300000D03*
%TO.P,J4,8,Pin_8*%
%TO.N,PB5*%
X139840000Y-82300000D03*
%TO.P,J4,9,Pin_9*%
%TO.N,PB4*%
X137300000Y-82300000D03*
%TO.P,J4,10,Pin_10*%
%TO.N,PB3*%
X134760000Y-82300000D03*
%TO.P,J4,11,Pin_11*%
%TO.N,PA15*%
X132220000Y-82300000D03*
%TO.P,J4,12,Pin_12*%
%TO.N,PA12*%
X129680000Y-82300000D03*
%TO.P,J4,13,Pin_13*%
%TO.N,PA11*%
X127140000Y-82300000D03*
%TO.P,J4,14,Pin_14*%
%TO.N,PA10*%
X124600000Y-82300000D03*
%TO.P,J4,15,Pin_15*%
%TO.N,PA9*%
X122060000Y-82300000D03*
%TO.P,J4,16,Pin_16*%
%TO.N,PA8*%
X119520000Y-82300000D03*
%TO.P,J4,17,Pin_17*%
%TO.N,PB15*%
X116980000Y-82300000D03*
%TO.P,J4,18,Pin_18*%
%TO.N,PB14*%
X114440000Y-82300000D03*
%TO.P,J4,19,Pin_19*%
%TO.N,PB13*%
X111900000Y-82300000D03*
%TO.P,J4,20,Pin_20*%
%TO.N,PB12*%
X109360000Y-82300000D03*
%TD*%
D15*
%TO.P,J5,1,Pin_1*%
%TO.N,+3V3*%
X157600000Y-62100000D03*
D16*
%TO.P,J5,2,Pin_2*%
%TO.N,PC13*%
X155060000Y-62100000D03*
%TO.P,J5,3,Pin_3*%
%TO.N,PC14*%
X152520000Y-62100000D03*
%TO.P,J5,4,Pin_4*%
%TO.N,PC15*%
X149980000Y-62100000D03*
%TO.P,J5,5,Pin_5*%
%TO.N,PA0*%
X147440000Y-62100000D03*
%TO.P,J5,6,Pin_6*%
%TO.N,PA1*%
X144900000Y-62100000D03*
%TO.P,J5,7,Pin_7*%
%TO.N,PA2*%
X142360000Y-62100000D03*
%TO.P,J5,8,Pin_8*%
%TO.N,PA3*%
X139820000Y-62100000D03*
%TO.P,J5,9,Pin_9*%
%TO.N,PA4*%
X137280000Y-62100000D03*
%TO.P,J5,10,Pin_10*%
%TO.N,PA5*%
X134740000Y-62100000D03*
%TO.P,J5,11,Pin_11*%
%TO.N,PA6*%
X132200000Y-62100000D03*
%TO.P,J5,12,Pin_12*%
%TO.N,PA7*%
X129660000Y-62100000D03*
%TO.P,J5,13,Pin_13*%
%TO.N,PB0*%
X127120000Y-62100000D03*
%TO.P,J5,14,Pin_14*%
%TO.N,PB1*%
X124580000Y-62100000D03*
%TO.P,J5,15,Pin_15*%
%TO.N,PB10*%
X122040000Y-62100000D03*
%TO.P,J5,16,Pin_16*%
%TO.N,PB11*%
X119500000Y-62100000D03*
%TO.P,J5,17,Pin_17*%
%TO.N,RESET*%
X116960000Y-62100000D03*
%TO.P,J5,18,Pin_18*%
%TO.N,+3V3*%
X114420000Y-62100000D03*
%TO.P,J5,19,Pin_19*%
%TO.N,+5V*%
X111880000Y-62100000D03*
%TO.P,J5,20,Pin_20*%
%TO.N,GND*%
X109340000Y-62100000D03*
%TD*%
D35*
%TO.N,*%
X156400000Y-83700000D03*
X143900000Y-60800000D03*
X156400000Y-60800000D03*
X110800000Y-60800000D03*
X146400000Y-83700000D03*
X118500000Y-60800000D03*
X128700000Y-83700000D03*
X110800000Y-83700000D03*
X158700000Y-60800000D03*
X138800000Y-60800000D03*
X108300000Y-83700000D03*
X138800000Y-83700000D03*
X131200000Y-60800000D03*
X113400000Y-83700000D03*
X115900000Y-83700000D03*
X158700000Y-83700000D03*
X151500000Y-60800000D03*
X126100000Y-60800000D03*
X123600000Y-60800000D03*
X136300000Y-60800000D03*
X149000000Y-83700000D03*
X126100000Y-83700000D03*
X133700000Y-60800000D03*
X123600000Y-83700000D03*
X149000000Y-60800000D03*
X143900000Y-83700000D03*
X146400000Y-60800000D03*
X108300000Y-60800000D03*
X121000000Y-60800000D03*
X131200000Y-83700000D03*
X128700000Y-60800000D03*
X121000000Y-83700000D03*
X113400000Y-60800000D03*
X154000000Y-60800000D03*
X154000000Y-83700000D03*
X151500000Y-83700000D03*
X141400000Y-60800000D03*
X118500000Y-83700000D03*
X115900000Y-60800000D03*
X133700000Y-83700000D03*
X141400000Y-83700000D03*
%TO.N,GND*%
X143200000Y-65400000D03*
X111300000Y-77800000D03*
X124250000Y-67750000D03*
X124250000Y-65750000D03*
X141500000Y-69900000D03*
X133100000Y-71000000D03*
D36*
X145600000Y-78300000D03*
D35*
X117300000Y-63900000D03*
X121750000Y-67750000D03*
X108900000Y-66900000D03*
D36*
X144500000Y-77400000D03*
D35*
X135900000Y-73700000D03*
X135700000Y-71500000D03*
X118800000Y-65300000D03*
X108900000Y-79800000D03*
X136300000Y-83700000D03*
D36*
X147800000Y-78400000D03*
D35*
X138274374Y-73180786D03*
X108900000Y-77800000D03*
X111300000Y-64900000D03*
X121750000Y-65750000D03*
X132900000Y-73900000D03*
X118100000Y-64600000D03*
X111300000Y-66900000D03*
X108900000Y-64900000D03*
X126250000Y-67750000D03*
D37*
%TO.N,RESET*%
X141350000Y-71100000D03*
X136900000Y-70600000D03*
D38*
%TO.N,+5V*%
X112550000Y-70350000D03*
D37*
%TO.N,OSC_IN*%
X139171779Y-69088169D03*
%TO.N,OSC_OUT*%
X138600000Y-68400000D03*
D35*
%TO.N,SWCLK*%
X135100000Y-78500000D03*
%TO.N,SWIO*%
X132100000Y-78200000D03*
%TO.N,BOOT0*%
X137000000Y-74200000D03*
X141115380Y-73665380D03*
D37*
%TO.N,+3V3*%
X127700000Y-70400000D03*
D35*
X150000000Y-77650000D03*
D36*
X140800000Y-72600000D03*
D37*
X136000000Y-69450000D03*
D35*
X150025735Y-75425735D03*
D37*
X138850000Y-72700000D03*
D35*
X134926274Y-76026274D03*
%TO.N,USB_IN-*%
X116190000Y-70210000D03*
%TD*%
D39*
%TO.N,GND*%
X118050000Y-74800000D02*
X111850000Y-74800000D01*
D40*
X142212132Y-68743503D02*
X141709045Y-68743503D01*
D39*
X133100000Y-73200000D02*
X133100000Y-71000000D01*
D41*
X155935000Y-67540000D02*
X156875000Y-68480000D01*
D39*
X120265552Y-71800000D02*
X122265552Y-69800000D01*
X142700000Y-76087500D02*
X141499480Y-76087500D01*
D41*
X154000000Y-67540000D02*
X155935000Y-67540000D01*
D39*
X138661980Y-73250000D02*
X138343588Y-73250000D01*
X129026274Y-70373726D02*
X129421746Y-70373726D01*
X139500000Y-67900000D02*
X139100000Y-67500000D01*
D41*
X153200000Y-77000000D02*
X152175000Y-78025000D01*
D39*
X135280786Y-73180786D02*
X133100000Y-71000000D01*
X119050000Y-73037500D02*
X119050000Y-73800000D01*
X131276338Y-70106998D02*
X132169340Y-71000000D01*
X131400000Y-71800000D02*
X132184670Y-71015330D01*
X137800000Y-68409340D02*
X137163002Y-69046338D01*
D41*
X153800000Y-70300000D02*
X155055000Y-70300000D01*
D39*
X138400000Y-67500000D02*
X137800000Y-68100000D01*
D41*
X153200000Y-75350000D02*
X153200000Y-77000000D01*
D39*
X139100000Y-67500000D02*
X138400000Y-67500000D01*
X142543503Y-66056497D02*
X143200000Y-65400000D01*
X133100000Y-71000000D02*
X135227818Y-71000000D01*
X137163002Y-69064816D02*
X137163002Y-69046338D01*
X119050000Y-72150000D02*
X119400000Y-71800000D01*
D40*
X142900000Y-72120000D02*
X143567500Y-72120000D01*
D39*
X138343588Y-73250000D02*
X138274374Y-73180786D01*
D40*
X143567500Y-72120000D02*
X144100000Y-71587500D01*
D42*
X108750000Y-71050000D02*
X108750000Y-73450000D01*
D41*
X154700000Y-82300000D02*
X155080000Y-82300000D01*
D39*
X119050000Y-73037500D02*
X119050000Y-72150000D01*
D41*
X152750000Y-73840000D02*
X152750000Y-72350000D01*
D39*
X141787868Y-66056497D02*
X142543503Y-66056497D01*
X133942066Y-74042066D02*
X133100000Y-73200000D01*
D41*
X152175000Y-78025000D02*
X152175000Y-79000000D01*
X155055000Y-70300000D02*
X156875000Y-68480000D01*
D39*
X132184670Y-71015330D02*
X131276338Y-70106998D01*
D42*
X111100000Y-75550000D02*
X111200000Y-75450000D01*
D41*
X153800000Y-71300000D02*
X153800000Y-70300000D01*
D39*
X130848020Y-71800000D02*
X131400000Y-71800000D01*
X119050000Y-73800000D02*
X118050000Y-74800000D01*
X133397658Y-77054322D02*
X133942066Y-76509914D01*
D41*
X152750000Y-72350000D02*
X153800000Y-71300000D01*
X152175000Y-79775000D02*
X154700000Y-82300000D01*
D39*
X111850000Y-74800000D02*
X111200000Y-75450000D01*
D42*
X108750000Y-75550000D02*
X111100000Y-75550000D01*
X108750000Y-71050000D02*
X108750000Y-68950000D01*
D39*
X122265552Y-69800000D02*
X128452548Y-69800000D01*
D40*
X141709045Y-68743503D02*
X141026274Y-69426274D01*
D41*
X152175000Y-79000000D02*
X152175000Y-79775000D01*
D39*
X128452548Y-69800000D02*
X129026274Y-70373726D01*
D40*
X141026274Y-69426274D02*
X141500000Y-69900000D01*
D39*
X137800000Y-68100000D02*
X137800000Y-68409340D01*
X132169340Y-71000000D02*
X133100000Y-71000000D01*
D41*
X108750000Y-73450000D02*
X108750000Y-75550000D01*
D39*
X138274374Y-73180786D02*
X135280786Y-73180786D01*
D41*
X152750000Y-74900000D02*
X153200000Y-75350000D01*
D39*
X141499480Y-76087500D02*
X139284322Y-73872342D01*
X129421746Y-70373726D02*
X130215678Y-71167658D01*
X139284322Y-73872342D02*
X138661980Y-73250000D01*
D41*
X152750000Y-74900000D02*
X152750000Y-73840000D01*
D39*
X135227818Y-71000000D02*
X137163002Y-69064816D01*
X119400000Y-71800000D02*
X120265552Y-71800000D01*
X133942066Y-76509914D02*
X133942066Y-74042066D01*
X130215678Y-71167658D02*
X130848020Y-71800000D01*
%TO.N,RESET*%
X142010000Y-71480000D02*
X142000000Y-71490000D01*
X145800000Y-70100000D02*
X144187500Y-70100000D01*
X144100000Y-70012500D02*
X144100000Y-70600000D01*
X144187500Y-70100000D02*
X144100000Y-70012500D01*
X142900000Y-71100000D02*
X142900000Y-71480000D01*
X143150000Y-70850000D02*
X142900000Y-71100000D01*
X144100000Y-70600000D02*
X143850000Y-70850000D01*
X143850000Y-70850000D02*
X143150000Y-70850000D01*
X146000000Y-70300000D02*
X145800000Y-70100000D01*
X141590000Y-71490000D02*
X141350000Y-71250000D01*
D40*
X136900000Y-70016446D02*
X137516555Y-69399891D01*
D39*
X142900000Y-71480000D02*
X142010000Y-71480000D01*
X142000000Y-71490000D02*
X141590000Y-71490000D01*
X141350000Y-71250000D02*
X141350000Y-71100000D01*
D40*
X136900000Y-70600000D02*
X136900000Y-70016446D01*
D41*
%TO.N,+5V*%
X112550000Y-70650000D02*
X112250000Y-70950000D01*
X112250000Y-70950000D02*
X111425000Y-70950000D01*
X112550000Y-70350000D02*
X112550000Y-70650000D01*
D39*
%TO.N,OSC_IN*%
X139171779Y-69088169D02*
X139171779Y-69158881D01*
X139171779Y-69158881D02*
X138223662Y-70106998D01*
%TO.N,OSC_OUT*%
X138629974Y-68993580D02*
X137870109Y-69753445D01*
X138600000Y-68400000D02*
X138629974Y-68429974D01*
X138629974Y-68429974D02*
X138629974Y-68993580D01*
%TO.N,PC14*%
X143231371Y-67500000D02*
X143343503Y-67612132D01*
X140573726Y-68826274D02*
X141900000Y-67500000D01*
X140432305Y-69115147D02*
X140432305Y-69312569D01*
X141900000Y-67500000D02*
X143231371Y-67500000D01*
X143343503Y-67612132D02*
X143343503Y-67556497D01*
X140432305Y-69312569D02*
X138930769Y-70814105D01*
X143343503Y-67556497D02*
X145450000Y-65450000D01*
X140573726Y-68973726D02*
X140432305Y-69115147D01*
X145450000Y-65450000D02*
X149170000Y-65450000D01*
X140573726Y-68973726D02*
X140573726Y-68826274D01*
X149170000Y-65450000D02*
X152520000Y-62100000D01*
%TO.N,PC15*%
X140400000Y-66931371D02*
X140656497Y-67187868D01*
X140656497Y-67187868D02*
X140656497Y-67648599D01*
X147280000Y-64800000D02*
X141200000Y-64800000D01*
X141200000Y-64800000D02*
X140400000Y-65600000D01*
X140400000Y-65600000D02*
X140400000Y-66931371D01*
X149980000Y-62100000D02*
X147280000Y-64800000D01*
X139952548Y-68352548D02*
X139952548Y-69085218D01*
X140656497Y-67648599D02*
X139952548Y-68352548D01*
X139952548Y-69085218D02*
X138577215Y-70460551D01*
D41*
%TO.N,Net-(D1-K)*%
X155312500Y-79000000D02*
X153825000Y-79000000D01*
D39*
%TO.N,Net-(D2-K)*%
X154525000Y-65100000D02*
X156012500Y-65100000D01*
D40*
%TO.N,Net-(J2-D+)*%
X111425000Y-72250000D02*
X112925000Y-72250000D01*
X112925000Y-72250000D02*
X113575000Y-72900000D01*
%TO.N,Net-(J2-D-)*%
X111425000Y-71600000D02*
X112925000Y-71600000D01*
X112925000Y-71600000D02*
X113575000Y-70950000D01*
%TO.N,SWCLK*%
X135100000Y-78500000D02*
X135100000Y-78056664D01*
X135100000Y-78056664D02*
X135748788Y-77407876D01*
%TO.N,SWIO*%
X132100000Y-78200000D02*
X132100000Y-77644874D01*
X132100000Y-77644874D02*
X133044105Y-76700769D01*
D39*
%TO.N,PB9*%
X147700000Y-80000000D02*
X150000000Y-82300000D01*
X144704874Y-80000000D02*
X147700000Y-80000000D01*
X138930769Y-74225895D02*
X144704874Y-80000000D01*
%TO.N,PA8*%
X119520000Y-82300000D02*
X124570000Y-77250000D01*
X128959340Y-77250000D02*
X131276338Y-74933002D01*
X124570000Y-77250000D02*
X128959340Y-77250000D01*
%TO.N,PB13*%
X119150000Y-75650000D02*
X112500000Y-82300000D01*
X129600000Y-74450000D02*
X128400000Y-75650000D01*
X112500000Y-82300000D02*
X111900000Y-82300000D01*
X128400000Y-75650000D02*
X119150000Y-75650000D01*
X129638020Y-74450000D02*
X129600000Y-74450000D01*
X130215678Y-73872342D02*
X129638020Y-74450000D01*
%TO.N,PB8*%
X144443654Y-80445888D02*
X145605888Y-80445888D01*
X145605888Y-80445888D02*
X147460000Y-82300000D01*
X138577215Y-74579449D02*
X144443654Y-80445888D01*
%TO.N,PA9*%
X122060000Y-82300000D02*
X126610000Y-77750000D01*
X129166446Y-77750000D02*
X131629891Y-75286555D01*
X126610000Y-77750000D02*
X129166446Y-77750000D01*
%TO.N,PB6*%
X142380000Y-80503554D02*
X142380000Y-82300000D01*
X137516555Y-75640109D02*
X142380000Y-80503554D01*
%TO.N,PA12*%
X129680000Y-79357766D02*
X132690551Y-76347215D01*
X129680000Y-82300000D02*
X129680000Y-79357766D01*
%TO.N,PA11*%
X127140000Y-82300000D02*
X127140000Y-81190660D01*
X127140000Y-81190660D02*
X132336998Y-75993662D01*
%TO.N,PB12*%
X122840671Y-74450000D02*
X122781972Y-74450000D01*
D40*
X120000000Y-73600000D02*
X120000000Y-73037500D01*
D39*
X129862124Y-73518788D02*
X128930912Y-74450000D01*
X122960671Y-74450000D02*
X122840671Y-74450000D01*
D40*
X115160000Y-76500000D02*
X117350000Y-76500000D01*
D39*
X122781972Y-74450000D02*
X120650000Y-74450000D01*
X120650000Y-74450000D02*
X120000000Y-73800000D01*
X128930912Y-74450000D02*
X124040671Y-74450000D01*
X123200671Y-75010000D02*
X123200671Y-74690000D01*
X120000000Y-73800000D02*
X120000000Y-73600000D01*
X123800671Y-74690000D02*
X123800671Y-75010000D01*
X123560671Y-75250000D02*
X123440671Y-75250000D01*
D40*
X109360000Y-82300000D02*
X115160000Y-76500000D01*
X120000000Y-73850000D02*
X120000000Y-73600000D01*
X117350000Y-76500000D02*
X120000000Y-73850000D01*
D39*
X124040671Y-74450000D02*
G75*
G03*
X123800700Y-74690000I29J-240000D01*
G01*
X123800671Y-75010000D02*
G75*
G02*
X123560671Y-75249971I-239971J0D01*
G01*
X123440671Y-75250000D02*
G75*
G02*
X123200700Y-75010000I29J240000D01*
G01*
X123200671Y-74690000D02*
G75*
G03*
X122960671Y-74450029I-239971J0D01*
G01*
%TO.N,PB3*%
X137300000Y-77544874D02*
X137300000Y-79760000D01*
X137300000Y-79760000D02*
X134760000Y-82300000D01*
X136455895Y-76700769D02*
X137300000Y-77544874D01*
%TO.N,PA15*%
X136800000Y-77751980D02*
X136800000Y-78400000D01*
X136800000Y-78400000D02*
X132900000Y-82300000D01*
X136102342Y-77054322D02*
X136800000Y-77751980D01*
X132900000Y-82300000D02*
X132220000Y-82300000D01*
%TO.N,PB15*%
X122530000Y-76750000D02*
X128752234Y-76750000D01*
X128752234Y-76750000D02*
X130922785Y-74579449D01*
X116980000Y-82300000D02*
X122530000Y-76750000D01*
%TO.N,PB7*%
X137870109Y-75286555D02*
X137906555Y-75286555D01*
X137906555Y-75286555D02*
X144920000Y-82300000D01*
%TO.N,PB4*%
X138150000Y-77687766D02*
X138150000Y-81450000D01*
X136809449Y-76347215D02*
X138150000Y-77687766D01*
X138150000Y-81450000D02*
X137300000Y-82300000D01*
%TO.N,PB5*%
X137163002Y-75993662D02*
X139840000Y-78670660D01*
X139840000Y-78670660D02*
X139840000Y-82300000D01*
%TO.N,PA10*%
X124600000Y-82300000D02*
X128650000Y-78250000D01*
X129373554Y-78250000D02*
X131983445Y-75640109D01*
X128650000Y-78250000D02*
X129373554Y-78250000D01*
%TO.N,PB14*%
X128545126Y-76250000D02*
X130569231Y-74225895D01*
X114440000Y-82300000D02*
X120490000Y-76250000D01*
X120490000Y-76250000D02*
X128545126Y-76250000D01*
%TO.N,PA0*%
X140400000Y-64400000D02*
X145140000Y-64400000D01*
X138938480Y-65861520D02*
X140400000Y-64400000D01*
X136455895Y-68339231D02*
X138933606Y-65861520D01*
X138933606Y-65861520D02*
X138938480Y-65861520D01*
X145140000Y-64400000D02*
X147440000Y-62100000D01*
%TO.N,PA5*%
X131550000Y-66845126D02*
X131550000Y-65290000D01*
X131550000Y-65290000D02*
X134740000Y-62100000D01*
X133044105Y-68339231D02*
X131550000Y-66845126D01*
%TO.N,PB1*%
X131629891Y-69753445D02*
X124580000Y-62703554D01*
X124580000Y-62703554D02*
X124580000Y-62100000D01*
%TO.N,PA4*%
X135450000Y-63900000D02*
X137250000Y-62100000D01*
X137250000Y-62100000D02*
X137280000Y-62100000D01*
X133397658Y-67985678D02*
X132100000Y-66688020D01*
X132100000Y-65900000D02*
X134100000Y-63900000D01*
X132100000Y-66688020D02*
X132100000Y-65900000D01*
X134100000Y-63900000D02*
X135450000Y-63900000D01*
%TO.N,PB0*%
X127120000Y-64536446D02*
X127120000Y-62100000D01*
X131983445Y-69399891D02*
X127120000Y-64536446D01*
%TO.N,PA1*%
X140150000Y-63950000D02*
X142550000Y-63950000D01*
X142550000Y-63950000D02*
X144400000Y-62100000D01*
X136658730Y-67441270D02*
X140150000Y-63950000D01*
X136646750Y-67441270D02*
X136658730Y-67441270D01*
X136102342Y-67985678D02*
X136646750Y-67441270D01*
X144400000Y-62100000D02*
X144900000Y-62100000D01*
%TO.N,PA3*%
X133751212Y-67632124D02*
X133050000Y-66930912D01*
X133050000Y-66930912D02*
X133050000Y-65950000D01*
X137420000Y-64500000D02*
X139820000Y-62100000D01*
X133050000Y-65950000D02*
X134500000Y-64500000D01*
X134500000Y-64500000D02*
X137420000Y-64500000D01*
%TO.N,PA6*%
X130700000Y-64150000D02*
X132200000Y-62650000D01*
X132200000Y-62650000D02*
X132200000Y-62100000D01*
X132690551Y-68692785D02*
X130700000Y-66702234D01*
X130700000Y-66702234D02*
X130700000Y-64150000D01*
%TO.N,PB10*%
X130922785Y-70460551D02*
X122562234Y-62100000D01*
X122562234Y-62100000D02*
X122040000Y-62100000D01*
%TO.N,PA7*%
X132336998Y-69046338D02*
X129660000Y-66369340D01*
X129660000Y-66369340D02*
X129660000Y-62100000D01*
%TO.N,PB11*%
X122100000Y-69200000D02*
X128955126Y-69200000D01*
X128955126Y-69200000D02*
X130569231Y-70814105D01*
X120000000Y-70762500D02*
X120537500Y-70762500D01*
X120537500Y-70762500D02*
X122100000Y-69200000D01*
%TO.N,PA2*%
X139930912Y-63450000D02*
X141010000Y-63450000D01*
X141010000Y-63450000D02*
X142360000Y-62100000D01*
X135748788Y-67632124D02*
X139930912Y-63450000D01*
%TO.N,PC13*%
X139901980Y-70550000D02*
X139284322Y-71167658D01*
X155060000Y-62100000D02*
X152875000Y-64285000D01*
X152200000Y-65100000D02*
X150850000Y-66450000D01*
X142050000Y-70550000D02*
X139901980Y-70550000D01*
X150850000Y-66450000D02*
X146150000Y-66450000D01*
X152875000Y-65100000D02*
X152200000Y-65100000D01*
X152875000Y-64285000D02*
X152875000Y-65100000D01*
X146150000Y-66450000D02*
X142050000Y-70550000D01*
%TO.N,BOOT0*%
X137000000Y-74200000D02*
X137490660Y-74200000D01*
X145300000Y-74075000D02*
X144315000Y-74075000D01*
X141115380Y-73665380D02*
X141962500Y-74512500D01*
X137490660Y-74200000D02*
X138223662Y-74933002D01*
X142822500Y-74390000D02*
X142700000Y-74512500D01*
X144000000Y-74390000D02*
X142822500Y-74390000D01*
X144315000Y-74075000D02*
X144000000Y-74390000D01*
X141962500Y-74512500D02*
X142700000Y-74512500D01*
%TO.N,+3V3*%
X136757215Y-68692785D02*
X136000000Y-69450000D01*
X142140000Y-72650000D02*
X142000000Y-72510000D01*
D40*
X134926274Y-76026274D02*
X134926274Y-76232814D01*
D39*
X129862124Y-71521212D02*
X129240912Y-70900000D01*
D40*
X134926274Y-76232814D02*
X133751212Y-77407876D01*
D39*
X147975000Y-72650000D02*
X142140000Y-72650000D01*
D43*
X150000000Y-79760000D02*
X152540000Y-82300000D01*
D41*
X156875000Y-81555000D02*
X157620000Y-82300000D01*
D43*
X150025735Y-75425735D02*
X150050000Y-75401470D01*
D41*
X157600000Y-62100000D02*
X157600000Y-65087500D01*
X157600000Y-65087500D02*
X157587500Y-65100000D01*
D40*
X140373726Y-72126274D02*
X140242938Y-72126274D01*
D43*
X150050000Y-75401470D02*
X150050000Y-69350000D01*
D39*
X148250000Y-72925000D02*
X147975000Y-72650000D01*
D41*
X156875000Y-76100000D02*
X156875000Y-81555000D01*
D39*
X142000000Y-72510000D02*
X140890000Y-72510000D01*
D43*
X152940000Y-66460000D02*
X154000000Y-66460000D01*
X150050000Y-69350000D02*
X152940000Y-66460000D01*
D41*
X154000000Y-66460000D02*
X156940000Y-66460000D01*
D40*
X140800000Y-72552548D02*
X140373726Y-72126274D01*
D39*
X128147452Y-70400000D02*
X127700000Y-70400000D01*
D41*
X157587500Y-65812500D02*
X157587500Y-65100000D01*
D39*
X128647452Y-70900000D02*
X128147452Y-70400000D01*
D40*
X138850000Y-72730912D02*
X139637876Y-73518788D01*
D41*
X156940000Y-66460000D02*
X157587500Y-65812500D01*
D39*
X129240912Y-70900000D02*
X128647452Y-70900000D01*
D40*
X140242938Y-72126274D02*
X139637876Y-71521212D01*
X138850000Y-72700000D02*
X138850000Y-72730912D01*
D39*
X140890000Y-72510000D02*
X140800000Y-72600000D01*
D40*
X140800000Y-72600000D02*
X140800000Y-72552548D01*
D39*
X148250000Y-73840000D02*
X148250000Y-72925000D01*
X136809449Y-68692785D02*
X136757215Y-68692785D01*
D43*
X150000000Y-77650000D02*
X150000000Y-79760000D01*
D39*
%TO.N,Net-(SW2-B)*%
X151250000Y-73840000D02*
X151250000Y-75150000D01*
X151250000Y-75150000D02*
X149800000Y-76600000D01*
X144315000Y-75725000D02*
X144000000Y-75410000D01*
X148500000Y-76600000D02*
X147600000Y-75700000D01*
X149800000Y-76600000D02*
X148500000Y-76600000D01*
X147600000Y-75700000D02*
X145775000Y-75700000D01*
X145300000Y-75725000D02*
X144315000Y-75725000D01*
D40*
%TO.N,USB_IN+*%
X115225000Y-72900000D02*
X117962500Y-72900000D01*
X117962500Y-72900000D02*
X118100000Y-73037500D01*
%TO.N,USB_IN-*%
X115225000Y-70950000D02*
X116300000Y-70950000D01*
X116050000Y-70950000D02*
X115225000Y-70950000D01*
X116200000Y-70800000D02*
X116050000Y-70950000D01*
X117912500Y-70950000D02*
X118100000Y-70762500D01*
X116300000Y-70950000D02*
X117912500Y-70950000D01*
X116190000Y-70210000D02*
X116190000Y-70790000D01*
X116190000Y-70790000D02*
X116200000Y-70800000D01*
%TD*%
%TA.AperFunction,Conductor*%
%TO.N,GND*%
G36*
X155330000Y-83630633D02*
G01*
X155538262Y-83574832D01*
X155608112Y-83576495D01*
X155665974Y-83615658D01*
X155693478Y-83679886D01*
X155694355Y-83694607D01*
X155694355Y-83699998D01*
X155707779Y-83810553D01*
X155696319Y-83879477D01*
X155649415Y-83931263D01*
X155584683Y-83949500D01*
X154815317Y-83949500D01*
X154748278Y-83929815D01*
X154702523Y-83877011D01*
X154692221Y-83810555D01*
X154692221Y-83810553D01*
X154700503Y-83742346D01*
X154728123Y-83678170D01*
X154786057Y-83639113D01*
X154819962Y-83638336D01*
X154830000Y-83630634D01*
X154830000Y-82733012D01*
X154887007Y-82765925D01*
X155014174Y-82800000D01*
X155145826Y-82800000D01*
X155272993Y-82765925D01*
X155330000Y-82733012D01*
X155330000Y-83630633D01*
G37*
%TD.AperFunction*%
%TA.AperFunction,Conductor*%
G36*
X109000000Y-73200000D02*
G01*
X110136341Y-73200000D01*
X110203380Y-73219685D01*
X110249135Y-73272489D01*
X110259280Y-73340186D01*
X110257987Y-73349999D01*
X110257988Y-73350000D01*
X111225000Y-73350000D01*
X111225000Y-72974499D01*
X111244685Y-72907460D01*
X111297489Y-72861705D01*
X111348997Y-72850499D01*
X111501001Y-72850499D01*
X111568039Y-72870184D01*
X111613794Y-72922988D01*
X111625000Y-72974499D01*
X111625000Y-73350000D01*
X112592010Y-73350000D01*
X112600106Y-73340768D01*
X112659108Y-73303343D01*
X112728976Y-73303759D01*
X112787529Y-73341882D01*
X112807896Y-73375073D01*
X112837571Y-73446716D01*
X112850464Y-73477841D01*
X112946718Y-73603282D01*
X113072159Y-73699536D01*
X113218238Y-73760044D01*
X113335639Y-73775500D01*
X113814360Y-73775499D01*
X113814363Y-73775499D01*
X113931753Y-73760046D01*
X113931757Y-73760044D01*
X113931762Y-73760044D01*
X114077841Y-73699536D01*
X114203282Y-73603282D01*
X114299536Y-73477841D01*
X114299535Y-73477841D01*
X114301624Y-73475120D01*
X114358052Y-73433917D01*
X114427798Y-73429762D01*
X114488718Y-73463974D01*
X114498376Y-73475120D01*
X114588906Y-73593102D01*
X114596718Y-73603282D01*
X114722159Y-73699536D01*
X114868238Y-73760044D01*
X114985639Y-73775500D01*
X115464360Y-73775499D01*
X115464363Y-73775499D01*
X115581753Y-73760046D01*
X115581757Y-73760044D01*
X115581762Y-73760044D01*
X115727841Y-73699536D01*
X115853282Y-73603282D01*
X115933290Y-73499012D01*
X115989718Y-73457811D01*
X116031666Y-73450500D01*
X117275500Y-73450500D01*
X117342539Y-73470185D01*
X117388294Y-73522989D01*
X117399500Y-73574500D01*
X117399500Y-73593102D01*
X117404201Y-73632247D01*
X117410122Y-73681561D01*
X117410122Y-73681563D01*
X117410123Y-73681564D01*
X117419110Y-73704354D01*
X117465639Y-73822343D01*
X117557077Y-73942922D01*
X117677656Y-74034360D01*
X117677657Y-74034360D01*
X117677658Y-74034361D01*
X117818436Y-74089877D01*
X117906898Y-74100500D01*
X117906903Y-74100500D01*
X118293097Y-74100500D01*
X118293102Y-74100500D01*
X118381564Y-74089877D01*
X118417786Y-74075592D01*
X118487369Y-74069309D01*
X118526397Y-74084214D01*
X118639802Y-74151282D01*
X118655722Y-74155907D01*
X118714608Y-74193514D01*
X118743815Y-74256986D01*
X118734069Y-74326173D01*
X118708809Y-74362665D01*
X117158294Y-75913181D01*
X117096971Y-75946666D01*
X117070613Y-75949500D01*
X115087525Y-75949500D01*
X114970022Y-75980985D01*
X114970021Y-75980984D01*
X114947517Y-75987015D01*
X114947512Y-75987017D01*
X114821989Y-76059487D01*
X114821984Y-76059491D01*
X109817648Y-81063825D01*
X109756325Y-81097310D01*
X109697874Y-81095919D01*
X109577977Y-81063793D01*
X109360002Y-81044723D01*
X109359998Y-81044723D01*
X109245879Y-81054707D01*
X109142023Y-81063793D01*
X109142020Y-81063793D01*
X108930677Y-81120422D01*
X108930670Y-81120424D01*
X108930670Y-81120425D01*
X108917859Y-81126399D01*
X108732361Y-81212898D01*
X108732357Y-81212900D01*
X108553121Y-81338402D01*
X108398402Y-81493121D01*
X108272900Y-81672357D01*
X108272898Y-81672361D01*
X108180426Y-81870668D01*
X108180422Y-81870677D01*
X108123793Y-82082020D01*
X108123793Y-82082024D01*
X108104723Y-82299997D01*
X108104723Y-82300002D01*
X108123793Y-82517975D01*
X108123793Y-82517979D01*
X108180422Y-82729322D01*
X108180424Y-82729326D01*
X108180425Y-82729330D01*
X108197490Y-82765925D01*
X108233232Y-82842575D01*
X108243724Y-82911653D01*
X108215204Y-82975437D01*
X108156727Y-83013676D01*
X108150525Y-83015377D01*
X108049775Y-83040209D01*
X107982125Y-83075715D01*
X107913617Y-83089439D01*
X107848564Y-83063947D01*
X107807620Y-83007331D01*
X107800500Y-82965918D01*
X107800500Y-76515530D01*
X107820185Y-76448491D01*
X107872989Y-76402736D01*
X107942147Y-76392792D01*
X107971953Y-76400969D01*
X108122894Y-76463491D01*
X108122902Y-76463493D01*
X108306428Y-76499999D01*
X108306431Y-76500000D01*
X108500000Y-76500000D01*
X108500000Y-75800000D01*
X109000000Y-75800000D01*
X109000000Y-76500000D01*
X109193569Y-76500000D01*
X109193571Y-76499999D01*
X109377097Y-76463493D01*
X109377105Y-76463491D01*
X109549991Y-76391880D01*
X109550000Y-76391875D01*
X109705588Y-76287914D01*
X109826107Y-76167395D01*
X109887430Y-76133910D01*
X109957122Y-76138894D01*
X110013056Y-76180765D01*
X110031495Y-76216072D01*
X110065641Y-76319119D01*
X110065643Y-76319124D01*
X110157684Y-76468345D01*
X110281654Y-76592315D01*
X110430875Y-76684356D01*
X110430880Y-76684358D01*
X110597302Y-76739505D01*
X110597309Y-76739506D01*
X110700019Y-76749999D01*
X110949999Y-76749999D01*
X111450000Y-76749999D01*
X111699972Y-76749999D01*
X111699986Y-76749998D01*
X111802697Y-76739505D01*
X111969119Y-76684358D01*
X111969124Y-76684356D01*
X112118345Y-76592315D01*
X112242315Y-76468345D01*
X112334356Y-76319124D01*
X112334358Y-76319119D01*
X112389505Y-76152697D01*
X112389506Y-76152690D01*
X112399999Y-76049986D01*
X112400000Y-76049973D01*
X112400000Y-75700000D01*
X111450000Y-75700000D01*
X111450000Y-76749999D01*
X110949999Y-76749999D01*
X110950000Y-76749998D01*
X110950000Y-75700000D01*
X110093000Y-75700000D01*
X110083023Y-75709976D01*
X110073315Y-75743039D01*
X110020511Y-75788794D01*
X109969000Y-75800000D01*
X109149728Y-75800000D01*
X109241614Y-75761940D01*
X109311940Y-75691614D01*
X109350000Y-75599728D01*
X109350000Y-75500272D01*
X109311940Y-75408386D01*
X109241614Y-75338060D01*
X109149728Y-75300000D01*
X109957000Y-75300000D01*
X109966976Y-75290023D01*
X109976685Y-75256961D01*
X110029489Y-75211206D01*
X110081000Y-75200000D01*
X112399999Y-75200000D01*
X112399999Y-74850028D01*
X112399998Y-74850013D01*
X112389505Y-74747302D01*
X112334358Y-74580880D01*
X112334356Y-74580875D01*
X112242315Y-74431654D01*
X112209073Y-74398412D01*
X112175588Y-74337089D01*
X112180572Y-74267397D01*
X112222444Y-74211464D01*
X112249304Y-74196169D01*
X112302586Y-74174099D01*
X112427924Y-74077924D01*
X112524100Y-73952586D01*
X112584555Y-73806631D01*
X112592012Y-73750000D01*
X110301362Y-73750000D01*
X110234323Y-73730315D01*
X110213681Y-73713681D01*
X110200000Y-73700000D01*
X109000000Y-73700000D01*
X109000000Y-75300000D01*
X108500000Y-75300000D01*
X108500000Y-69200000D01*
X109000000Y-69200000D01*
X109000000Y-73200000D01*
G37*
%TD.AperFunction*%
%TA.AperFunction,Conductor*%
G36*
X159151436Y-61436052D02*
G01*
X159192380Y-61492667D01*
X159199500Y-61534081D01*
X159199500Y-82965918D01*
X159179815Y-83032957D01*
X159127011Y-83078712D01*
X159057853Y-83088656D01*
X159017875Y-83075715D01*
X158943585Y-83036725D01*
X158944206Y-83035541D01*
X158894817Y-82998135D01*
X158870767Y-82932535D01*
X158870499Y-82924382D01*
X158870499Y-81418482D01*
X158864351Y-81379663D01*
X158855646Y-81324696D01*
X158798050Y-81211658D01*
X158798046Y-81211654D01*
X158798045Y-81211652D01*
X158708347Y-81121954D01*
X158708344Y-81121952D01*
X158708342Y-81121950D01*
X158623593Y-81078768D01*
X158595301Y-81064352D01*
X158501524Y-81049500D01*
X158501519Y-81049500D01*
X157599500Y-81049500D01*
X157532461Y-81029815D01*
X157486706Y-80977011D01*
X157475500Y-80925500D01*
X157475500Y-79814115D01*
X157495185Y-79747076D01*
X157511819Y-79726434D01*
X157599438Y-79638814D01*
X157599443Y-79638809D01*
X157679087Y-79504139D01*
X157722737Y-79353892D01*
X157725500Y-79318787D01*
X157725499Y-78681214D01*
X157722737Y-78646108D01*
X157679087Y-78495861D01*
X157603983Y-78368868D01*
X157599445Y-78361194D01*
X157599438Y-78361185D01*
X157511819Y-78273566D01*
X157478334Y-78212243D01*
X157475500Y-78185885D01*
X157475500Y-77270655D01*
X157495185Y-77203616D01*
X157528373Y-77169082D01*
X157681877Y-77061598D01*
X157836598Y-76906877D01*
X157962102Y-76727639D01*
X158054575Y-76529330D01*
X158111207Y-76317977D01*
X158130277Y-76100000D01*
X158130233Y-76099500D01*
X158123225Y-76019392D01*
X158111207Y-75882023D01*
X158054951Y-75672072D01*
X158054577Y-75670677D01*
X158054576Y-75670676D01*
X158054575Y-75670670D01*
X157962102Y-75472362D01*
X157962100Y-75472359D01*
X157962099Y-75472357D01*
X157836599Y-75293124D01*
X157761520Y-75218045D01*
X157681877Y-75138402D01*
X157502639Y-75012898D01*
X157351414Y-74942381D01*
X157298977Y-74896210D01*
X157279825Y-74829016D01*
X157300041Y-74762135D01*
X157351414Y-74717618D01*
X157502639Y-74647102D01*
X157681877Y-74521598D01*
X157836598Y-74366877D01*
X157962102Y-74187639D01*
X158054575Y-73989330D01*
X158111207Y-73777977D01*
X158128576Y-73579440D01*
X158130277Y-73560002D01*
X158130277Y-73559997D01*
X158126569Y-73517618D01*
X158111207Y-73342023D01*
X158060517Y-73152847D01*
X158054577Y-73130677D01*
X158054576Y-73130676D01*
X158054575Y-73130670D01*
X157962102Y-72932362D01*
X157962100Y-72932359D01*
X157962099Y-72932357D01*
X157836599Y-72753124D01*
X157760135Y-72676660D01*
X157681877Y-72598402D01*
X157502639Y-72472898D01*
X157351414Y-72402381D01*
X157298977Y-72356210D01*
X157279825Y-72289016D01*
X157300041Y-72222135D01*
X157351414Y-72177618D01*
X157502639Y-72107102D01*
X157681877Y-71981598D01*
X157836598Y-71826877D01*
X157962102Y-71647639D01*
X158054575Y-71449330D01*
X158111207Y-71237977D01*
X158128347Y-71042064D01*
X158130277Y-71020002D01*
X158130277Y-71019997D01*
X158123149Y-70938526D01*
X158111207Y-70802023D01*
X158054575Y-70590670D01*
X157962102Y-70392362D01*
X157962100Y-70392359D01*
X157962099Y-70392357D01*
X157836599Y-70213124D01*
X157773938Y-70150463D01*
X157681877Y-70058402D01*
X157677835Y-70055572D01*
X157634213Y-70000997D01*
X157627021Y-69931498D01*
X157658544Y-69869144D01*
X157718774Y-69833731D01*
X157748962Y-69830000D01*
X157772828Y-69830000D01*
X157772844Y-69829999D01*
X157832372Y-69823598D01*
X157832379Y-69823596D01*
X157967086Y-69773354D01*
X157967093Y-69773350D01*
X158082187Y-69687190D01*
X158082190Y-69687187D01*
X158168350Y-69572093D01*
X158168354Y-69572086D01*
X158218596Y-69437379D01*
X158218598Y-69437372D01*
X158224999Y-69377844D01*
X158225000Y-69377827D01*
X158225000Y-68730000D01*
X157308012Y-68730000D01*
X157340925Y-68672993D01*
X157375000Y-68545826D01*
X157375000Y-68414174D01*
X157340925Y-68287007D01*
X157308012Y-68230000D01*
X158225000Y-68230000D01*
X158225000Y-67582172D01*
X158224999Y-67582155D01*
X158218598Y-67522627D01*
X158218596Y-67522620D01*
X158168354Y-67387913D01*
X158168350Y-67387906D01*
X158082190Y-67272812D01*
X158082187Y-67272809D01*
X157967093Y-67186649D01*
X157967086Y-67186645D01*
X157832379Y-67136403D01*
X157832372Y-67136401D01*
X157772844Y-67130000D01*
X157418598Y-67130000D01*
X157351559Y-67110315D01*
X157305804Y-67057511D01*
X157295860Y-66988353D01*
X157324885Y-66924797D01*
X157330917Y-66918319D01*
X157332845Y-66916391D01*
X157420520Y-66828716D01*
X157420520Y-66828714D01*
X157430724Y-66818511D01*
X157430728Y-66818506D01*
X157946006Y-66303228D01*
X157946011Y-66303224D01*
X157956214Y-66293020D01*
X157956216Y-66293020D01*
X158068020Y-66181216D01*
X158146473Y-66045331D01*
X158147077Y-66044285D01*
X158188000Y-65891558D01*
X158188000Y-65891556D01*
X158188768Y-65885723D01*
X158217033Y-65821826D01*
X158224014Y-65814237D01*
X158299443Y-65738809D01*
X158379087Y-65604139D01*
X158422737Y-65453892D01*
X158425500Y-65418787D01*
X158425499Y-64781214D01*
X158422737Y-64746108D01*
X158379087Y-64595861D01*
X158299443Y-64461191D01*
X158299441Y-64461189D01*
X158299438Y-64461185D01*
X158236819Y-64398566D01*
X158203334Y-64337243D01*
X158200500Y-64310885D01*
X158200500Y-63474499D01*
X158220185Y-63407460D01*
X158272989Y-63361705D01*
X158324500Y-63350499D01*
X158481517Y-63350499D01*
X158481518Y-63350499D01*
X158575304Y-63335646D01*
X158688342Y-63278050D01*
X158778050Y-63188342D01*
X158835646Y-63075304D01*
X158835646Y-63075302D01*
X158835647Y-63075301D01*
X158850499Y-62981524D01*
X158850500Y-62981519D01*
X158850499Y-61581516D01*
X158870184Y-61514478D01*
X158922987Y-61468723D01*
X158944827Y-61461120D01*
X158950225Y-61459790D01*
X159017876Y-61424283D01*
X159086383Y-61410559D01*
X159151436Y-61436052D01*
G37*
%TD.AperFunction*%
%TA.AperFunction,Conductor*%
G36*
X134795109Y-77245016D02*
G01*
X134848326Y-77283390D01*
X134858899Y-77296510D01*
X134858908Y-77296520D01*
X134882582Y-77320194D01*
X134916067Y-77381517D01*
X134911083Y-77451209D01*
X134882582Y-77495556D01*
X134659491Y-77718647D01*
X134659489Y-77718650D01*
X134587016Y-77844178D01*
X134575016Y-77888963D01*
X134549500Y-77984189D01*
X134549500Y-77984191D01*
X134549500Y-78025761D01*
X134529815Y-78092800D01*
X134527550Y-78096201D01*
X134475183Y-78172068D01*
X134475182Y-78172068D01*
X134414860Y-78331125D01*
X134414859Y-78331130D01*
X134394355Y-78500000D01*
X134414859Y-78668869D01*
X134414860Y-78668874D01*
X134475182Y-78827931D01*
X134509725Y-78877974D01*
X134571817Y-78967929D01*
X134677505Y-79061560D01*
X134699150Y-79080736D01*
X134849773Y-79159789D01*
X134849775Y-79159790D01*
X135014944Y-79200500D01*
X135022227Y-79202295D01*
X135021509Y-79205205D01*
X135073020Y-79227335D01*
X135112116Y-79285242D01*
X135113698Y-79355094D01*
X135081641Y-79410543D01*
X133175091Y-81317093D01*
X133113768Y-81350578D01*
X133044076Y-81345594D01*
X133016291Y-81330989D01*
X132847639Y-81212898D01*
X132649330Y-81120425D01*
X132649326Y-81120424D01*
X132649322Y-81120422D01*
X132437977Y-81063793D01*
X132220002Y-81044723D01*
X132219998Y-81044723D01*
X132105879Y-81054707D01*
X132002023Y-81063793D01*
X132002020Y-81063793D01*
X131790677Y-81120422D01*
X131790670Y-81120424D01*
X131790670Y-81120425D01*
X131777859Y-81126399D01*
X131592361Y-81212898D01*
X131592357Y-81212900D01*
X131413121Y-81338402D01*
X131258402Y-81493121D01*
X131132900Y-81672357D01*
X131132898Y-81672361D01*
X131062382Y-81823583D01*
X131016209Y-81876022D01*
X130949016Y-81895174D01*
X130882135Y-81874958D01*
X130837618Y-81823583D01*
X130782725Y-81705866D01*
X130767102Y-81672362D01*
X130767100Y-81672359D01*
X130767099Y-81672357D01*
X130641599Y-81493124D01*
X130566957Y-81418482D01*
X130486877Y-81338402D01*
X130307639Y-81212898D01*
X130252093Y-81186996D01*
X130199655Y-81140824D01*
X130180500Y-81074615D01*
X130180500Y-79616441D01*
X130200185Y-79549402D01*
X130216814Y-79528764D01*
X131268756Y-78476822D01*
X131330077Y-78443339D01*
X131399769Y-78448323D01*
X131455702Y-78490195D01*
X131472376Y-78520531D01*
X131475182Y-78527930D01*
X131475182Y-78527931D01*
X131523474Y-78597893D01*
X131571817Y-78667929D01*
X131665021Y-78750500D01*
X131699150Y-78780736D01*
X131789071Y-78827930D01*
X131849775Y-78859790D01*
X132014944Y-78900500D01*
X132185056Y-78900500D01*
X132350225Y-78859790D01*
X132429692Y-78818081D01*
X132500849Y-78780736D01*
X132500850Y-78780734D01*
X132500852Y-78780734D01*
X132628183Y-78667929D01*
X132724818Y-78527930D01*
X132785140Y-78368872D01*
X132788841Y-78338390D01*
X132816463Y-78274213D01*
X132874396Y-78235156D01*
X132944249Y-78233621D01*
X132999618Y-78265656D01*
X133031723Y-78297761D01*
X133050326Y-78312752D01*
X133076068Y-78333497D01*
X133076072Y-78333498D01*
X133076074Y-78333500D01*
X133200438Y-78390296D01*
X133200445Y-78390298D01*
X133335787Y-78409757D01*
X133471128Y-78390298D01*
X133471129Y-78390297D01*
X133471134Y-78390296D01*
X133595500Y-78333500D01*
X133595500Y-78333499D01*
X133595506Y-78333497D01*
X133639853Y-78297759D01*
X134077306Y-77860303D01*
X134077319Y-77860294D01*
X134664095Y-77273517D01*
X134725418Y-77240032D01*
X134795109Y-77245016D01*
G37*
%TD.AperFunction*%
%TA.AperFunction,Conductor*%
G36*
X155647799Y-67080185D02*
G01*
X155693554Y-67132989D01*
X155703498Y-67202147D01*
X155674473Y-67265703D01*
X155668441Y-67272181D01*
X155667809Y-67272812D01*
X155581649Y-67387906D01*
X155581645Y-67387913D01*
X155531403Y-67522620D01*
X155531401Y-67522627D01*
X155525000Y-67582155D01*
X155525000Y-68230000D01*
X156441988Y-68230000D01*
X156409075Y-68287007D01*
X156375000Y-68414174D01*
X156375000Y-68545826D01*
X156409075Y-68672993D01*
X156441988Y-68730000D01*
X155525000Y-68730000D01*
X155525000Y-69377844D01*
X155531401Y-69437372D01*
X155531403Y-69437379D01*
X155581645Y-69572086D01*
X155581649Y-69572093D01*
X155667809Y-69687187D01*
X155667812Y-69687190D01*
X155782906Y-69773350D01*
X155782913Y-69773354D01*
X155917620Y-69823596D01*
X155917627Y-69823598D01*
X155977155Y-69829999D01*
X155977172Y-69830000D01*
X156001037Y-69830000D01*
X156068076Y-69849685D01*
X156113831Y-69902489D01*
X156123775Y-69971647D01*
X156094750Y-70035203D01*
X156072159Y-70055576D01*
X156068119Y-70058404D01*
X155913402Y-70213121D01*
X155787900Y-70392357D01*
X155787898Y-70392361D01*
X155695426Y-70590668D01*
X155695422Y-70590677D01*
X155638793Y-70802020D01*
X155638793Y-70802023D01*
X155637895Y-70812287D01*
X155619723Y-71019997D01*
X155619723Y-71020002D01*
X155625378Y-71084634D01*
X155633429Y-71176670D01*
X155638793Y-71237975D01*
X155638793Y-71237979D01*
X155695422Y-71449322D01*
X155695424Y-71449326D01*
X155695425Y-71449330D01*
X155732035Y-71527841D01*
X155787897Y-71647638D01*
X155791849Y-71653282D01*
X155913402Y-71826877D01*
X156068123Y-71981598D01*
X156204387Y-72077011D01*
X156247361Y-72107102D01*
X156398583Y-72177618D01*
X156451022Y-72223790D01*
X156470174Y-72290984D01*
X156449958Y-72357865D01*
X156398583Y-72402382D01*
X156247361Y-72472898D01*
X156247357Y-72472900D01*
X156068121Y-72598402D01*
X155913402Y-72753121D01*
X155787900Y-72932357D01*
X155787898Y-72932361D01*
X155695426Y-73130668D01*
X155695422Y-73130677D01*
X155638793Y-73342020D01*
X155638793Y-73342024D01*
X155619723Y-73559997D01*
X155619723Y-73560002D01*
X155623976Y-73608609D01*
X155636413Y-73750778D01*
X155638793Y-73777975D01*
X155638793Y-73777979D01*
X155695422Y-73989322D01*
X155695424Y-73989326D01*
X155695425Y-73989330D01*
X155720505Y-74043114D01*
X155787897Y-74187638D01*
X155792304Y-74193932D01*
X155913402Y-74366877D01*
X156068123Y-74521598D01*
X156210825Y-74621519D01*
X156247361Y-74647102D01*
X156398583Y-74717618D01*
X156451022Y-74763790D01*
X156470174Y-74830984D01*
X156449958Y-74897865D01*
X156398583Y-74942382D01*
X156247361Y-75012898D01*
X156247357Y-75012900D01*
X156068121Y-75138402D01*
X155913402Y-75293121D01*
X155787900Y-75472357D01*
X155787898Y-75472361D01*
X155695426Y-75670668D01*
X155695422Y-75670677D01*
X155638793Y-75882020D01*
X155638793Y-75882023D01*
X155635941Y-75914623D01*
X155619723Y-76099997D01*
X155619723Y-76100002D01*
X155638793Y-76317975D01*
X155638793Y-76317979D01*
X155695422Y-76529322D01*
X155695424Y-76529326D01*
X155695425Y-76529330D01*
X155730912Y-76605432D01*
X155787897Y-76727638D01*
X155796207Y-76739506D01*
X155913402Y-76906877D01*
X156068123Y-77061598D01*
X156221625Y-77169081D01*
X156265249Y-77223657D01*
X156274500Y-77270655D01*
X156274500Y-78210885D01*
X156254815Y-78277924D01*
X156238181Y-78298566D01*
X156187681Y-78349066D01*
X156126358Y-78382551D01*
X156056666Y-78377567D01*
X156012319Y-78349066D01*
X155913814Y-78250561D01*
X155913805Y-78250554D01*
X155779139Y-78170913D01*
X155629253Y-78127368D01*
X155628892Y-78127263D01*
X155628891Y-78127262D01*
X155628888Y-78127262D01*
X155597402Y-78124784D01*
X155593787Y-78124500D01*
X155593786Y-78124500D01*
X155031224Y-78124500D01*
X155031202Y-78124501D01*
X154996112Y-78127262D01*
X154996111Y-78127262D01*
X154845860Y-78170913D01*
X154711194Y-78250554D01*
X154711189Y-78250558D01*
X154645198Y-78316549D01*
X154583874Y-78350033D01*
X154514183Y-78345048D01*
X154459144Y-78304357D01*
X154454700Y-78298566D01*
X154453282Y-78296718D01*
X154327841Y-78200464D01*
X154326332Y-78199839D01*
X154181762Y-78139956D01*
X154181760Y-78139955D01*
X154064361Y-78124500D01*
X153585636Y-78124500D01*
X153468246Y-78139953D01*
X153468237Y-78139956D01*
X153322160Y-78200463D01*
X153322159Y-78200464D01*
X153196718Y-78296718D01*
X153196716Y-78296719D01*
X153196715Y-78296721D01*
X153160348Y-78344114D01*
X153103920Y-78385316D01*
X153034174Y-78389469D01*
X152973254Y-78355256D01*
X152955857Y-78332776D01*
X152930072Y-78290122D01*
X152809877Y-78169927D01*
X152664395Y-78081980D01*
X152664396Y-78081980D01*
X152502105Y-78031409D01*
X152502106Y-78031409D01*
X152431572Y-78025000D01*
X152425000Y-78025000D01*
X152425000Y-79974999D01*
X152431581Y-79974999D01*
X152502102Y-79968591D01*
X152502107Y-79968590D01*
X152664396Y-79918018D01*
X152809877Y-79830072D01*
X152930070Y-79709879D01*
X152955856Y-79667224D01*
X153007383Y-79620036D01*
X153076243Y-79608197D01*
X153140572Y-79635465D01*
X153160349Y-79655886D01*
X153196715Y-79703279D01*
X153196716Y-79703280D01*
X153196718Y-79703282D01*
X153322159Y-79799536D01*
X153468238Y-79860044D01*
X153585639Y-79875500D01*
X154064360Y-79875499D01*
X154064363Y-79875499D01*
X154181753Y-79860046D01*
X154181757Y-79860044D01*
X154181762Y-79860044D01*
X154327841Y-79799536D01*
X154453282Y-79703282D01*
X154459141Y-79695645D01*
X154515569Y-79654443D01*
X154585315Y-79650288D01*
X154645198Y-79683451D01*
X154711185Y-79749438D01*
X154711189Y-79749441D01*
X154711191Y-79749443D01*
X154845861Y-79829087D01*
X154996108Y-79872737D01*
X155031213Y-79875500D01*
X155593786Y-79875499D01*
X155628892Y-79872737D01*
X155779139Y-79829087D01*
X155913809Y-79749443D01*
X156012320Y-79650931D01*
X156073641Y-79617448D01*
X156143333Y-79622432D01*
X156187681Y-79650933D01*
X156238181Y-79701433D01*
X156271666Y-79762756D01*
X156274500Y-79789114D01*
X156274500Y-81285950D01*
X156254815Y-81352989D01*
X156202011Y-81398744D01*
X156132853Y-81408688D01*
X156069297Y-81379663D01*
X156062819Y-81373631D01*
X155951082Y-81261894D01*
X155757578Y-81126399D01*
X155543492Y-81026570D01*
X155543486Y-81026567D01*
X155330000Y-80969364D01*
X155330000Y-81866988D01*
X155272993Y-81834075D01*
X155145826Y-81800000D01*
X155014174Y-81800000D01*
X154887007Y-81834075D01*
X154830000Y-81866988D01*
X154830000Y-80969364D01*
X154829999Y-80969364D01*
X154616513Y-81026567D01*
X154616507Y-81026570D01*
X154402422Y-81126399D01*
X154402420Y-81126400D01*
X154208926Y-81261886D01*
X154208920Y-81261891D01*
X154041891Y-81428920D01*
X154041886Y-81428926D01*
X153906400Y-81622420D01*
X153906399Y-81622422D01*
X153867489Y-81705866D01*
X153821317Y-81758305D01*
X153754123Y-81777457D01*
X153687242Y-81757241D01*
X153642725Y-81705866D01*
X153627102Y-81672362D01*
X153627100Y-81672359D01*
X153627099Y-81672357D01*
X153501599Y-81493124D01*
X153426957Y-81418482D01*
X153346877Y-81338402D01*
X153167642Y-81212900D01*
X153167638Y-81212897D01*
X153068484Y-81166661D01*
X152969330Y-81120425D01*
X152969326Y-81120424D01*
X152969322Y-81120422D01*
X152757977Y-81063793D01*
X152540002Y-81044723D01*
X152539998Y-81044723D01*
X152322029Y-81063792D01*
X152322025Y-81063792D01*
X152322023Y-81063793D01*
X152322017Y-81063794D01*
X152322015Y-81063795D01*
X152313659Y-81066034D01*
X152243809Y-81064370D01*
X152193886Y-81033940D01*
X150686819Y-79526873D01*
X150653334Y-79465550D01*
X150650500Y-79439192D01*
X150650500Y-79331582D01*
X151275001Y-79331582D01*
X151281408Y-79402102D01*
X151281409Y-79402107D01*
X151331981Y-79564396D01*
X151419927Y-79709877D01*
X151540122Y-79830072D01*
X151685604Y-79918019D01*
X151685603Y-79918019D01*
X151847894Y-79968590D01*
X151847893Y-79968590D01*
X151918408Y-79974998D01*
X151918426Y-79974999D01*
X151924999Y-79974998D01*
X151925000Y-79974998D01*
X151925000Y-79250000D01*
X151275001Y-79250000D01*
X151275001Y-79331582D01*
X150650500Y-79331582D01*
X150650500Y-78668427D01*
X151275000Y-78668427D01*
X151275000Y-78750000D01*
X151925000Y-78750000D01*
X151925000Y-78025000D01*
X151924999Y-78024999D01*
X151918436Y-78025000D01*
X151918417Y-78025001D01*
X151847897Y-78031408D01*
X151847892Y-78031409D01*
X151685603Y-78081981D01*
X151540122Y-78169927D01*
X151419927Y-78290122D01*
X151331980Y-78435604D01*
X151281409Y-78597893D01*
X151275000Y-78668427D01*
X150650500Y-78668427D01*
X150650500Y-77932934D01*
X150658558Y-77888963D01*
X150685139Y-77818875D01*
X150685140Y-77818870D01*
X150689032Y-77786819D01*
X150705645Y-77650000D01*
X150685140Y-77481128D01*
X150677954Y-77462181D01*
X150630989Y-77338342D01*
X150624818Y-77322070D01*
X150528183Y-77182071D01*
X150405779Y-77073631D01*
X150400849Y-77069263D01*
X150312467Y-77022877D01*
X150262254Y-76974292D01*
X150246280Y-76906273D01*
X150269615Y-76840416D01*
X150282406Y-76825406D01*
X151190987Y-75916825D01*
X151252308Y-75883342D01*
X151322000Y-75888326D01*
X151377933Y-75930198D01*
X151381768Y-75935617D01*
X151455885Y-76046541D01*
X151455888Y-76046545D01*
X151553454Y-76144111D01*
X151553458Y-76144114D01*
X151668182Y-76220771D01*
X151668195Y-76220778D01*
X151783347Y-76268475D01*
X151795672Y-76273580D01*
X151795676Y-76273580D01*
X151795677Y-76273581D01*
X151931004Y-76300500D01*
X151931007Y-76300500D01*
X152068995Y-76300500D01*
X152160041Y-76282389D01*
X152204328Y-76273580D01*
X152216653Y-76268475D01*
X153249500Y-76268475D01*
X153249500Y-77131517D01*
X153257507Y-77182071D01*
X153264354Y-77225304D01*
X153321950Y-77338342D01*
X153321952Y-77338344D01*
X153321954Y-77338347D01*
X153411652Y-77428045D01*
X153411654Y-77428046D01*
X153411658Y-77428050D01*
X153515823Y-77481125D01*
X153524698Y-77485647D01*
X153618475Y-77500499D01*
X153618481Y-77500500D01*
X154681518Y-77500499D01*
X154775304Y-77485646D01*
X154888342Y-77428050D01*
X154978050Y-77338342D01*
X155035646Y-77225304D01*
X155035646Y-77225302D01*
X155035647Y-77225301D01*
X155050499Y-77131524D01*
X155050500Y-77131519D01*
X155050499Y-76268482D01*
X155035646Y-76174696D01*
X154978050Y-76061658D01*
X154978046Y-76061654D01*
X154978045Y-76061652D01*
X154888347Y-75971954D01*
X154888344Y-75971952D01*
X154888342Y-75971950D01*
X154809551Y-75931804D01*
X154775301Y-75914352D01*
X154681524Y-75899500D01*
X153618482Y-75899500D01*
X153537519Y-75912323D01*
X153524696Y-75914354D01*
X153411658Y-75971950D01*
X153411657Y-75971951D01*
X153411652Y-75971954D01*
X153321954Y-76061652D01*
X153321951Y-76061657D01*
X153321950Y-76061658D01*
X153306640Y-76091705D01*
X153264352Y-76174698D01*
X153249500Y-76268475D01*
X152216653Y-76268475D01*
X152331811Y-76220775D01*
X152446542Y-76144114D01*
X152544114Y-76046542D01*
X152620775Y-75931811D01*
X152627895Y-75914623D01*
X152670863Y-75810887D01*
X152673580Y-75804328D01*
X152686563Y-75739060D01*
X152700500Y-75668995D01*
X152700500Y-75531004D01*
X152673581Y-75395677D01*
X152673580Y-75395676D01*
X152673580Y-75395672D01*
X152653725Y-75347737D01*
X152620778Y-75268195D01*
X152620771Y-75268182D01*
X152544114Y-75153458D01*
X152544111Y-75153454D01*
X152536319Y-75145662D01*
X152505925Y-75090000D01*
X153000000Y-75090000D01*
X153147828Y-75090000D01*
X153147841Y-75089999D01*
X153212116Y-75083088D01*
X153280876Y-75095492D01*
X153313411Y-75123079D01*
X153315049Y-75121442D01*
X153411652Y-75218045D01*
X153411654Y-75218046D01*
X153411658Y-75218050D01*
X153510061Y-75268189D01*
X153524698Y-75275647D01*
X153618475Y-75290499D01*
X153618481Y-75290500D01*
X154681518Y-75290499D01*
X154775304Y-75275646D01*
X154888342Y-75218050D01*
X154978050Y-75128342D01*
X155035646Y-75015304D01*
X155035646Y-75015302D01*
X155035647Y-75015301D01*
X155048448Y-74934477D01*
X155050500Y-74921519D01*
X155050499Y-74058482D01*
X155035646Y-73964696D01*
X154978050Y-73851658D01*
X154978046Y-73851654D01*
X154978045Y-73851652D01*
X154888347Y-73761954D01*
X154888344Y-73761952D01*
X154888342Y-73761950D01*
X154793945Y-73713852D01*
X154775301Y-73704352D01*
X154681524Y-73689500D01*
X153724000Y-73689500D01*
X153656961Y-73669815D01*
X153611206Y-73617011D01*
X153600000Y-73565500D01*
X153600000Y-73042172D01*
X153599999Y-73042155D01*
X153593598Y-72982627D01*
X153593596Y-72982620D01*
X153543354Y-72847913D01*
X153543350Y-72847906D01*
X153457190Y-72732812D01*
X153457187Y-72732809D01*
X153342093Y-72646649D01*
X153342086Y-72646645D01*
X153207379Y-72596403D01*
X153207372Y-72596401D01*
X153147844Y-72590000D01*
X153000000Y-72590000D01*
X153000000Y-75090000D01*
X152505925Y-75090000D01*
X152502834Y-75084339D01*
X152500000Y-75057981D01*
X152500000Y-72590000D01*
X152352155Y-72590000D01*
X152292627Y-72596401D01*
X152292620Y-72596403D01*
X152157913Y-72646645D01*
X152157906Y-72646649D01*
X152042812Y-72732809D01*
X152042811Y-72732810D01*
X152028556Y-72751852D01*
X151972620Y-72793721D01*
X151902928Y-72798702D01*
X151841611Y-72765218D01*
X151838347Y-72761954D01*
X151838344Y-72761952D01*
X151838342Y-72761950D01*
X151731569Y-72707546D01*
X151725301Y-72704352D01*
X151631524Y-72689500D01*
X150868478Y-72689500D01*
X150843894Y-72693394D01*
X150774601Y-72684437D01*
X150721150Y-72639439D01*
X150700513Y-72572686D01*
X150700500Y-72570920D01*
X150700500Y-71097844D01*
X152550000Y-71097844D01*
X152556401Y-71157372D01*
X152556403Y-71157379D01*
X152606645Y-71292086D01*
X152606649Y-71292093D01*
X152692809Y-71407187D01*
X152692812Y-71407190D01*
X152807906Y-71493350D01*
X152807913Y-71493354D01*
X152942620Y-71543596D01*
X152942627Y-71543598D01*
X153002155Y-71549999D01*
X153002172Y-71550000D01*
X153550000Y-71550000D01*
X154050000Y-71550000D01*
X154597828Y-71550000D01*
X154597844Y-71549999D01*
X154657372Y-71543598D01*
X154657379Y-71543596D01*
X154792086Y-71493354D01*
X154792093Y-71493350D01*
X154907187Y-71407190D01*
X154907190Y-71407187D01*
X154993350Y-71292093D01*
X154993354Y-71292086D01*
X155043596Y-71157379D01*
X155043598Y-71157372D01*
X155049999Y-71097844D01*
X155050000Y-71097827D01*
X155050000Y-70550000D01*
X154050000Y-70550000D01*
X154050000Y-71550000D01*
X153550000Y-71550000D01*
X153550000Y-70550000D01*
X152550000Y-70550000D01*
X152550000Y-71097844D01*
X150700500Y-71097844D01*
X150700500Y-69670806D01*
X150720185Y-69603767D01*
X150736814Y-69583130D01*
X150817789Y-69502155D01*
X152550000Y-69502155D01*
X152550000Y-70050000D01*
X153550000Y-70050000D01*
X154050000Y-70050000D01*
X155050000Y-70050000D01*
X155050000Y-69502172D01*
X155049999Y-69502155D01*
X155043598Y-69442627D01*
X155043596Y-69442620D01*
X154993354Y-69307913D01*
X154993350Y-69307906D01*
X154907190Y-69192812D01*
X154907187Y-69192809D01*
X154792093Y-69106649D01*
X154792086Y-69106645D01*
X154657379Y-69056403D01*
X154657372Y-69056401D01*
X154597844Y-69050000D01*
X154050000Y-69050000D01*
X154050000Y-70050000D01*
X153550000Y-70050000D01*
X153550000Y-69050000D01*
X153002155Y-69050000D01*
X152942627Y-69056401D01*
X152942620Y-69056403D01*
X152807913Y-69106645D01*
X152807906Y-69106649D01*
X152692812Y-69192809D01*
X152692809Y-69192812D01*
X152606649Y-69307906D01*
X152606645Y-69307913D01*
X152556403Y-69442620D01*
X152556401Y-69442627D01*
X152550000Y-69502155D01*
X150817789Y-69502155D01*
X152648323Y-67671621D01*
X152709642Y-67638139D01*
X152779334Y-67643123D01*
X152835267Y-67684995D01*
X152859684Y-67750459D01*
X152859909Y-67756727D01*
X152860000Y-67758752D01*
X152866087Y-67825745D01*
X152866089Y-67825753D01*
X152914132Y-67979928D01*
X152914133Y-67979930D01*
X152997674Y-68118125D01*
X152997677Y-68118129D01*
X153111870Y-68232322D01*
X153111874Y-68232325D01*
X153250069Y-68315866D01*
X153250073Y-68315868D01*
X153404249Y-68363910D01*
X153404247Y-68363910D01*
X153471257Y-68369999D01*
X153749999Y-68369999D01*
X154250000Y-68369999D01*
X154528751Y-68369999D01*
X154595745Y-68363912D01*
X154595753Y-68363910D01*
X154749928Y-68315867D01*
X154749930Y-68315866D01*
X154888125Y-68232325D01*
X154888129Y-68232322D01*
X155002322Y-68118129D01*
X155002325Y-68118125D01*
X155085866Y-67979930D01*
X155085868Y-67979926D01*
X155133910Y-67825752D01*
X155137160Y-67790000D01*
X154250000Y-67790000D01*
X154250000Y-68369999D01*
X153749999Y-68369999D01*
X153750000Y-68369998D01*
X153750000Y-67414000D01*
X153769685Y-67346961D01*
X153822489Y-67301206D01*
X153874000Y-67290000D01*
X155137159Y-67290000D01*
X155137159Y-67289999D01*
X155133911Y-67254252D01*
X155133911Y-67254250D01*
X155123672Y-67221392D01*
X155122520Y-67151531D01*
X155159320Y-67092139D01*
X155222389Y-67062070D01*
X155242057Y-67060500D01*
X155580760Y-67060500D01*
X155647799Y-67080185D01*
G37*
%TD.AperFunction*%
%TA.AperFunction,Conductor*%
G36*
X140659818Y-74208734D02*
G01*
X140698709Y-74232099D01*
X140711892Y-74243779D01*
X140714530Y-74246116D01*
X140865153Y-74325169D01*
X140865155Y-74325170D01*
X141030324Y-74365880D01*
X141056704Y-74365880D01*
X141123743Y-74385565D01*
X141144385Y-74402199D01*
X141562000Y-74819814D01*
X141655186Y-74913000D01*
X141769314Y-74978892D01*
X141840991Y-74998097D01*
X141900649Y-75034460D01*
X141915627Y-75054749D01*
X141950551Y-75113801D01*
X141950560Y-75113813D01*
X141978709Y-75141962D01*
X142012194Y-75203285D01*
X142007210Y-75272977D01*
X141978710Y-75317324D01*
X141876112Y-75419922D01*
X141787908Y-75562922D01*
X141787906Y-75562927D01*
X141735057Y-75722416D01*
X141725000Y-75820849D01*
X141725000Y-75837500D01*
X142826000Y-75837500D01*
X142893039Y-75857185D01*
X142938794Y-75909989D01*
X142950000Y-75961500D01*
X142950000Y-77024999D01*
X143004136Y-77024999D01*
X143004152Y-77024998D01*
X143102583Y-77014943D01*
X143262072Y-76962093D01*
X143262077Y-76962091D01*
X143405080Y-76873885D01*
X143523885Y-76755080D01*
X143612091Y-76612077D01*
X143612093Y-76612072D01*
X143664942Y-76452583D01*
X143674999Y-76354149D01*
X143674999Y-76204500D01*
X143694683Y-76137460D01*
X143747487Y-76091705D01*
X143798995Y-76080499D01*
X143911323Y-76080499D01*
X143978362Y-76100184D01*
X143999004Y-76116818D01*
X144007686Y-76125500D01*
X144055896Y-76153334D01*
X144095913Y-76176438D01*
X144095915Y-76176439D01*
X144121811Y-76191391D01*
X144121813Y-76191391D01*
X144121814Y-76191392D01*
X144249107Y-76225500D01*
X144249108Y-76225500D01*
X144437518Y-76225500D01*
X144504557Y-76245185D01*
X144535892Y-76274013D01*
X144546560Y-76287914D01*
X144588708Y-76342844D01*
X144596718Y-76353282D01*
X144722159Y-76449536D01*
X144868238Y-76510044D01*
X144985639Y-76525500D01*
X145614360Y-76525499D01*
X145614363Y-76525499D01*
X145731753Y-76510046D01*
X145731757Y-76510044D01*
X145731762Y-76510044D01*
X145778047Y-76490871D01*
X145847515Y-76483402D01*
X145909995Y-76514676D01*
X145945648Y-76574764D01*
X145949500Y-76605432D01*
X145949500Y-77131517D01*
X145957507Y-77182071D01*
X145964354Y-77225304D01*
X146021950Y-77338342D01*
X146021952Y-77338344D01*
X146021954Y-77338347D01*
X146111652Y-77428045D01*
X146111654Y-77428046D01*
X146111658Y-77428050D01*
X146215823Y-77481125D01*
X146224698Y-77485647D01*
X146318475Y-77500499D01*
X146318481Y-77500500D01*
X147381518Y-77500499D01*
X147475304Y-77485646D01*
X147588342Y-77428050D01*
X147678050Y-77338342D01*
X147735646Y-77225304D01*
X147735646Y-77225302D01*
X147735647Y-77225301D01*
X147750499Y-77131524D01*
X147750500Y-77131519D01*
X147750499Y-76857672D01*
X147770183Y-76790635D01*
X147822987Y-76744880D01*
X147892146Y-76734936D01*
X147955701Y-76763961D01*
X147962180Y-76769993D01*
X148095159Y-76902972D01*
X148095169Y-76902983D01*
X148099499Y-76907313D01*
X148099500Y-76907314D01*
X148192686Y-77000500D01*
X148298511Y-77061598D01*
X148306814Y-77066392D01*
X148434107Y-77100500D01*
X148434108Y-77100500D01*
X149291859Y-77100500D01*
X149358898Y-77120185D01*
X149404653Y-77172989D01*
X149414597Y-77242147D01*
X149393908Y-77294941D01*
X149375183Y-77322067D01*
X149375182Y-77322068D01*
X149314860Y-77481125D01*
X149314859Y-77481130D01*
X149294355Y-77650000D01*
X149314859Y-77818870D01*
X149314860Y-77818875D01*
X149341442Y-77888963D01*
X149349500Y-77932934D01*
X149349500Y-79824069D01*
X149359181Y-79872737D01*
X149359731Y-79875499D01*
X149359731Y-79875502D01*
X149368188Y-79918019D01*
X149374499Y-79949744D01*
X149423535Y-80068127D01*
X149477899Y-80149489D01*
X149494726Y-80174673D01*
X149494727Y-80174674D01*
X150158848Y-80838794D01*
X150192333Y-80900117D01*
X150187349Y-80969808D01*
X150145478Y-81025742D01*
X150080013Y-81050159D01*
X150060361Y-81050003D01*
X150000004Y-81044723D01*
X149999998Y-81044723D01*
X149885879Y-81054707D01*
X149782023Y-81063793D01*
X149782020Y-81063793D01*
X149606356Y-81110862D01*
X149536506Y-81109199D01*
X149486582Y-81078768D01*
X148007316Y-79599502D01*
X148007314Y-79599500D01*
X147920542Y-79549402D01*
X147893187Y-79533608D01*
X147808994Y-79511049D01*
X147765892Y-79499500D01*
X147765891Y-79499500D01*
X144963550Y-79499500D01*
X144896511Y-79479815D01*
X144875869Y-79463181D01*
X142486319Y-77073631D01*
X142452834Y-77012308D01*
X142450000Y-76985950D01*
X142450000Y-76337500D01*
X141801550Y-76337500D01*
X141734511Y-76317815D01*
X141713869Y-76301181D01*
X140247042Y-74834354D01*
X140213557Y-74773031D01*
X140218541Y-74703339D01*
X140237535Y-74671655D01*
X140236580Y-74670923D01*
X140308075Y-74577747D01*
X140366013Y-74437874D01*
X140366256Y-74436028D01*
X140366896Y-74434579D01*
X140368119Y-74430018D01*
X140368829Y-74430208D01*
X140394517Y-74372129D01*
X140401484Y-74364554D01*
X140527758Y-74238280D01*
X140527762Y-74238274D01*
X140528803Y-74237234D01*
X140590126Y-74203750D01*
X140659818Y-74208734D01*
G37*
%TD.AperFunction*%
%TA.AperFunction,Conductor*%
G36*
X134840753Y-68329595D02*
G01*
X134846550Y-68336285D01*
X134858901Y-68351611D01*
X134858907Y-68351618D01*
X135029292Y-68522002D01*
X135029299Y-68522009D01*
X135045619Y-68535160D01*
X135073644Y-68557745D01*
X135102334Y-68570847D01*
X135155137Y-68616600D01*
X135163617Y-68632130D01*
X135176718Y-68660818D01*
X135212457Y-68705168D01*
X135212461Y-68705172D01*
X135382846Y-68875556D01*
X135382853Y-68875563D01*
X135388482Y-68880099D01*
X135424954Y-68909491D01*
X135433238Y-68916166D01*
X135431842Y-68917897D01*
X135471007Y-68961488D01*
X135482192Y-69030456D01*
X135461208Y-69085457D01*
X135419780Y-69145476D01*
X135363762Y-69293181D01*
X135344722Y-69449999D01*
X135344722Y-69450000D01*
X135363762Y-69606818D01*
X135415058Y-69742071D01*
X135419780Y-69754523D01*
X135509517Y-69884530D01*
X135627760Y-69989283D01*
X135627762Y-69989284D01*
X135767634Y-70062696D01*
X135921014Y-70100500D01*
X135921015Y-70100500D01*
X136078985Y-70100500D01*
X136195825Y-70071702D01*
X136265628Y-70074771D01*
X136322690Y-70115091D01*
X136348895Y-70179861D01*
X136349500Y-70192099D01*
X136349500Y-70213780D01*
X136329815Y-70280819D01*
X136327552Y-70284217D01*
X136319780Y-70295476D01*
X136263762Y-70443181D01*
X136244722Y-70599999D01*
X136244722Y-70600000D01*
X136263762Y-70756818D01*
X136309152Y-70876499D01*
X136319780Y-70904523D01*
X136409517Y-71034530D01*
X136527760Y-71139283D01*
X136527762Y-71139284D01*
X136667634Y-71212696D01*
X136821014Y-71250500D01*
X136821015Y-71250500D01*
X136978985Y-71250500D01*
X137132365Y-71212696D01*
X137272238Y-71139284D01*
X137272237Y-71139284D01*
X137272240Y-71139283D01*
X137388452Y-71036328D01*
X137451685Y-71006607D01*
X137520949Y-71015791D01*
X137541902Y-71028575D01*
X137541922Y-71028544D01*
X137547589Y-71032045D01*
X137548480Y-71032589D01*
X137548518Y-71032619D01*
X137548520Y-71032620D01*
X137548519Y-71032620D01*
X137565643Y-71040439D01*
X137577206Y-71045720D01*
X137630010Y-71091474D01*
X137638490Y-71107002D01*
X137651594Y-71135695D01*
X137651595Y-71135697D01*
X137687328Y-71180038D01*
X137687334Y-71180045D01*
X137857719Y-71350429D01*
X137857726Y-71350436D01*
X137866101Y-71357185D01*
X137902071Y-71386172D01*
X137930761Y-71399274D01*
X137983564Y-71445027D01*
X137992044Y-71460557D01*
X138005145Y-71489245D01*
X138040884Y-71533595D01*
X138040888Y-71533599D01*
X138211273Y-71703983D01*
X138211280Y-71703990D01*
X138228024Y-71717483D01*
X138255625Y-71739726D01*
X138255626Y-71739726D01*
X138255626Y-71739727D01*
X138272750Y-71747546D01*
X138284313Y-71752827D01*
X138337117Y-71798581D01*
X138345597Y-71814109D01*
X138358701Y-71842802D01*
X138358702Y-71842804D01*
X138394435Y-71887145D01*
X138394441Y-71887152D01*
X138485491Y-71978202D01*
X138518976Y-72039525D01*
X138513992Y-72109217D01*
X138480037Y-72158698D01*
X138359518Y-72265468D01*
X138269781Y-72395475D01*
X138269780Y-72395476D01*
X138213762Y-72543181D01*
X138194722Y-72699999D01*
X138194722Y-72700000D01*
X138213762Y-72856818D01*
X138269780Y-73004523D01*
X138269782Y-73004528D01*
X138273149Y-73009405D01*
X138295031Y-73075760D01*
X138277564Y-73143411D01*
X138269477Y-73155326D01*
X138260568Y-73166937D01*
X138202630Y-73306810D01*
X138202386Y-73308667D01*
X138201744Y-73310116D01*
X138200527Y-73314661D01*
X138199818Y-73314471D01*
X138174118Y-73372563D01*
X138167129Y-73380160D01*
X138040882Y-73506408D01*
X138040881Y-73506409D01*
X138005147Y-73550751D01*
X137992043Y-73579444D01*
X137946287Y-73632247D01*
X137930764Y-73640723D01*
X137902074Y-73653825D01*
X137902068Y-73653829D01*
X137857728Y-73689561D01*
X137833437Y-73713852D01*
X137772113Y-73747336D01*
X137702421Y-73742350D01*
X137684021Y-73733680D01*
X137683848Y-73733609D01*
X137683847Y-73733608D01*
X137683846Y-73733608D01*
X137556552Y-73699500D01*
X137556551Y-73699500D01*
X137538445Y-73699500D01*
X137471406Y-73679815D01*
X137456218Y-73668316D01*
X137450117Y-73662911D01*
X137400852Y-73619266D01*
X137400850Y-73619265D01*
X137400849Y-73619264D01*
X137250226Y-73540210D01*
X137085056Y-73499500D01*
X136914944Y-73499500D01*
X136749773Y-73540210D01*
X136599150Y-73619263D01*
X136471816Y-73732072D01*
X136375182Y-73872068D01*
X136314860Y-74031125D01*
X136314859Y-74031130D01*
X136294355Y-74200000D01*
X136314859Y-74368869D01*
X136314860Y-74368874D01*
X136375182Y-74527931D01*
X136411731Y-74580880D01*
X136457440Y-74647101D01*
X136471818Y-74667930D01*
X136592396Y-74774753D01*
X136629523Y-74833942D01*
X136628755Y-74903807D01*
X136606721Y-74945374D01*
X136590936Y-74964961D01*
X136590934Y-74964965D01*
X136577829Y-74993659D01*
X136532072Y-75046462D01*
X136516551Y-75054936D01*
X136487858Y-75068041D01*
X136487856Y-75068042D01*
X136487855Y-75068043D01*
X136443511Y-75103777D01*
X136443507Y-75103781D01*
X136273123Y-75274166D01*
X136273114Y-75274176D01*
X136237383Y-75318513D01*
X136237381Y-75318518D01*
X136224276Y-75347212D01*
X136178519Y-75400015D01*
X136162998Y-75408489D01*
X136134305Y-75421594D01*
X136134303Y-75421595D01*
X136134302Y-75421596D01*
X136089958Y-75457330D01*
X136089954Y-75457334D01*
X135919570Y-75627719D01*
X135919561Y-75627729D01*
X135883827Y-75672071D01*
X135870723Y-75700764D01*
X135824967Y-75753567D01*
X135809444Y-75762043D01*
X135780754Y-75775145D01*
X135780744Y-75775151D01*
X135760278Y-75791644D01*
X135695726Y-75818380D01*
X135626967Y-75805972D01*
X135575831Y-75758360D01*
X135566533Y-75739060D01*
X135555503Y-75709976D01*
X135551092Y-75698344D01*
X135454457Y-75558345D01*
X135340438Y-75457333D01*
X135327123Y-75445537D01*
X135176500Y-75366484D01*
X135011330Y-75325774D01*
X134841218Y-75325774D01*
X134676047Y-75366484D01*
X134525424Y-75445537D01*
X134398090Y-75558346D01*
X134301456Y-75698342D01*
X134241134Y-75857399D01*
X134241133Y-75857404D01*
X134234186Y-75914623D01*
X134206564Y-75978801D01*
X134148630Y-76017857D01*
X134078777Y-76019392D01*
X134063637Y-76014237D01*
X133963189Y-75972630D01*
X133963184Y-75972629D01*
X133961323Y-75972384D01*
X133959869Y-75971741D01*
X133955339Y-75970527D01*
X133955528Y-75969820D01*
X133897429Y-75944112D01*
X133889846Y-75937135D01*
X133763597Y-75810887D01*
X133763596Y-75810886D01*
X133763593Y-75810883D01*
X133731721Y-75785199D01*
X133719249Y-75775148D01*
X133719247Y-75775147D01*
X133719242Y-75775144D01*
X133690557Y-75762044D01*
X133637753Y-75716290D01*
X133629275Y-75700764D01*
X133616172Y-75672071D01*
X133580434Y-75627723D01*
X133410043Y-75457333D01*
X133410036Y-75457327D01*
X133365696Y-75421594D01*
X133337002Y-75408490D01*
X133284199Y-75362734D01*
X133275723Y-75347212D01*
X133262619Y-75318518D01*
X133228071Y-75275647D01*
X133226882Y-75274171D01*
X133226878Y-75274167D01*
X133056493Y-75103783D01*
X133056483Y-75103774D01*
X133012143Y-75068041D01*
X132983449Y-75054937D01*
X132930646Y-75009181D01*
X132922170Y-74993659D01*
X132909066Y-74964965D01*
X132873328Y-74920617D01*
X132702937Y-74750227D01*
X132702933Y-74750223D01*
X132667336Y-74721537D01*
X132658589Y-74714488D01*
X132658587Y-74714487D01*
X132658582Y-74714484D01*
X132629897Y-74701384D01*
X132577093Y-74655630D01*
X132568616Y-74640107D01*
X132555512Y-74611411D01*
X132519774Y-74567063D01*
X132349383Y-74396673D01*
X132349376Y-74396667D01*
X132305036Y-74360934D01*
X132276342Y-74347830D01*
X132223539Y-74302074D01*
X132215065Y-74286556D01*
X132201959Y-74257858D01*
X132166221Y-74213510D01*
X131995830Y-74043120D01*
X131995823Y-74043114D01*
X131951483Y-74007381D01*
X131922789Y-73994277D01*
X131869986Y-73948521D01*
X131861512Y-73933003D01*
X131848406Y-73904305D01*
X131812668Y-73859957D01*
X131642277Y-73689567D01*
X131642276Y-73689566D01*
X131642273Y-73689563D01*
X131609200Y-73662911D01*
X131597929Y-73653828D01*
X131597927Y-73653827D01*
X131597922Y-73653824D01*
X131569237Y-73640724D01*
X131516433Y-73594970D01*
X131507955Y-73579444D01*
X131494852Y-73550751D01*
X131459114Y-73506403D01*
X131288723Y-73336013D01*
X131288716Y-73336007D01*
X131244376Y-73300274D01*
X131215682Y-73287170D01*
X131162879Y-73241414D01*
X131154405Y-73225896D01*
X131141299Y-73197198D01*
X131105561Y-73152850D01*
X130935170Y-72982460D01*
X130935166Y-72982456D01*
X130910361Y-72962467D01*
X130890822Y-72946721D01*
X130890820Y-72946720D01*
X130890815Y-72946717D01*
X130862130Y-72933617D01*
X130809326Y-72887863D01*
X130800849Y-72872340D01*
X130787745Y-72843644D01*
X130752007Y-72799296D01*
X130581616Y-72628906D01*
X130567693Y-72617686D01*
X130566284Y-72616550D01*
X130526437Y-72559157D01*
X130523944Y-72489332D01*
X130559598Y-72429243D01*
X130566288Y-72423447D01*
X130581616Y-72411095D01*
X130707860Y-72284849D01*
X130769179Y-72251367D01*
X130779366Y-72249592D01*
X130781209Y-72249349D01*
X130921080Y-72191412D01*
X130981182Y-72145294D01*
X130896395Y-72060508D01*
X130862910Y-71999185D01*
X130861339Y-71955178D01*
X130864005Y-71936637D01*
X130865268Y-71927855D01*
X130867473Y-71928172D01*
X130883690Y-71872947D01*
X130936494Y-71827192D01*
X130976066Y-71818583D01*
X130975875Y-71817249D01*
X130997662Y-71814116D01*
X131003197Y-71813320D01*
X131072356Y-71823261D01*
X131108529Y-71848376D01*
X131193314Y-71933162D01*
X131239432Y-71873060D01*
X131297369Y-71733190D01*
X131297612Y-71731344D01*
X131298252Y-71729895D01*
X131299475Y-71725334D01*
X131300185Y-71725524D01*
X131325873Y-71667445D01*
X131332840Y-71659870D01*
X131459113Y-71533597D01*
X131494852Y-71489249D01*
X131507955Y-71460557D01*
X131553705Y-71407755D01*
X131569229Y-71399278D01*
X131597929Y-71386172D01*
X131642277Y-71350434D01*
X131768520Y-71224189D01*
X131829839Y-71190707D01*
X131840026Y-71188932D01*
X131841869Y-71188689D01*
X131981740Y-71130752D01*
X132041842Y-71084634D01*
X131957056Y-70999849D01*
X131923571Y-70938526D01*
X131922000Y-70894517D01*
X131925929Y-70867195D01*
X131928134Y-70867512D01*
X131944351Y-70812287D01*
X131997155Y-70766532D01*
X132036726Y-70757923D01*
X132036535Y-70756589D01*
X132054983Y-70753936D01*
X132063857Y-70752660D01*
X132133016Y-70762601D01*
X132169189Y-70787716D01*
X132253974Y-70872502D01*
X132300092Y-70812400D01*
X132358029Y-70672530D01*
X132358272Y-70670684D01*
X132358912Y-70669235D01*
X132360135Y-70664674D01*
X132360845Y-70664864D01*
X132386533Y-70606785D01*
X132393500Y-70599210D01*
X132519773Y-70472937D01*
X132555512Y-70428589D01*
X132568614Y-70399898D01*
X132614365Y-70347095D01*
X132629889Y-70338618D01*
X132658589Y-70325512D01*
X132702937Y-70289774D01*
X132873327Y-70119383D01*
X132909066Y-70075035D01*
X132922169Y-70046342D01*
X132967920Y-69993541D01*
X132983434Y-69985069D01*
X133012142Y-69971959D01*
X133056490Y-69936221D01*
X133226880Y-69765830D01*
X133262619Y-69721482D01*
X133275722Y-69692789D01*
X133321473Y-69639988D01*
X133336987Y-69631516D01*
X133365695Y-69618406D01*
X133410043Y-69582668D01*
X133580433Y-69412277D01*
X133616172Y-69367929D01*
X133629274Y-69339238D01*
X133675025Y-69286435D01*
X133690549Y-69277958D01*
X133719249Y-69264852D01*
X133763597Y-69229114D01*
X133933987Y-69058723D01*
X133969726Y-69014375D01*
X133982829Y-68985682D01*
X134028580Y-68932881D01*
X134044094Y-68924409D01*
X134072802Y-68911299D01*
X134117150Y-68875561D01*
X134287540Y-68705170D01*
X134323279Y-68660822D01*
X134336382Y-68632130D01*
X134382132Y-68579328D01*
X134397656Y-68570851D01*
X134426356Y-68557745D01*
X134470704Y-68522007D01*
X134641094Y-68351616D01*
X134653448Y-68336284D01*
X134710838Y-68296438D01*
X134780663Y-68293943D01*
X134840753Y-68329595D01*
G37*
%TD.AperFunction*%
%TA.AperFunction,Conductor*%
G36*
X152276966Y-65833358D02*
G01*
X152309117Y-65851162D01*
X152361762Y-65891558D01*
X152377878Y-65903924D01*
X152419080Y-65960352D01*
X152423235Y-66030098D01*
X152390072Y-66089981D01*
X149544727Y-68935325D01*
X149544726Y-68935326D01*
X149537644Y-68945925D01*
X149478829Y-69033951D01*
X149478828Y-69033952D01*
X149478827Y-69033951D01*
X149473535Y-69041872D01*
X149473534Y-69041874D01*
X149424499Y-69160255D01*
X149424497Y-69160261D01*
X149399500Y-69285928D01*
X149399500Y-74821683D01*
X149379815Y-74888722D01*
X149327011Y-74934477D01*
X149257853Y-74944421D01*
X149228050Y-74936245D01*
X149204332Y-74926421D01*
X149204322Y-74926418D01*
X149068760Y-74899453D01*
X149006849Y-74867068D01*
X148972275Y-74806352D01*
X148976015Y-74736583D01*
X148982463Y-74721550D01*
X148985646Y-74715304D01*
X148985776Y-74714487D01*
X149000499Y-74621524D01*
X149000500Y-74621519D01*
X149000499Y-73058482D01*
X148985646Y-72964696D01*
X148928050Y-72851658D01*
X148928046Y-72851654D01*
X148928045Y-72851652D01*
X148838347Y-72761954D01*
X148838344Y-72761952D01*
X148838342Y-72761950D01*
X148725304Y-72704354D01*
X148725302Y-72704353D01*
X148722942Y-72703151D01*
X148672146Y-72655176D01*
X148671988Y-72654905D01*
X148650500Y-72617686D01*
X148557314Y-72524500D01*
X148282314Y-72249500D01*
X148195842Y-72199575D01*
X148168187Y-72183608D01*
X148104539Y-72166554D01*
X148040892Y-72149500D01*
X148040891Y-72149500D01*
X145171412Y-72149500D01*
X145104373Y-72129815D01*
X145058618Y-72077011D01*
X145048674Y-72007853D01*
X145053706Y-71986497D01*
X145064942Y-71952586D01*
X145064942Y-71952585D01*
X145074999Y-71854150D01*
X145075000Y-71854137D01*
X145075000Y-71837500D01*
X143974000Y-71837500D01*
X143906961Y-71817815D01*
X143861206Y-71765011D01*
X143850000Y-71713500D01*
X143850000Y-71463304D01*
X143869685Y-71396265D01*
X143922489Y-71350510D01*
X143941913Y-71343528D01*
X143948647Y-71341724D01*
X143980734Y-71337500D01*
X144919745Y-71337500D01*
X144986784Y-71357185D01*
X145007426Y-71373819D01*
X145011652Y-71378045D01*
X145011654Y-71378046D01*
X145011658Y-71378050D01*
X145124694Y-71435645D01*
X145124698Y-71435647D01*
X145218475Y-71450499D01*
X145218481Y-71450500D01*
X146781518Y-71450499D01*
X146875304Y-71435646D01*
X146988342Y-71378050D01*
X147078050Y-71288342D01*
X147135646Y-71175304D01*
X147135646Y-71175302D01*
X147135647Y-71175301D01*
X147148923Y-71091474D01*
X147150500Y-71081519D01*
X147150499Y-69518482D01*
X147135646Y-69424696D01*
X147078050Y-69311658D01*
X147078046Y-69311654D01*
X147078045Y-69311652D01*
X146988347Y-69221954D01*
X146988344Y-69221952D01*
X146988342Y-69221950D01*
X146911517Y-69182805D01*
X146875301Y-69164352D01*
X146781524Y-69149500D01*
X145218482Y-69149500D01*
X145137519Y-69162323D01*
X145124696Y-69164354D01*
X145011658Y-69221950D01*
X145011657Y-69221951D01*
X145011652Y-69221954D01*
X144923611Y-69309996D01*
X144862288Y-69343481D01*
X144792596Y-69338497D01*
X144748249Y-69309996D01*
X144738814Y-69300561D01*
X144738805Y-69300554D01*
X144604139Y-69220913D01*
X144453889Y-69177262D01*
X144422286Y-69174775D01*
X144356998Y-69149890D01*
X144315528Y-69093658D01*
X144311042Y-69023933D01*
X144344334Y-68963478D01*
X146320995Y-66986819D01*
X146382318Y-66953334D01*
X146408676Y-66950500D01*
X150915890Y-66950500D01*
X150915892Y-66950500D01*
X151043186Y-66916392D01*
X151157314Y-66850500D01*
X152145954Y-65861857D01*
X152207275Y-65828374D01*
X152276966Y-65833358D01*
G37*
%TD.AperFunction*%
%TA.AperFunction,Conductor*%
G36*
X127085140Y-69920185D02*
G01*
X127130895Y-69972989D01*
X127140839Y-70042147D01*
X127122666Y-70088517D01*
X127123267Y-70088833D01*
X127120407Y-70094281D01*
X127120148Y-70094944D01*
X127119780Y-70095476D01*
X127063762Y-70243181D01*
X127044722Y-70399999D01*
X127044722Y-70400000D01*
X127063762Y-70556818D01*
X127110125Y-70679066D01*
X127119780Y-70704523D01*
X127209517Y-70834530D01*
X127327760Y-70939283D01*
X127327762Y-70939284D01*
X127467634Y-71012696D01*
X127621014Y-71050500D01*
X127621015Y-71050500D01*
X127778986Y-71050500D01*
X127778989Y-71050499D01*
X127813212Y-71042064D01*
X127883014Y-71045132D01*
X127930568Y-71074778D01*
X128032452Y-71176660D01*
X128032463Y-71176670D01*
X128079139Y-71214286D01*
X128210055Y-71274074D01*
X128231668Y-71277181D01*
X128298665Y-71286812D01*
X128343015Y-71302161D01*
X128454266Y-71366392D01*
X128581560Y-71400500D01*
X128911525Y-71400500D01*
X128978564Y-71420185D01*
X128999206Y-71436819D01*
X129973473Y-72411085D01*
X129973483Y-72411094D01*
X129988811Y-72423447D01*
X129988814Y-72423449D01*
X130028661Y-72480842D01*
X130031154Y-72550667D01*
X129995500Y-72610756D01*
X129988817Y-72616547D01*
X129973486Y-72628902D01*
X129973479Y-72628908D01*
X129524110Y-73078278D01*
X128739206Y-73863181D01*
X128677883Y-73896666D01*
X128651525Y-73899500D01*
X120929387Y-73899500D01*
X120862348Y-73879815D01*
X120841706Y-73863181D01*
X120729303Y-73750778D01*
X120695818Y-73689455D01*
X120693869Y-73648317D01*
X120700500Y-73593102D01*
X120700500Y-72481898D01*
X120689877Y-72393436D01*
X120634361Y-72252658D01*
X120634360Y-72252657D01*
X120634360Y-72252656D01*
X120542922Y-72132077D01*
X120422343Y-72040639D01*
X120397612Y-72030886D01*
X120358223Y-72015353D01*
X120303081Y-71972449D01*
X120279888Y-71906541D01*
X120296008Y-71838557D01*
X120346325Y-71790080D01*
X120358214Y-71784649D01*
X120422342Y-71759361D01*
X120542922Y-71667922D01*
X120634361Y-71547342D01*
X120689877Y-71406564D01*
X120694916Y-71364594D01*
X120722452Y-71300382D01*
X120756038Y-71271989D01*
X120762757Y-71268109D01*
X120769259Y-71264357D01*
X120858738Y-71212696D01*
X120875515Y-71203010D01*
X122141705Y-69936818D01*
X122203028Y-69903334D01*
X122229386Y-69900500D01*
X127018101Y-69900500D01*
X127085140Y-69920185D01*
G37*
%TD.AperFunction*%
%TA.AperFunction,Conductor*%
G36*
X108005703Y-62418669D02*
G01*
X108043477Y-62477447D01*
X108044275Y-62480289D01*
X108066566Y-62563483D01*
X108066570Y-62563492D01*
X108166399Y-62777578D01*
X108301894Y-62971082D01*
X108468917Y-63138105D01*
X108662421Y-63273600D01*
X108876507Y-63373429D01*
X108876516Y-63373433D01*
X109090000Y-63430634D01*
X109090000Y-62533012D01*
X109147007Y-62565925D01*
X109274174Y-62600000D01*
X109405826Y-62600000D01*
X109532993Y-62565925D01*
X109590000Y-62533012D01*
X109590000Y-63430633D01*
X109803483Y-63373433D01*
X109803492Y-63373429D01*
X110017578Y-63273600D01*
X110211082Y-63138105D01*
X110378105Y-62971082D01*
X110513598Y-62777580D01*
X110552509Y-62694135D01*
X110598681Y-62641695D01*
X110665875Y-62622543D01*
X110732756Y-62642758D01*
X110777273Y-62694133D01*
X110792895Y-62727633D01*
X110792897Y-62727637D01*
X110792898Y-62727639D01*
X110918402Y-62906877D01*
X111073123Y-63061598D01*
X111252361Y-63187102D01*
X111450670Y-63279575D01*
X111450676Y-63279576D01*
X111450677Y-63279577D01*
X111462691Y-63282796D01*
X111662023Y-63336207D01*
X111844926Y-63352208D01*
X111879998Y-63355277D01*
X111880000Y-63355277D01*
X111880002Y-63355277D01*
X111908254Y-63352805D01*
X112097977Y-63336207D01*
X112309330Y-63279575D01*
X112507639Y-63187102D01*
X112686877Y-63061598D01*
X112841598Y-62906877D01*
X112967102Y-62727639D01*
X113037618Y-62576414D01*
X113083790Y-62523977D01*
X113150984Y-62504825D01*
X113217865Y-62525041D01*
X113262381Y-62576414D01*
X113332898Y-62727639D01*
X113458402Y-62906877D01*
X113613123Y-63061598D01*
X113792361Y-63187102D01*
X113990670Y-63279575D01*
X113990676Y-63279576D01*
X113990677Y-63279577D01*
X114002691Y-63282796D01*
X114202023Y-63336207D01*
X114384926Y-63352208D01*
X114419998Y-63355277D01*
X114420000Y-63355277D01*
X114420002Y-63355277D01*
X114448254Y-63352805D01*
X114637977Y-63336207D01*
X114849330Y-63279575D01*
X115047639Y-63187102D01*
X115226877Y-63061598D01*
X115381598Y-62906877D01*
X115507102Y-62727639D01*
X115577618Y-62576414D01*
X115623790Y-62523977D01*
X115690984Y-62504825D01*
X115757865Y-62525041D01*
X115802381Y-62576414D01*
X115872898Y-62727639D01*
X115998402Y-62906877D01*
X116153123Y-63061598D01*
X116332361Y-63187102D01*
X116530670Y-63279575D01*
X116530676Y-63279576D01*
X116530677Y-63279577D01*
X116542691Y-63282796D01*
X116742023Y-63336207D01*
X116924926Y-63352208D01*
X116959998Y-63355277D01*
X116960000Y-63355277D01*
X116960002Y-63355277D01*
X116988254Y-63352805D01*
X117177977Y-63336207D01*
X117389330Y-63279575D01*
X117587639Y-63187102D01*
X117766877Y-63061598D01*
X117921598Y-62906877D01*
X118047102Y-62727639D01*
X118117618Y-62576414D01*
X118163790Y-62523977D01*
X118230984Y-62504825D01*
X118297865Y-62525041D01*
X118342381Y-62576414D01*
X118412898Y-62727639D01*
X118538402Y-62906877D01*
X118693123Y-63061598D01*
X118872361Y-63187102D01*
X119070670Y-63279575D01*
X119070676Y-63279576D01*
X119070677Y-63279577D01*
X119106356Y-63289137D01*
X119282023Y-63336207D01*
X119336307Y-63340955D01*
X119401374Y-63366406D01*
X119442354Y-63422996D01*
X119449500Y-63464483D01*
X119449500Y-69584503D01*
X119429815Y-69651542D01*
X119377011Y-69697297D01*
X119310718Y-69707619D01*
X119270651Y-69702808D01*
X119243102Y-69699500D01*
X118856898Y-69699500D01*
X118817853Y-69704188D01*
X118768438Y-69710122D01*
X118739629Y-69721483D01*
X118627658Y-69765639D01*
X118627657Y-69765639D01*
X118620490Y-69768466D01*
X118550903Y-69774747D01*
X118529510Y-69768466D01*
X118522342Y-69765639D01*
X118381564Y-69710123D01*
X118381563Y-69710122D01*
X118381561Y-69710122D01*
X118335926Y-69704642D01*
X118293102Y-69699500D01*
X117906898Y-69699500D01*
X117867853Y-69704188D01*
X117818438Y-69710122D01*
X117677656Y-69765639D01*
X117557077Y-69857077D01*
X117465639Y-69977656D01*
X117410122Y-70118438D01*
X117406277Y-70150463D01*
X117399500Y-70206898D01*
X117399500Y-70206903D01*
X117399500Y-70275500D01*
X117379815Y-70342539D01*
X117327011Y-70388294D01*
X117275500Y-70399500D01*
X117012603Y-70399500D01*
X116945564Y-70379815D01*
X116899809Y-70327011D01*
X116889507Y-70260554D01*
X116895645Y-70210000D01*
X116891985Y-70179861D01*
X116875140Y-70041128D01*
X116814818Y-69882070D01*
X116797566Y-69857077D01*
X116762013Y-69805570D01*
X116718183Y-69742071D01*
X116602955Y-69639988D01*
X116590849Y-69629263D01*
X116440226Y-69550210D01*
X116275056Y-69509500D01*
X116104944Y-69509500D01*
X115939773Y-69550210D01*
X115789150Y-69629263D01*
X115661816Y-69742072D01*
X115565182Y-69882068D01*
X115565182Y-69882069D01*
X115522554Y-69994471D01*
X115480376Y-70050174D01*
X115414778Y-70074231D01*
X115406612Y-70074500D01*
X114985636Y-70074500D01*
X114868246Y-70089953D01*
X114868237Y-70089956D01*
X114722160Y-70150463D01*
X114596718Y-70246718D01*
X114498376Y-70374880D01*
X114441947Y-70416082D01*
X114372201Y-70420237D01*
X114311281Y-70386024D01*
X114301624Y-70374880D01*
X114276808Y-70342539D01*
X114203282Y-70246718D01*
X114077841Y-70150464D01*
X113931762Y-70089956D01*
X113931760Y-70089955D01*
X113814362Y-70074500D01*
X113389351Y-70074500D01*
X113322312Y-70054815D01*
X113277631Y-70004302D01*
X113275789Y-70000479D01*
X113275789Y-70000478D01*
X113179816Y-69847738D01*
X113052262Y-69720184D01*
X113036250Y-69710123D01*
X112899523Y-69624211D01*
X112729254Y-69564631D01*
X112729249Y-69564630D01*
X112550004Y-69544435D01*
X112549997Y-69544435D01*
X112537876Y-69545800D01*
X112469055Y-69533742D01*
X112417678Y-69486390D01*
X112399999Y-69422578D01*
X112400000Y-69300000D01*
X110081000Y-69300000D01*
X110013961Y-69280315D01*
X109968206Y-69227511D01*
X109963672Y-69206672D01*
X109957000Y-69200000D01*
X109149728Y-69200000D01*
X109241614Y-69161940D01*
X109311940Y-69091614D01*
X109350000Y-68999728D01*
X109350000Y-68900272D01*
X109311940Y-68808386D01*
X109241614Y-68738060D01*
X109149728Y-68700000D01*
X109969000Y-68700000D01*
X110036039Y-68719685D01*
X110081794Y-68772489D01*
X110086327Y-68793327D01*
X110093000Y-68800000D01*
X110950000Y-68800000D01*
X111450000Y-68800000D01*
X112399999Y-68800000D01*
X112399999Y-68450028D01*
X112399998Y-68450013D01*
X112389505Y-68347302D01*
X112334358Y-68180880D01*
X112334356Y-68180875D01*
X112242315Y-68031654D01*
X112118345Y-67907684D01*
X111969124Y-67815643D01*
X111969119Y-67815641D01*
X111802697Y-67760494D01*
X111802690Y-67760493D01*
X111699986Y-67750000D01*
X111450000Y-67750000D01*
X111450000Y-68800000D01*
X110950000Y-68800000D01*
X110950000Y-67750000D01*
X110700029Y-67750000D01*
X110700012Y-67750001D01*
X110597302Y-67760494D01*
X110430880Y-67815641D01*
X110430875Y-67815643D01*
X110281654Y-67907684D01*
X110157684Y-68031654D01*
X110065643Y-68180875D01*
X110065641Y-68180880D01*
X110031495Y-68283927D01*
X109991722Y-68341372D01*
X109927206Y-68368195D01*
X109858430Y-68355880D01*
X109826108Y-68332604D01*
X109705593Y-68212089D01*
X109705589Y-68212086D01*
X109550000Y-68108124D01*
X109549991Y-68108119D01*
X109377105Y-68036508D01*
X109377097Y-68036506D01*
X109193570Y-68000000D01*
X109000000Y-68000000D01*
X109000000Y-68700000D01*
X108500000Y-68700000D01*
X108500000Y-68000000D01*
X108306430Y-68000000D01*
X108122902Y-68036506D01*
X108122890Y-68036509D01*
X107971952Y-68099030D01*
X107902483Y-68106499D01*
X107840004Y-68075224D01*
X107804352Y-68015135D01*
X107800500Y-67984469D01*
X107800500Y-62512382D01*
X107820185Y-62445343D01*
X107872989Y-62399588D01*
X107942147Y-62389644D01*
X108005703Y-62418669D01*
G37*
%TD.AperFunction*%
%TA.AperFunction,Conductor*%
G36*
X120837865Y-62525040D02*
G01*
X120882381Y-62576414D01*
X120952898Y-62727639D01*
X121078402Y-62906877D01*
X121233123Y-63061598D01*
X121412361Y-63187102D01*
X121610670Y-63279575D01*
X121610676Y-63279576D01*
X121610677Y-63279577D01*
X121622691Y-63282796D01*
X121822023Y-63336207D01*
X122004926Y-63352208D01*
X122039998Y-63355277D01*
X122040000Y-63355277D01*
X122040002Y-63355277D01*
X122068254Y-63352805D01*
X122257977Y-63336207D01*
X122469330Y-63279575D01*
X122667639Y-63187102D01*
X122667641Y-63187100D01*
X122667644Y-63187099D01*
X122723654Y-63147879D01*
X122743494Y-63133986D01*
X122809698Y-63111658D01*
X122877466Y-63128667D01*
X122902299Y-63147879D01*
X128342239Y-68587819D01*
X128375724Y-68649142D01*
X128370740Y-68718834D01*
X128328868Y-68774767D01*
X128263404Y-68799184D01*
X128254558Y-68799500D01*
X121877525Y-68799500D01*
X121804975Y-68818939D01*
X121804975Y-68818940D01*
X121737515Y-68837016D01*
X121737514Y-68837016D01*
X121737512Y-68837017D01*
X121611989Y-68909487D01*
X121611984Y-68909491D01*
X120762181Y-69759293D01*
X120700858Y-69792778D01*
X120631166Y-69787794D01*
X120575233Y-69745922D01*
X120550816Y-69680458D01*
X120550500Y-69671612D01*
X120550500Y-62819008D01*
X120570185Y-62751969D01*
X120572927Y-62747882D01*
X120587102Y-62727639D01*
X120657618Y-62576417D01*
X120703790Y-62523977D01*
X120770983Y-62504825D01*
X120837865Y-62525040D01*
G37*
%TD.AperFunction*%
%TA.AperFunction,Conductor*%
G36*
X139818834Y-65791494D02*
G01*
X139874767Y-65833366D01*
X139899184Y-65898830D01*
X139899500Y-65907676D01*
X139899500Y-66337161D01*
X139879815Y-66404200D01*
X139863181Y-66424842D01*
X139431778Y-66856245D01*
X139431777Y-66856247D01*
X139375963Y-66933065D01*
X139375962Y-66933068D01*
X139336759Y-67053720D01*
X139336759Y-67063905D01*
X139317074Y-67130944D01*
X139264270Y-67176699D01*
X139260213Y-67178466D01*
X139176197Y-67213267D01*
X139130882Y-67248038D01*
X139130882Y-67248039D01*
X139560457Y-67677614D01*
X139593942Y-67738937D01*
X139588958Y-67808629D01*
X139560457Y-67852976D01*
X139452976Y-67960457D01*
X139391653Y-67993942D01*
X139321961Y-67988958D01*
X139277614Y-67960457D01*
X138848039Y-67530882D01*
X138848038Y-67530882D01*
X138813266Y-67576198D01*
X138773189Y-67672953D01*
X138729348Y-67727356D01*
X138663053Y-67749421D01*
X138658628Y-67749500D01*
X138521014Y-67749500D01*
X138367634Y-67787303D01*
X138227762Y-67860715D01*
X138109515Y-67965471D01*
X138074336Y-68016437D01*
X138020053Y-68060427D01*
X137950604Y-68068086D01*
X137896800Y-68044371D01*
X137868408Y-68022584D01*
X137765464Y-67979944D01*
X137711061Y-67936103D01*
X137688996Y-67869809D01*
X137706275Y-67802110D01*
X137725232Y-67777706D01*
X139222719Y-66280219D01*
X139239584Y-66267280D01*
X139239345Y-66266968D01*
X139245787Y-66262023D01*
X139245794Y-66262020D01*
X139687819Y-65819995D01*
X139749142Y-65786510D01*
X139818834Y-65791494D01*
G37*
%TD.AperFunction*%
%TA.AperFunction,Conductor*%
G36*
X144659363Y-65320185D02*
G01*
X144705118Y-65372989D01*
X144715062Y-65442147D01*
X144686037Y-65505703D01*
X144680005Y-65512181D01*
X143756918Y-66435266D01*
X143695595Y-66468751D01*
X143625903Y-66463767D01*
X143581556Y-66435266D01*
X143533698Y-66387408D01*
X143456884Y-66331598D01*
X143456882Y-66331597D01*
X143426717Y-66321796D01*
X143336228Y-66292394D01*
X143336225Y-66292394D01*
X143331602Y-66292394D01*
X143264563Y-66272709D01*
X143218808Y-66219905D01*
X143208864Y-66150749D01*
X143212248Y-66127209D01*
X143212248Y-66127207D01*
X143191787Y-65984891D01*
X143132061Y-65854110D01*
X143132060Y-65854108D01*
X143094482Y-65807477D01*
X143094476Y-65807470D01*
X142799187Y-65512181D01*
X142765702Y-65450858D01*
X142770686Y-65381166D01*
X142812558Y-65325233D01*
X142878022Y-65300816D01*
X142886868Y-65300500D01*
X144592324Y-65300500D01*
X144659363Y-65320185D01*
G37*
%TD.AperFunction*%
%TD*%
M02*
